<svg xmlns="http://www.w3.org/2000/svg" xmlns:xlink="http://www.w3.org/1999/xlink" width="1920" zoomAndPan="magnify" viewBox="0 0 1440 809.999993" height="1080" preserveAspectRatio="xMidYMid meet" version="1.0"><defs><clipPath id="4b16aef92c"><path d="M 45.09375 182.28125 L 1395 182.28125 L 1395 627.78125 L 45.09375 627.78125 Z M 45.09375 182.28125 " clip-rule="nonzero"/></clipPath></defs><g clip-path="url(#4b16aef92c)"><path fill="#fafaff" d="M 268.550781 182.28125 L 1171.449219 182.28125 C 1294.449219 182.28125 1394.164062 281.992188 1394.164062 404.996094 C 1394.164062 527.996094 1294.449219 627.710938 1171.449219 627.710938 L 268.550781 627.710938 C 145.546875 627.710938 45.835938 527.996094 45.835938 404.996094 C 45.835938 281.992188 145.546875 182.28125 268.550781 182.28125 Z M 310.085938 464 L 380.574219 534.484375 C 384.648438 538.558594 391.253906 538.558594 395.328125 534.484375 L 410.078125 519.734375 C 414.152344 515.660156 414.152344 509.054688 410.078125 504.980469 L 339.589844 434.496094 C 362.445312 398.222656 358.078125 349.71875 326.484375 318.125 C 289.820312 281.460938 230.378906 281.460938 193.71875 318.125 C 157.054688 354.789062 157.054688 414.230469 193.71875 450.890625 C 225.308594 482.484375 273.816406 486.851562 310.085938 464 Z M 303.03125 427.4375 C 278.75 451.71875 239.382812 451.71875 215.101562 427.4375 C 190.820312 403.15625 190.820312 363.789062 215.101562 339.507812 C 239.382812 315.226562 278.75 315.226562 303.03125 339.507812 C 327.3125 363.789062 327.3125 403.15625 303.03125 427.4375 Z M 303.03125 427.4375 " fill-opacity="1" fill-rule="nonzero"/></g></svg>