<svg width="313" height="283" viewBox="0 0 313 283" fill="none" xmlns="http://www.w3.org/2000/svg">
<g filter="url(#filter0_i_337_183)">
<path d="M141.156 282.097C219.055 282.097 282.204 218.948 282.204 141.049C282.204 63.1496 219.055 0 141.156 0C63.2567 0 0.107079 63.1496 0.107079 141.049C0.107079 218.948 63.2567 282.097 141.156 282.097Z" fill="#EBDBCD"/>
</g>
<mask id="mask0_337_183" style="mask-type:alpha" maskUnits="userSpaceOnUse" x="0" y="0" width="283" height="283">
<path d="M141.146 282.097C219.045 282.097 282.195 218.948 282.195 141.049C282.195 63.1496 219.045 0 141.146 0C63.2469 0 0.09729 63.1496 0.09729 141.049C0.09729 218.948 63.2469 282.097 141.146 282.097Z" fill="#EBDBCD"/>
</mask>
<g mask="url(#mask0_337_183)">
<path d="M109.565 125.009C109.302 124.875 109.13 124.576 109.13 124.245C109.13 123.791 109.456 123.42 109.855 123.42H113.419V119.366C113.419 118.912 113.745 118.54 114.144 118.54C114.543 118.54 114.87 118.912 114.87 119.366V125.081H109.846C109.755 125.081 109.656 125.05 109.565 125.009Z" fill="#110580"/>
<path d="M36.4141 124.957C36.1511 124.823 35.9788 124.524 35.9788 124.194C35.9788 123.74 36.3053 123.368 36.7042 123.368H45.8447C46.2437 123.368 46.5701 123.74 46.5701 124.194C46.5701 124.648 46.2437 125.019 45.8447 125.019H36.7042C36.6045 125.019 36.5047 124.998 36.4141 124.957ZM54.7041 124.957C54.3323 124.782 54.16 124.287 54.3232 123.874C54.4411 123.564 54.7041 123.368 55.0033 123.368H64.1438C64.5428 123.368 64.8692 123.74 64.8692 124.194C64.8692 124.648 64.5428 125.019 64.1438 125.019H54.9942C54.8945 125.029 54.7947 125.009 54.7041 124.957ZM72.9941 124.957C72.6223 124.782 72.45 124.287 72.6132 123.874C72.7311 123.564 72.9941 123.368 73.2933 123.368H82.4338C82.8328 123.368 83.1592 123.74 83.1592 124.194C83.1592 124.648 82.8328 125.019 82.4338 125.019H73.2842C73.1936 125.019 73.1029 125.009 73.0213 124.978L72.9941 124.957ZM91.275 124.957C91.012 124.823 90.8397 124.524 90.8397 124.194C90.8397 123.74 91.1662 123.368 91.5652 123.368H100.688C101.086 123.368 101.413 123.74 101.413 124.194C101.413 124.648 101.086 125.019 100.688 125.019H91.5652C91.4654 125.029 91.3657 125.019 91.275 124.988V124.957Z" fill="#110580"/>
<path d="M22.5401 125.019V119.304C22.5401 118.85 22.8665 118.479 23.2655 118.479C23.6645 118.479 23.991 118.85 23.991 119.304V123.358H27.5547C27.9536 123.358 28.2801 123.73 28.2801 124.184C28.2801 124.638 27.9536 125.009 27.5547 125.009H22.5401V125.019Z" fill="#110580"/>
<path d="M22.9845 110.401C22.7215 110.266 22.5492 109.967 22.5492 109.637V99.9704C22.5492 99.5165 22.8756 99.1451 23.2746 99.1451C23.6736 99.1451 24.0001 99.5165 24.0001 99.9704V109.637C24.0001 110.091 23.6736 110.462 23.2746 110.462C23.1749 110.473 23.0751 110.452 22.9845 110.401ZM22.9845 91.0774C22.7215 90.9433 22.5492 90.6441 22.5492 90.314V80.6575C22.5492 80.2036 22.8756 79.8322 23.2746 79.8322C23.6736 79.8322 24.0001 80.2036 24.0001 80.6575V90.314C24.0001 90.7679 23.6736 91.1393 23.2746 91.1393C23.1839 91.1393 23.0842 91.1187 22.9845 91.0774ZM22.9845 71.7646C22.7215 71.6304 22.5492 71.3313 22.5492 71.0011V61.3344C22.5492 60.8804 22.8756 60.509 23.2746 60.509C23.6736 60.509 24.0001 60.8804 24.0001 61.3344V71.0011C24.0001 71.4551 23.6736 71.8265 23.2746 71.8265C23.1839 71.8265 23.0933 71.8058 23.0026 71.7646H22.9845Z" fill="#110580"/>
<path d="M23.0116 52.4307C22.7487 52.2966 22.5764 51.9974 22.5764 51.6673V45.9622H27.6C27.999 45.9622 28.3254 46.3336 28.3254 46.7875C28.3254 47.2414 27.999 47.6128 27.6 47.6128H24.0363V51.6673C24.0363 52.1212 23.7099 52.4926 23.3109 52.4926C23.2111 52.5029 23.1114 52.4823 23.0116 52.4307Z" fill="#110580"/>
<path d="M36.4593 47.5616C36.0876 47.3965 35.8971 46.9116 36.0513 46.4886C36.1601 46.1585 36.4412 45.9521 36.7495 45.9625H45.89C46.289 45.9625 46.6154 46.3339 46.6154 46.7878C46.6154 47.2417 46.289 47.6131 45.89 47.6131H36.7495C36.6498 47.6235 36.55 47.6028 36.4593 47.5616ZM54.7493 47.6131C54.3504 47.5203 54.0874 47.0767 54.169 46.6227C54.2506 46.1688 54.6405 45.8696 55.0395 45.9625H64.18C64.579 45.9625 64.9054 46.3339 64.9054 46.7878C64.9054 47.2417 64.579 47.6131 64.18 47.6131H55.0395C54.9398 47.6338 54.84 47.6338 54.7493 47.6131ZM73.0212 47.6131C72.7582 47.479 72.5859 47.1798 72.5859 46.8497C72.5859 46.3958 72.9124 46.0244 73.3114 46.0244H82.4881C82.8871 46.0244 83.2135 46.3958 83.2135 46.8497C83.2135 47.3036 82.8871 47.675 82.4881 47.675H73.3204C73.2207 47.6854 73.1119 47.6647 73.0212 47.6131ZM91.3112 47.6131C91.0482 47.479 90.8759 47.1798 90.8759 46.8497C90.8759 46.3958 91.2024 46.0244 91.6014 46.0244H100.742C101.141 46.0244 101.467 46.3958 101.467 46.8497C101.467 47.3036 101.141 47.675 100.742 47.675H91.6014C91.5107 47.6854 91.411 47.6544 91.3112 47.6131Z" fill="#110580"/>
<path d="M113.899 52.503C113.637 52.3689 113.464 52.0697 113.464 51.7396V47.6851H109.901C109.502 47.6851 109.175 47.3137 109.175 46.8598C109.175 46.4058 109.502 46.0344 109.901 46.0344H114.924V51.7705C114.924 52.2244 114.598 52.5958 114.199 52.5958C114.09 52.5855 113.99 52.5546 113.899 52.503Z" fill="#110580"/>
<path d="M113.863 110.462C113.6 110.328 113.428 110.029 113.428 109.699V100.042C113.428 99.5883 113.754 99.2169 114.153 99.2169C114.552 99.2169 114.879 99.5883 114.879 100.042V109.74C114.879 110.194 114.552 110.565 114.153 110.565C114.054 110.565 113.954 110.524 113.863 110.462ZM113.863 91.1493C113.6 91.0151 113.428 90.716 113.428 90.3858V80.75C113.428 80.2961 113.754 79.9247 114.153 79.9247C114.552 79.9247 114.879 80.2961 114.879 80.75V90.3858C114.879 90.8398 114.552 91.2112 114.153 91.2112C114.063 91.2112 113.963 91.1905 113.863 91.1493ZM113.863 71.8158C113.6 71.6816 113.428 71.3825 113.428 71.0523V61.3959C113.428 60.942 113.754 60.5706 114.153 60.5706C114.552 60.5706 114.879 60.942 114.879 61.3959V71.0523C114.879 71.5063 114.552 71.8777 114.153 71.8777C114.063 71.8777 113.972 71.857 113.881 71.8158H113.863Z" fill="#110580"/>
<path d="M-1.09991 100.63L-0.519564 100.527C0.867828 100.197 2.26429 101.053 2.79023 102.56L6.82545 115.321C6.87079 115.497 6.90706 115.672 6.94334 115.848C5.58315 117.147 3.94185 118.004 2.19174 118.334C0.632062 118.633 -0.97296 118.52 -2.47823 117.993C-2.47823 117.828 -2.53264 117.674 -2.53264 117.519L-3.41223 104.004C-3.48477 102.384 -2.49637 100.95 -1.09991 100.63Z" fill="#D7D7E6"/>
<path d="M-1.29039 81.3176C-1.57149 80.7605 -2.19718 80.5748 -2.68685 80.8946C-2.841 80.9977 -2.96795 81.1422 -3.05863 81.3176C-3.66618 82.7103 -4.48229 84.5157 -5.08984 85.7125C-6.15986 87.7964 -6.6586 92.8413 -6.15079 95.1007C-5.4979 97.4838 -4.49136 99.7226 -3.18558 101.724C-3.0677 101.91 -2.90448 102.044 -2.71405 102.116C-1.78912 102.426 -0.800717 102.456 0.142346 102.188C1.97407 101.683 2.20076 100.3 2.20076 100.3C2.20076 100.3 3.25264 95.6165 3.08035 92.8413C2.91713 90.0764 1.54787 86.3727 0.976595 85.7125C0.142346 84.3094 -0.610291 82.8341 -1.29039 81.3176Z" fill="#C7645D"/>
<path d="M13.7805 166.492L7.03402 116.704C7.00681 116.425 6.9524 116.147 6.87079 115.878C5.51967 117.127 3.91465 117.952 2.20081 118.262C0.659268 118.561 -0.91855 118.447 -2.41476 117.942C-2.39662 118.251 -2.35128 118.561 -2.28781 118.86L8.14937 167.782C8.72972 169.484 10.4164 170.34 11.9126 169.68C13.0642 169.174 13.8168 167.895 13.7805 166.492Z" fill="#2B31BA"/>
<path d="M17.8298 76.955L11.7774 171.406L25.4343 172.539L31.4868 78.0878L17.8298 76.955Z" fill="#DADAED"/>
<path d="M25.9806 90.3828L25.9094 91.4941L30.6034 91.8835L30.6747 90.7722L25.9806 90.3828Z" fill="#989BD7"/>
<path d="M25.3336 100.696L25.2645 101.818L29.9685 102.192L30.0376 101.07L25.3336 100.696Z" fill="#989BD7"/>
<path d="M24.622 111.519L24.5508 112.63L29.2448 113.02L29.3161 111.908L24.622 111.519Z" fill="#989BD7"/>
<path d="M23.952 122.093L23.8808 123.205L28.5748 123.594L28.646 122.483L23.952 122.093Z" fill="#989BD7"/>
<path d="M23.2825 132.652L23.2113 133.763L27.9053 134.153L27.9765 133.041L23.2825 132.652Z" fill="#989BD7"/>
<path d="M22.5963 143.221L22.5251 144.333L27.2191 144.722L27.2903 143.611L22.5963 143.221Z" fill="#989BD7"/>
<path d="M21.9169 153.79L21.8457 154.901L26.5398 155.29L26.611 154.179L21.9169 153.79Z" fill="#989BD7"/>
<path d="M31.7203 109.439L20.244 184.038L28.9616 185.774L40.4378 111.175L31.7203 109.439Z" fill="#FFADB2"/>
<path d="M31.7532 109.441L40.4675 111.184L39.1073 96.9268L37.2937 96.5657L31.7532 109.441Z" fill="#EBDBCD"/>
<path d="M38.5632 103.498L37.3118 102.518L36.26 102.673L34.9904 101.91L37.2937 96.5657L39.1073 96.9268L39.6514 102.663L38.5632 103.498Z" fill="#FF7A82"/>
<path d="M37.8558 136.13H-0.311071C-1.21786 136.11 -1.96143 136.925 -1.97957 137.956C-1.97957 138.049 -1.97957 138.142 -1.9705 138.225L3.12567 184.608C3.36144 186.754 4.96646 188.374 6.87072 188.374H30.7919C32.6962 188.374 34.3102 186.754 34.5369 184.598L39.4699 138.214C39.5787 137.193 38.9349 136.264 38.0281 136.151C37.9646 136.141 37.9102 136.13 37.8558 136.13Z" fill="#FF7A82"/>
</g>
<path d="M61.6331 56.635H230.377C236.378 56.635 241.246 61.6902 241.246 67.9215V178.63C241.246 184.861 236.378 189.916 230.377 189.916H61.6331C55.632 189.916 50.7637 184.861 50.7637 178.63V67.9112C50.7736 61.6902 55.632 56.635 61.6331 56.635Z" fill="#B3B6DE"/>
<path d="M60.8581 63.7534H231.142C232.732 63.7534 234.023 65.0946 234.023 66.7453V177.33C234.023 178.981 232.732 180.322 231.142 180.322H60.8581C59.2685 180.322 57.9769 178.981 57.9769 177.33V66.7349C57.9868 65.0843 59.2685 63.7534 60.8581 63.7534Z" fill="#E8EAF7"/>
<path d="M262.022 243.357H29.9887C26.3822 243.346 23.4711 240.313 23.4711 236.568C23.4711 235.464 23.7294 234.392 24.2262 233.411L47.7534 195.776C49.6014 192.176 53.2179 189.916 57.1523 189.916H234.848C238.783 189.916 242.399 192.165 244.257 195.776L267.784 233.411C269.463 236.723 268.251 240.819 265.062 242.562C264.118 243.089 263.075 243.357 262.022 243.357Z" fill="#C5C6E3"/>
<path d="M268.51 236.383C268.629 240.117 265.797 243.243 262.201 243.367C262.131 243.367 262.061 243.367 261.992 243.367H29.9887C26.3921 243.367 23.4711 240.344 23.4711 236.599C23.4711 236.527 23.4711 236.455 23.4711 236.383V242.377C23.5207 246.081 26.4219 249.062 29.9887 249.062H262.022C265.579 249.041 268.47 246.07 268.519 242.377V236.383H268.51Z" fill="#999BC9"/>
<path d="M191.172 238.456H100.848C99.6959 238.456 98.762 237.486 98.752 236.29C98.752 235.929 98.8415 235.578 99.0004 235.258L102.587 223.198C103.173 222.042 104.336 221.31 105.608 221.32H186.462C187.724 221.32 188.887 222.042 189.483 223.198L193.03 235.258C193.576 236.31 193.199 237.631 192.175 238.198C191.857 238.363 191.52 238.456 191.172 238.456Z" fill="#D8DBF2"/>
<path d="M224.297 217.173H67.7236C66.3624 217.173 65.2497 216.028 65.2497 214.614C65.2497 214.192 65.349 213.779 65.5378 213.397L72.1349 199.129C72.8304 197.747 74.2015 196.89 75.7018 196.901H216.318C217.809 196.901 219.18 197.757 219.885 199.129L226.482 213.366C227.138 214.615 226.701 216.172 225.499 216.853C225.131 217.07 224.714 217.183 224.297 217.173Z" fill="#A7A9D6"/>
<path d="M57.987 74.1011H234.043V177.32C234.043 178.97 232.762 180.301 231.172 180.301H60.8583C59.2686 180.301 57.987 178.97 57.987 177.32V74.1011Z" fill="white"/>
<path d="M94.2115 83.6338H112.513C112.97 83.6338 113.347 84.0155 113.347 84.5004V103.504C113.347 103.978 112.98 104.37 112.513 104.37H94.2115C93.7544 104.37 93.3769 103.989 93.3769 103.504V84.4901C93.3868 84.0155 93.7544 83.6338 94.2115 83.6338Z" fill="#E8E8F7"/>
<path d="M130.685 100.563H196.805C197.819 100.563 198.633 101.409 198.633 102.462V102.472C198.633 103.524 197.819 104.37 196.805 104.37H130.685C129.671 104.37 128.856 103.524 128.856 102.472V102.462C128.856 101.409 129.671 100.563 130.685 100.563Z" fill="#E8E8F7"/>
<path d="M130.685 92.0935H178.246C179.259 92.0935 180.074 92.9395 180.074 93.9918V94.0021C180.074 95.0544 179.259 95.9004 178.246 95.9004H130.685C129.671 95.9004 128.856 95.0544 128.856 94.0021V93.9918C128.856 92.9498 129.671 92.0935 130.685 92.0935Z" fill="#E8E8F7"/>
<path d="M130.685 83.6338H187.525C188.539 83.6338 189.354 84.4798 189.354 85.5321V85.5424C189.354 86.5947 188.539 87.4407 187.525 87.4407H130.685C129.671 87.4407 128.856 86.5947 128.856 85.5424V85.5321C128.856 84.4798 129.671 83.6338 130.685 83.6338Z" fill="#E8E8F7"/>
<path d="M94.2115 117.349H112.513C112.97 117.349 113.347 117.73 113.347 118.215V137.219C113.347 137.693 112.98 138.085 112.513 138.085H94.2115C93.7544 138.085 93.3769 137.703 93.3769 137.219V118.215C93.3868 117.741 93.7544 117.349 94.2115 117.349Z" fill="#E8E8F7"/>
<path d="M130.685 134.279H196.805C197.819 134.279 198.633 135.125 198.633 136.177V136.187C198.633 137.239 197.819 138.085 196.805 138.085H130.685C129.671 138.085 128.856 137.239 128.856 136.187V136.177C128.856 135.125 129.671 134.279 130.685 134.279Z" fill="#E8E8F7"/>
<path d="M130.685 125.819H178.246C179.259 125.819 180.074 126.665 180.074 127.717V127.727C180.074 128.779 179.259 129.625 178.246 129.625H130.685C129.671 129.625 128.856 128.779 128.856 127.727V127.717C128.856 126.665 129.671 125.819 130.685 125.819Z" fill="#E8E8F7"/>
<path d="M130.685 117.349H187.525C188.539 117.349 189.354 118.195 189.354 119.247V119.257C189.354 120.31 188.539 121.155 187.525 121.155H130.685C129.671 121.155 128.856 120.31 128.856 119.257V119.247C128.856 118.205 129.671 117.349 130.685 117.349Z" fill="#E8E8F7"/>
<path d="M94.2115 151.074H112.513C112.97 151.074 113.347 151.456 113.347 151.941V170.944C113.347 171.419 112.98 171.811 112.513 171.811H94.2115C93.7544 171.811 93.3769 171.429 93.3769 170.944V151.941C93.3868 151.456 93.7544 151.074 94.2115 151.074Z" fill="#E8E8F7"/>
<path d="M130.685 167.993H196.805C197.819 167.993 198.633 168.839 198.633 169.892V169.902C198.633 170.954 197.819 171.8 196.805 171.8H130.685C129.671 171.8 128.856 170.954 128.856 169.902V169.892C128.856 168.85 129.671 167.993 130.685 167.993Z" fill="#E8E8F7"/>
<path d="M130.685 159.534H178.246C179.259 159.534 180.074 160.38 180.074 161.432V161.442C180.074 162.495 179.259 163.341 178.246 163.341H130.685C129.671 163.341 128.856 162.495 128.856 161.442V161.432C128.856 160.38 129.671 159.534 130.685 159.534Z" fill="#E8E8F7"/>
<path d="M130.685 151.074H187.525C188.539 151.074 189.354 151.92 189.354 152.972V152.983C189.354 154.035 188.539 154.881 187.525 154.881H130.685C129.671 154.881 128.856 154.035 128.856 152.983V152.972C128.856 151.92 129.671 151.074 130.685 151.074Z" fill="#E8E8F7"/>
<path d="M64.4549 70.841C65.4865 70.841 66.3227 69.9726 66.3227 68.9015C66.3227 67.8303 65.4865 66.9619 64.4549 66.9619C63.4233 66.9619 62.587 67.8303 62.587 68.9015C62.587 69.9726 63.4233 70.841 64.4549 70.841Z" fill="#FF7A82"/>
<path d="M71.3799 70.841C72.4115 70.841 73.2477 69.9726 73.2477 68.9015C73.2477 67.8303 72.4115 66.9619 71.3799 66.9619C70.3483 66.9619 69.512 67.8303 69.512 68.9015C69.512 69.9726 70.3483 70.841 71.3799 70.841Z" fill="#FDB62F"/>
<path d="M78.3049 70.841C79.3365 70.841 80.1727 69.9726 80.1727 68.9015C80.1727 67.8303 79.3365 66.9619 78.3049 66.9619C77.2733 66.9619 76.437 67.8303 76.437 68.9015C76.437 69.9726 77.2733 70.841 78.3049 70.841Z" fill="#64A7B0"/>
<path d="M312.116 84.098C312.196 84.0774 312.285 84.0774 312.375 84.098C312.702 84.1908 312.901 84.5519 312.812 84.8924C312.812 84.9027 312.802 84.913 312.802 84.9233C312.434 86.1923 311.937 87.4097 311.321 88.5651C311.153 88.8746 310.775 88.9881 310.467 88.8127C310.169 88.6373 310.06 88.2453 310.229 87.9255C310.805 86.8526 311.262 85.7177 311.6 84.5416C311.669 84.3043 311.868 84.1289 312.116 84.098Z" fill="#110580"/>
<path d="M209.006 57.2746C209.076 57.2643 209.155 57.2643 209.225 57.2746L210.119 57.5016C212.205 58.0277 214.351 58.5848 216.617 59.2348C216.954 59.3276 217.143 59.6887 217.054 60.0395C217.054 60.0498 217.054 60.0498 217.044 60.0601C216.964 60.4005 216.627 60.6069 216.299 60.5243C216.279 60.5243 216.259 60.514 216.249 60.5037C214.004 59.8538 211.858 59.307 209.791 58.7808L208.887 58.5539C208.559 58.4713 208.35 58.1206 208.43 57.7801C208.509 57.5016 208.738 57.2952 209.006 57.2746ZM223.621 61.6489C223.711 61.6282 223.81 61.6282 223.909 61.6489C226.314 62.5671 228.658 63.6606 230.924 64.9089C231.232 65.074 231.341 65.466 231.182 65.7859C231.023 66.1057 230.645 66.2192 230.337 66.0541C228.122 64.8367 225.827 63.7741 223.472 62.8766C223.144 62.7528 222.975 62.3917 223.095 62.0512C223.174 61.8139 223.373 61.6489 223.611 61.6282L223.621 61.6489ZM236.915 69.1491C237.084 69.1285 237.253 69.1801 237.382 69.2935C239.409 70.9442 241.257 72.8218 242.906 74.8852C243.124 75.1637 243.095 75.5661 242.826 75.7931C242.558 76.02 242.161 75.9788 241.942 75.7002C240.352 73.7091 238.564 71.9037 236.617 70.3046C236.348 70.0879 236.299 69.6753 236.507 69.3967C236.607 69.2626 236.756 69.1697 236.915 69.1491ZM246.493 81.2196C246.751 81.1887 247.009 81.3228 247.118 81.5704C248.301 83.9433 249.235 86.4399 249.9 89.0294C250.02 89.3698 249.861 89.7412 249.533 89.8754C249.205 89.9992 248.847 89.8341 248.718 89.4936C248.698 89.4524 248.688 89.4111 248.688 89.3595C248.052 86.8526 247.158 84.4385 246.006 82.1378C245.847 81.8283 245.966 81.4363 246.264 81.2712L246.274 81.2609C246.344 81.23 246.423 81.2196 246.502 81.2196H246.493ZM243.353 90.0198C244.754 89.8444 246.165 89.7722 247.576 89.8135C247.923 89.8238 248.192 90.123 248.192 90.4737C248.182 90.8348 247.893 91.1134 247.556 91.103C246.204 91.0721 244.843 91.1443 243.502 91.3094C242.389 91.4435 241.276 91.6601 240.193 91.949C239.856 92.0316 239.518 91.8252 239.438 91.4744C239.329 91.134 239.508 90.7729 239.836 90.6594C239.856 90.6491 239.876 90.6491 239.885 90.6491C241.028 90.3499 242.19 90.123 243.353 89.9785V90.0198ZM255.007 90.8451C255.077 90.8348 255.146 90.8348 255.216 90.8451C257.71 91.4435 260.164 92.1657 262.588 93.022C262.906 93.1664 263.045 93.5584 262.906 93.8886C262.787 94.1671 262.489 94.3219 262.191 94.26C259.816 93.4243 257.402 92.7125 254.958 92.1244C254.62 92.0419 254.411 91.6808 254.491 91.33C254.55 91.0721 254.759 90.8761 255.007 90.8451ZM233.07 93.9195C233.298 93.8886 233.517 93.9917 233.656 94.1877C233.855 94.4766 233.795 94.879 233.517 95.0853C232.464 95.8694 231.5 96.7772 230.655 97.7986C229.92 98.6961 229.314 99.6969 228.857 100.759C228.678 101.069 228.291 101.172 227.993 100.986C227.734 100.832 227.625 100.512 227.715 100.223C228.231 99.0263 228.897 97.9121 229.712 96.9114C230.626 95.8075 231.659 94.8274 232.801 93.9917C232.891 93.9298 233 93.9092 233.109 93.9092L233.07 93.9195ZM250.228 96.4058H250.308C250.655 96.4058 250.934 96.6947 250.934 97.0558C250.954 99.7691 250.526 102.462 249.672 105.02C249.553 105.35 249.195 105.526 248.877 105.423C248.559 105.299 248.39 104.927 248.5 104.597C249.304 102.173 249.712 99.6246 249.692 97.0558C249.672 96.705 249.92 96.4058 250.258 96.3749L250.228 96.4058ZM269.503 95.5702C269.593 95.5495 269.682 95.5495 269.771 95.5702C270.616 95.8694 271.46 96.1582 272.305 96.3955C273.954 96.9423 275.494 97.3962 277.004 97.7883C277.342 97.8708 277.551 98.2216 277.471 98.562C277.392 98.9128 277.054 99.1294 276.726 99.0469C275.196 98.6446 273.626 98.2216 271.937 97.6438C271.083 97.3653 270.228 97.0867 269.374 96.8185C269.046 96.7153 268.867 96.3439 268.967 96.0035C269.056 95.7662 269.265 95.5908 269.503 95.5702ZM305.777 93.5997C305.986 93.5791 306.205 93.6616 306.334 93.837C306.552 94.1155 306.513 94.5179 306.244 94.7448C304.218 96.4471 301.952 97.8089 299.528 98.7787C299.21 98.9025 298.862 98.7374 298.733 98.4176C298.624 98.0875 298.783 97.7264 299.091 97.5923C301.396 96.6638 303.552 95.3742 305.469 93.7544C305.569 93.6616 305.678 93.61 305.807 93.5791L305.777 93.5997ZM284.237 99.2429H284.376C286.85 99.5318 289.354 99.5524 291.838 99.3151C292.186 99.2739 292.494 99.5318 292.524 99.8929C292.563 100.254 292.315 100.574 291.967 100.605C289.404 100.852 286.811 100.832 284.257 100.533C283.919 100.491 283.671 100.171 283.711 99.8207C283.741 99.5112 283.979 99.2532 284.277 99.2223L284.237 99.2429ZM227.099 107.527C227.426 107.486 227.734 107.723 227.784 108.064C228.062 110.096 229.056 111.943 230.566 113.263C230.874 113.521 231.202 113.759 231.54 113.965C231.838 114.14 231.937 114.543 231.768 114.852C231.589 115.162 231.212 115.265 230.904 115.089C230.506 114.842 230.129 114.563 229.771 114.264C228.032 112.747 226.9 110.612 226.582 108.27C226.542 107.93 226.761 107.599 227.099 107.527ZM245.032 110.767C245.221 110.736 245.42 110.808 245.549 110.952C245.797 111.2 245.797 111.613 245.559 111.871C245.559 111.871 245.559 111.871 245.549 111.881C243.661 113.82 241.316 115.213 238.763 115.946C238.435 116.039 238.087 115.832 237.998 115.481C237.908 115.141 238.107 114.78 238.445 114.687C240.8 114.006 242.946 112.717 244.684 110.942C244.794 110.839 244.933 110.787 245.072 110.787L245.032 110.767Z" fill="#110580"/>
<path d="M198.315 53.4366C198.474 53.416 198.623 53.4572 198.752 53.5501C199.736 54.231 200.809 54.7675 201.932 55.1595C202.26 55.2833 202.419 55.6547 202.299 55.9951C202.18 56.3356 201.823 56.5007 201.495 56.3769C200.283 55.9539 199.12 55.3658 198.057 54.623C197.779 54.4064 197.719 54.004 197.918 53.7048C198.017 53.5604 198.176 53.4676 198.345 53.4469L198.315 53.4366Z" fill="#110580"/>
<path d="M196.954 164.506C210.831 164.506 222.081 152.825 222.081 138.415C222.081 124.006 210.831 112.324 196.954 112.324C183.077 112.324 171.827 124.006 171.827 138.415C171.827 152.825 183.077 164.506 196.954 164.506Z" fill="#E8EBFF"/>
<path d="M218.415 152.033C220.223 148.959 224.088 147.979 227.059 149.857L265.499 174.214C268.46 176.092 269.404 180.105 267.595 183.19C265.787 186.264 261.922 187.244 258.952 185.367L220.511 161.009C217.55 159.131 216.607 155.118 218.415 152.033Z" fill="#2B31BA"/>
<path d="M197.838 133.577H172.265L172.165 134.206C171.957 135.516 171.847 136.837 171.837 138.168V138.931H197.848C199.269 138.931 200.422 137.735 200.422 136.259C200.422 134.784 199.269 133.587 197.848 133.587C197.848 133.577 197.838 133.577 197.838 133.577Z" fill="#CFCFEB"/>
<path d="M181.614 127.686C181.614 126.211 180.461 125.014 179.041 125.014H175.295L175.086 125.406C174.411 126.675 173.834 127.996 173.358 129.368L173.01 130.379H179.041C180.461 130.358 181.614 129.161 181.614 127.686Z" fill="#CFCFEB"/>
<path d="M191.013 119.113C191.003 117.638 189.85 116.451 188.439 116.451H182.756L182.568 116.596C181.038 117.741 179.637 119.061 178.375 120.526L177.312 121.775H188.42C189.84 121.785 191.003 120.588 191.013 119.113C191.013 119.123 191.013 119.123 191.013 119.113Z" fill="#CFCFEB"/>
<path d="M188.439 150.579H174.52L175.116 151.693C175.861 153.086 176.716 154.417 177.689 155.655L177.908 155.923H188.449C189.87 155.923 191.023 154.726 191.023 153.251C191.013 151.776 189.86 150.579 188.439 150.579Z" fill="#CFCFEB"/>
<path d="M170.496 121.661C161.584 136.837 166.204 156.634 180.809 165.899C195.424 175.153 214.49 170.356 223.412 155.19C232.324 140.014 227.704 120.217 213.099 110.962C198.494 101.708 179.428 106.495 170.506 121.661C170.506 121.651 170.496 121.651 170.496 121.661ZM218.405 152.013C211.182 164.32 195.712 168.21 183.869 160.71C172.016 153.209 168.271 137.146 175.494 124.849C182.717 112.551 198.186 108.652 210.029 116.152C221.882 123.652 225.628 139.705 218.405 152.013Z" fill="#2B31BA"/>
<path d="M207.148 123.085C209.721 125.478 210.486 128.584 209.92 130.864C209.294 133.35 213.109 132.772 213.725 130.513C214.828 126.716 213.437 122.61 210.278 120.361C206.681 117.875 202.2 117.184 198.057 118.453C197.322 118.597 196.845 119.34 196.984 120.103C197.004 120.227 197.053 120.361 197.103 120.475C198.027 121.589 199.19 121.248 202.031 121.248C203.889 121.238 205.697 121.878 207.148 123.085Z" fill="white"/>
<defs>
<filter id="filter0_i_337_183" x="0.107079" y="0" width="282.097" height="286.097" filterUnits="userSpaceOnUse" color-interpolation-filters="sRGB">
<feFlood flood-opacity="0" result="BackgroundImageFix"/>
<feBlend mode="normal" in="SourceGraphic" in2="BackgroundImageFix" result="shape"/>
<feColorMatrix in="SourceAlpha" type="matrix" values="0 0 0 0 0 0 0 0 0 0 0 0 0 0 0 0 0 0 127 0" result="hardAlpha"/>
<feOffset dy="4"/>
<feGaussianBlur stdDeviation="2"/>
<feComposite in2="hardAlpha" operator="arithmetic" k2="-1" k3="1"/>
<feColorMatrix type="matrix" values="0 0 0 0 0 0 0 0 0 0 0 0 0 0 0 0 0 0 0.25 0"/>
<feBlend mode="normal" in2="shape" result="effect1_innerShadow_337_183"/>
</filter>
</defs>
</svg>
