<svg width="579" height="583" viewBox="0 0 579 583" fill="none" xmlns="http://www.w3.org/2000/svg">
<path d="M444.996 418.961L443.971 428.814C441.304 435.231 438.639 441.644 435.975 448.053C435.045 450.303 434.111 452.55 433.173 454.792C432.748 455.841 432.144 456.808 431.39 457.649C431.352 457.706 431.303 457.753 431.245 457.787C431.186 457.821 431.121 457.842 431.054 457.847C430.828 457.847 430.747 457.544 430.73 457.317C430.601 454.887 430.313 452.468 429.867 450.076C427.372 438.527 414.055 434.294 403.609 434.556C399.43 434.621 395.313 435.581 391.531 437.372C386.077 440.031 383.952 447.423 383.663 447.697L383.431 448.648L379.691 464.336C378.903 467.834 378.301 469.682 375.094 470.615C374.989 470.65 371.793 472.364 371.689 472.364C370.45 472.714 373.843 471.962 372.5 471.734L368.244 471.064L366.432 470.644L339.989 464.342C341.014 464.517 342.062 464.709 343.127 464.925L349.264 466.4L347.643 458.564C343.422 434.172 350.417 412.041 362.332 400.025C365.471 396.866 367.028 396.055 370.687 393.95L372.743 398.854C372.743 398.854 393.772 405.167 398.728 385.794C400.732 385.969 404.582 385.94 406.568 386.377C416.92 388.563 426.27 394.119 433.173 402.188C433.781 402.888 434.377 403.611 434.968 404.345L435.281 404.73C435.645 405.191 436.033 405.663 436.398 406.135L436.659 406.508C439.685 410.486 442.47 414.644 444.996 418.961Z" fill="black"/>
<path d="M195.123 316.983C198.458 300.193 212.62 283.927 253.069 280.202C342.976 271.929 294.375 246.971 323.649 219.657C352.924 192.343 463.611 237.281 434.655 307.463C405.7 377.644 501.287 299.75 541.77 388.645C547.635 401.546 550.459 415.636 550.021 429.817C549.51 444.8 545.678 459.479 538.806 472.778C525.877 498.209 501.86 520.864 467.126 534.903C462 537.005 456.634 538.896 451.029 540.575" stroke="#5847A2" stroke-width="5.23453" stroke-miterlimit="10"/>
<path d="M475.139 555.447H365.708L362.448 554.468C362.448 554.468 361.788 517.057 357.422 507.484L373.634 513.034L389.337 517.581C389.337 517.581 410.939 518.036 423.29 495.836C423.29 495.836 425.368 490.536 427.233 480.981C428.842 472.69 437.4 426.983 440.99 416.775C444.863 423.59 450.931 435.314 453.861 442.462C457.034 450.222 459.703 457.952 461.886 465.117C465.519 476.913 468.385 488.935 470.466 501.106C473.579 519.05 475.142 537.232 475.139 555.447Z" fill="black"/>
<path d="M479.922 455.072C479.221 463.31 473.674 464.651 473.674 464.651C468.984 467.444 461.781 464.441 460.328 459.206C460.307 459.15 460.295 459.091 460.293 459.031C459.135 454.548 456.877 448.788 453.843 442.485C447.996 428.237 440.393 413.872 430.643 402.509C423.739 394.44 414.39 388.884 404.038 386.698C404.003 386.698 403.986 386.663 403.951 386.663C390.223 382.5 383.541 374 380.646 365.85C380.646 365.85 380.646 365.85 380.646 365.815C379.407 360.667 378.145 355.648 378.822 352.61C379.98 347.287 380.559 341.533 379.118 340.367C377.305 338.84 374.028 339.971 365.691 341.661C358.471 343.154 354.62 342.308 353.752 337.866C353.614 337.177 353.545 336.476 353.543 335.773C353.509 336.216 351.806 334.455 351.725 334.875C351.181 337.143 350.092 338.053 347.719 339.049C344.192 340.524 342.751 346.22 342.23 350.016C341.685 354.056 343.492 359.629 344.922 363.425C343.092 361.32 340.996 361.565 337.719 362.842C336.897 363.157 334.824 363.069 333.186 362.492C333.417 362.292 333.69 362.146 333.985 362.066C334.512 361.891 330.69 359.979 331.246 359.857C336.81 358.592 339.931 353.922 339.271 349.812C337.632 339.463 339.815 327.29 346.757 319.227C354.412 310.36 366.901 308.518 377.473 312.575C385.776 315.753 393.627 322.271 396.505 330.963C396.505 330.998 396.505 331.033 396.54 331.068C396.906 332.174 397.186 333.306 397.379 334.455C398.439 340.921 396.175 347.474 394.919 353.864C394.467 356.166 395.613 358.679 395.857 360.504C397.252 371.464 409.816 374.56 419.758 379.212C440.654 389.013 457.717 405.768 469.193 426.144C476.812 439.634 479.534 448.834 479.922 455.072Z" fill="#A7A3FF"/>
<path d="M369.761 391.776C369.535 391.898 369.309 392.021 369.101 392.161C365.348 394.327 361.898 396.985 358.841 400.066C346.931 412.082 339.937 434.212 344.158 458.605L345.779 466.4" stroke="black" stroke-width="5.23453" stroke-miterlimit="10"/>
<path d="M475.139 555.447C475.141 537.238 473.578 519.062 470.466 501.123C468.385 488.952 465.519 476.931 461.886 465.135C459.703 457.97 457.034 450.239 453.861 442.479C450.914 435.218 447.51 428.153 443.67 421.328C439.947 414.645 435.59 408.341 430.66 402.503C423.756 394.435 414.407 388.878 404.055 386.692C402.07 386.268 400.061 385.965 398.039 385.783" stroke="black" stroke-width="5.23453" stroke-miterlimit="10"/>
<path d="M261.129 396.97L260.834 396.918C257.298 396.321 253.67 396.628 250.282 397.809C246.894 398.991 243.855 401.01 241.443 403.681L221.641 425.403L219.325 427.969C219.181 428.126 219.046 428.291 218.92 428.464" stroke="black" stroke-width="5.23453" stroke-miterlimit="10"/>
<path d="M232.532 434.137L243.4 421.999L243.417 421.981" stroke="black" stroke-width="5.23453" stroke-miterlimit="10"/>
<path d="M327.071 496.833L378.191 514.97C383.114 516.717 388.353 517.375 393.552 516.902C398.75 516.428 403.787 514.832 408.318 512.224C412.85 509.615 416.77 506.054 419.813 501.784C422.856 497.514 424.95 492.633 425.953 487.475L438.048 425.304C438.667 422.112 438.638 418.826 437.964 415.645C437.289 412.464 435.982 409.454 434.123 406.794C433.603 406.045 433.038 405.328 432.432 404.649" stroke="black" stroke-width="5.23453" stroke-miterlimit="10"/>
<path d="M293.24 494.326C286.732 498.751 281.95 512.189 279.408 521.01C278.972 522.489 278.072 523.786 276.843 524.707C275.613 525.628 274.12 526.122 272.587 526.117C271.55 526.117 270.525 525.89 269.582 525.452C268.137 524.77 266.962 523.616 266.248 522.179C265.533 520.741 265.321 519.103 265.645 517.529C269.901 496.576 284.92 455.212 336.515 464.33C337.545 464.505 338.593 464.698 339.653 464.913L345.779 466.4L362.958 470.615L367.59 471.74C369.347 472.17 371.188 472.103 372.911 471.548C373.017 471.527 373.122 471.498 373.223 471.46C374.81 470.912 376.233 469.97 377.362 468.721C378.491 467.471 379.288 465.955 379.679 464.313L383.588 447.942L383.813 446.992L388.932 425.59" stroke="black" stroke-width="5.23453" stroke-miterlimit="10"/>
<path d="M268.077 427.24H250.568C248.572 427.24 246.657 426.441 245.246 425.02C243.834 423.599 243.041 421.671 243.041 419.661C243.041 417.651 243.834 415.723 245.246 414.302C246.657 412.88 248.572 412.082 250.568 412.082H275.372" stroke="black" stroke-width="5.23453" stroke-miterlimit="10"/>
<path d="M254.639 427.234C254.39 430.324 253.22 432.609 251.495 434.189C247.048 438.27 238.901 437.804 233.233 435.011" stroke="black" stroke-width="5.23453" stroke-miterlimit="10"/>
<path d="M221.664 425.398C216.645 419.288 217.669 411.003 221.566 404.602C232.619 386.436 257.875 389.922 274.255 397.472C287.526 403.57 299.152 412.735 310.471 421.876C316.001 426.342 321.432 430.994 326.683 435.868C327.648 436.747 328.797 437.393 330.045 437.76C331.293 438.127 332.608 438.203 333.89 437.984C335.172 437.766 336.388 437.257 337.446 436.496C338.504 435.736 339.378 434.744 340 433.595C342.895 428.214 346.028 422.343 346.618 420.716" stroke="black" stroke-width="5.23453" stroke-miterlimit="10"/>
<path d="M251.5 434.189C251.5 434.189 277.619 448.455 297.021 468.953" stroke="black" stroke-width="5.23453" stroke-miterlimit="10"/>
<path d="M286.866 502.062C283.971 507.041 286.46 514.352 291.932 516.101C298.92 518.371 306.308 519.117 313.604 518.287C321.565 517.354 326.857 510.737 330.343 503.158C330.595 502.594 330.727 501.983 330.729 501.365C330.731 500.746 330.604 500.134 330.357 499.569C330.109 499.003 329.745 498.496 329.29 498.081C328.835 497.666 328.298 497.352 327.714 497.159C326.661 496.81 325.515 496.873 324.507 497.337C323.498 497.801 322.7 498.63 322.271 499.66C321.113 502.354 319.324 505.723 316.95 507.239" stroke="black" stroke-width="5.23453" stroke-miterlimit="10"/>
<path d="M300.501 501.129C300.501 501.129 293.35 508.872 298.99 517.069C299.238 517.413 299.53 517.723 299.858 517.99" stroke="black" stroke-width="5.23453" stroke-miterlimit="10"/>
<path d="M309.933 502.406C309.933 502.406 303.321 517.389 311.803 518.485" stroke="black" stroke-width="5.23453" stroke-miterlimit="10"/>
<path d="M544.688 555.459H135.197" stroke="black" stroke-width="5.23453" stroke-miterlimit="10"/>
<path d="M296.292 527.225H255.455C255.04 531.106 253.214 534.696 250.328 537.303C247.441 539.91 243.699 541.35 239.822 541.345H102.564C102.572 545.083 104.05 548.665 106.675 551.308C109.3 553.952 112.858 555.44 116.57 555.448H296.292C300.01 555.446 303.576 553.961 306.21 551.318C308.844 548.675 310.33 545.089 310.344 541.345V531.865C310.344 530.628 309.856 529.442 308.987 528.567C308.119 527.693 306.94 527.201 305.712 527.201L296.292 527.225Z" stroke="black" stroke-width="5.23453" stroke-miterlimit="10"/>
<path d="M233.233 435.011C234.436 436.688 235.301 438.585 235.78 440.596L255.125 521.832C255.552 523.595 255.664 525.421 255.455 527.224C255.04 531.106 253.214 534.696 250.328 537.303C247.441 539.91 243.699 541.35 239.822 541.345H100.016C96.4856 541.344 93.0577 540.146 90.2857 537.944C87.5136 535.742 85.5589 532.664 84.7367 529.207L65.427 447.977C64.8719 445.651 64.8478 443.229 65.3567 440.893C65.8657 438.556 66.8943 436.366 68.3651 434.488C69.836 432.61 71.7109 431.092 73.8486 430.048C75.9863 429.005 78.3312 428.463 80.7068 428.464H220.501C222.797 428.46 225.066 428.966 227.146 429.946C229.226 430.927 231.065 432.358 232.532 434.137L233.233 435.011Z" stroke="black" stroke-width="5.23453" stroke-miterlimit="10"/>
<path d="M211.335 333.913C210.443 332.858 209.505 331.844 208.527 330.858C203.036 325.31 196.511 320.909 189.326 317.908C182.141 314.906 174.438 313.364 166.659 313.368H93.3696C85.5929 313.365 77.8918 314.905 70.7065 317.901C63.5213 320.896 56.9927 325.288 51.494 330.825C45.9953 336.362 41.6342 342.937 38.6602 350.172C35.6861 357.407 34.1572 365.161 34.161 372.992V373.417C34.1536 378.973 35.5588 384.438 38.243 389.292C41.2593 392.386 44.8596 394.84 48.8321 396.511C52.8046 398.182 57.0689 399.036 61.374 399.023H133.228C135.421 399.023 137.524 399.9 139.074 401.461C140.625 403.022 141.496 405.14 141.496 407.348C141.499 409.559 142.373 411.678 143.927 413.24C145.48 414.802 147.586 415.679 149.782 415.679H149.961L167.702 415.224C167.702 415.049 167.667 414.892 167.667 414.735C166.133 414.204 164.803 413.204 163.861 411.874C162.92 410.544 162.414 408.952 162.415 407.319V406.934C162.417 404.727 163.288 402.61 164.839 401.049C166.389 399.488 168.491 398.61 170.683 398.609H188.175C196.774 398.609 205.022 395.169 211.102 389.046C217.183 382.924 220.599 374.62 220.599 365.961C220.629 354.605 217.413 343.479 211.335 333.913ZM84.4182 368.456C81.6142 368.457 78.8728 367.621 76.5409 366.053C74.209 364.485 72.3914 362.256 71.318 359.647C70.2447 357.039 69.9638 354.168 70.511 351.399C71.0582 348.63 72.4088 346.087 74.392 344.09C76.3752 342.094 78.9018 340.735 81.6522 340.186C84.4026 339.636 87.2532 339.92 89.8433 341.002C92.4333 342.083 94.6466 343.914 96.2029 346.263C97.7592 348.612 98.5887 351.372 98.5864 354.196C98.5818 357.978 97.0874 361.603 94.4312 364.276C91.775 366.95 88.1739 368.453 84.4182 368.456ZM130.663 368.456C127.859 368.455 125.119 367.617 122.789 366.047C120.458 364.478 118.643 362.248 117.571 359.639C116.499 357.03 116.22 354.16 116.769 351.392C117.317 348.624 118.669 346.081 120.652 344.086C122.636 342.091 125.163 340.734 127.913 340.185C130.663 339.636 133.513 339.921 136.102 341.003C138.692 342.085 140.904 343.916 142.46 346.264C144.016 348.613 144.845 351.373 144.843 354.196C144.843 356.07 144.476 357.926 143.763 359.657C143.05 361.388 142.005 362.961 140.688 364.286C139.372 365.61 137.808 366.66 136.088 367.376C134.368 368.091 132.524 368.458 130.663 368.456ZM174.707 368.456C171.904 368.454 169.164 367.614 166.835 366.044C164.505 364.474 162.69 362.244 161.62 359.635C160.549 357.026 160.271 354.157 160.82 351.389C161.369 348.621 162.721 346.079 164.705 344.084C166.689 342.09 169.215 340.733 171.965 340.184C174.715 339.636 177.565 339.921 180.154 341.003C182.743 342.086 184.955 343.917 186.511 346.265C188.066 348.613 188.895 351.373 188.893 354.196C188.893 356.071 188.526 357.927 187.813 359.658C187.1 361.39 186.054 362.963 184.737 364.288C183.419 365.612 181.855 366.662 180.134 367.377C178.413 368.093 176.569 368.459 174.707 368.456Z" fill="#EBEBEB"/>
<path d="M220.599 365.967C220.599 374.625 217.183 382.93 211.102 389.052C205.022 395.175 196.774 398.615 188.175 398.615H170.695C168.504 398.616 166.402 399.493 164.852 401.053C163.302 402.612 162.43 404.727 162.427 406.934V407.319C162.426 408.952 162.931 410.544 163.873 411.874C164.814 413.203 166.145 414.204 167.678 414.735C168.486 415.017 169.336 415.159 170.191 415.154L167.713 415.224L149.961 415.679H149.77C147.575 415.679 145.471 414.802 143.917 413.242C142.364 411.681 141.489 409.563 141.484 407.354C141.484 405.146 140.613 403.028 139.063 401.467C137.512 399.906 135.409 399.028 133.216 399.028H61.374C52.7746 399.028 44.5274 395.589 38.4467 389.466C32.366 383.343 28.95 375.039 28.95 366.38V365.955C28.9507 358.13 30.4822 350.381 33.4569 343.152C36.4317 335.923 40.7915 329.354 46.2873 323.821C51.7832 318.288 58.3076 313.9 65.4878 310.906C72.6681 307.912 80.3638 306.372 88.1353 306.372H161.402C177.1 306.374 192.154 312.653 203.255 323.828C214.356 335.003 220.594 350.161 220.599 365.967Z" stroke="black" stroke-width="5.23453" stroke-miterlimit="10"/>
<path d="M404.038 386.675C404.003 386.675 403.986 386.64 403.951 386.64C390.223 382.477 383.541 373.977 380.646 365.827C380.646 365.827 380.646 365.827 380.646 365.792C378.382 359.437 378.434 353.286 379.251 349.613C379.74 347.668 380.05 345.681 380.177 343.678C380.368 338.006 376.234 339.393 364.411 341.766C358.98 342.874 355.506 340.798 353.769 337.848C353.6 337.591 353.453 337.32 353.329 337.038C352.519 335.321 352.183 333.416 352.356 331.523" stroke="black" stroke-width="5.23453" stroke-miterlimit="10"/>
<path d="M345.553 364.194C345.345 363.897 345.13 363.611 344.922 363.384C343.092 361.279 340.996 361.524 337.719 362.801C336.897 363.116 334.824 363.028 333.186 362.451C331.808 361.955 330.777 361.098 331.246 359.816C331.367 359.552 331.546 359.32 331.77 359.137C331.993 358.954 332.256 358.825 332.537 358.761C333.083 358.622 333.636 358.511 334.193 358.428C339.815 357.163 338.559 350.61 337.876 346.5C336.22 336.158 338.42 323.985 345.431 315.922C353.155 307.054 365.789 305.206 376.46 309.264C385.846 312.832 394.675 320.574 396.505 330.922C396.505 330.957 396.505 330.992 396.54 331.027C396.575 331.062 396.54 331.115 396.54 331.15C397.623 337.615 396.54 344.623 395.283 351.018C394.531 354.808 394.814 357.904 395.862 360.463C399.145 368.841 410.222 371.762 419.15 375.907C440.277 385.707 457.491 402.462 469.094 422.838C478.254 438.999 480.425 448.939 479.922 455.072C479.221 463.31 473.674 464.651 473.674 464.651C468.984 467.443 461.776 464.441 460.328 459.206C460.307 459.15 460.295 459.091 460.293 459.031C459.135 454.548 456.877 448.787 453.843 442.485" stroke="black" stroke-width="5.23453" stroke-miterlimit="10"/>
<path d="M352.333 331.523C352.333 334.642 350.874 337.72 347.701 339.032C344.135 340.513 342.687 344.413 342.166 348.208C341.438 353.766 342.625 359.406 345.53 364.188C348.222 368.689 352.605 373.65 358.812 373.65C370.184 373.65 375.059 368.13 375.059 368.13" stroke="black" stroke-width="5.23453" stroke-miterlimit="10"/>
<path d="M364.139 349.998C365.207 349.998 366.073 349.126 366.073 348.051C366.073 346.976 365.207 346.104 364.139 346.104C363.071 346.104 362.205 346.976 362.205 348.051C362.205 349.126 363.071 349.998 364.139 349.998Z" fill="black"/>
<path d="M347.128 351.135C348.196 351.135 349.062 350.263 349.062 349.188C349.062 348.112 348.196 347.241 347.128 347.241C346.06 347.241 345.194 348.112 345.194 349.188C345.194 350.263 346.06 351.135 347.128 351.135Z" fill="black"/>
<path d="M355.471 346.22C355.471 346.22 354.504 353.91 354.892 354.965C355.28 356.021 357.7 354.814 357.7 354.814" stroke="black" stroke-width="5.23453" stroke-miterlimit="10"/>
<path d="M359.055 361.542C363.195 363.075 367.468 361.122 368.719 357.373" stroke="black" stroke-width="5.23453" stroke-miterlimit="10"/>
<path d="M362.199 373.651L372.743 398.871C372.743 398.871 393.083 404.38 398.028 385.002" stroke="black" stroke-width="5.23453" stroke-miterlimit="10"/>
<path d="M162.149 504.363C170.112 501.835 174.28 492.482 171.459 483.472C168.637 474.463 159.895 469.208 151.932 471.736C143.969 474.264 139.801 483.618 142.623 492.627C145.444 501.637 154.186 506.891 162.149 504.363Z" fill="#EBEBEB"/>
<path d="M359.385 555.447C359.16 534.92 355.564 514.637 353.908 506.359" stroke="black" stroke-width="5.23453" stroke-miterlimit="10"/>
</svg>
