<svg width="78" height="81" viewBox="0 0 78 81" fill="none" xmlns="http://www.w3.org/2000/svg">
<g filter="url(#filter0_d_679_25)">
<path d="M45.454 2.628C45.83 2.12666 47.0207 1.65666 49.026 1.218C51.094 0.716664 53.0367 0.465997 54.854 0.465997C56.6713 0.465997 58.1753 0.716664 59.366 1.218C54.7913 37.8153 52.504 56.7407 52.504 57.994C52.504 59.2473 52.88 60.3753 53.632 61.378C54.4467 62.318 55.606 62.788 57.11 62.788C61.246 62.788 64.9433 57.1167 68.202 45.774C68.202 45.6487 68.2333 45.492 68.296 45.304C68.3587 45.116 68.39 44.9907 68.39 44.928C71.1473 46.6827 72.9333 47.7793 73.748 48.218C71.68 56.114 69.1107 62.1613 66.04 66.36C62.9693 70.496 59.0213 72.564 54.196 72.564C49.3707 72.564 46.112 70.2767 44.42 65.702H44.138C42.1953 68.146 40.0333 69.9007 37.652 70.966C35.2707 72.0313 32.294 72.564 28.722 72.564C22.8313 72.564 18.288 71.0287 15.092 67.958C11.9587 64.8873 10.392 60.5007 10.392 54.798C10.392 53.6073 10.486 52.2913 10.674 50.85L13.306 28.854C7.102 24.4673 4 19.2973 4 13.344C4 9.396 5.19067 6.26266 7.572 3.944C9.95333 1.62533 12.9927 0.465997 16.69 0.465997C24.398 0.465997 28.252 4.53933 28.252 12.686C28.252 14.002 28.158 15.4747 27.97 17.104L23.176 53.858C23.1133 54.2967 23.082 54.9547 23.082 55.832C23.082 58.276 23.646 60.25 24.774 61.754C25.902 63.258 27.6253 64.01 29.944 64.01C35.5213 64.01 38.8113 59.686 39.814 51.038L45.454 2.628ZM13.212 9.114C11.0813 9.114 10.016 10.43 10.016 13.062C10.016 15.6313 11.4573 18.1693 14.34 20.676L14.622 18.232C14.998 14.9733 15.2173 12.9367 15.28 12.122C15.28 10.1167 14.5907 9.114 13.212 9.114Z" fill="url(#paint0_linear_679_25)"/>
</g>
<defs>
<filter id="filter0_d_679_25" x="0" y="0.466003" width="77.748" height="80.098" filterUnits="userSpaceOnUse" color-interpolation-filters="sRGB">
<feFlood flood-opacity="0" result="BackgroundImageFix"/>
<feColorMatrix in="SourceAlpha" type="matrix" values="0 0 0 0 0 0 0 0 0 0 0 0 0 0 0 0 0 0 127 0" result="hardAlpha"/>
<feOffset dy="4"/>
<feGaussianBlur stdDeviation="2"/>
<feComposite in2="hardAlpha" operator="out"/>
<feColorMatrix type="matrix" values="0 0 0 0 0 0 0 0 0 0 0 0 0 0 0 0 0 0 0.13 0"/>
<feBlend mode="normal" in2="BackgroundImageFix" result="effect1_dropShadow_679_25"/>
<feBlend mode="normal" in="SourceGraphic" in2="effect1_dropShadow_679_25" result="shape"/>
</filter>
<linearGradient id="paint0_linear_679_25" x1="32.5" y1="0" x2="32.5" y2="55" gradientUnits="userSpaceOnUse">
<stop stop-color="#00427D"/>
<stop offset="0.0001" stop-color="#00427D"/>
<stop offset="1" stop-color="#00305B"/>
<stop offset="1" stop-color="#00305B"/>
</linearGradient>
</defs>
</svg>
