<svg xmlns="http://www.w3.org/2000/svg" xmlns:xlink="http://www.w3.org/1999/xlink" width="500" zoomAndPan="magnify" viewBox="0 0 375 374.999991" height="500" preserveAspectRatio="xMidYMid meet" version="1.0"><defs><clipPath id="364019eaf4"><path d="M 11.699219 129.484375 L 363.449219 129.484375 L 363.449219 245.734375 L 11.699219 245.734375 Z M 11.699219 129.484375 " clip-rule="nonzero"/></clipPath></defs><g clip-path="url(#364019eaf4)"><path fill="#fafaff" d="M 69.902344 129.484375 L 305.09375 129.484375 C 337.132812 129.484375 363.105469 155.460938 363.105469 187.5 C 363.105469 219.539062 337.132812 245.511719 305.09375 245.511719 L 69.902344 245.511719 C 37.863281 245.511719 11.890625 219.539062 11.890625 187.5 C 11.890625 155.460938 37.863281 129.484375 69.902344 129.484375 Z M 80.722656 202.867188 L 99.082031 221.230469 C 100.144531 222.289062 101.863281 222.289062 102.925781 221.230469 L 106.769531 217.386719 C 107.828125 216.324219 107.828125 214.605469 106.769531 213.542969 L 88.40625 195.183594 C 94.363281 185.734375 93.222656 173.101562 84.992188 164.871094 C 75.445312 155.320312 59.960938 155.320312 50.410156 164.871094 C 40.859375 174.421875 40.859375 189.90625 50.410156 199.453125 C 58.640625 207.683594 71.273438 208.820312 80.722656 202.867188 Z M 78.886719 193.34375 C 72.558594 199.671875 62.304688 199.671875 55.980469 193.34375 C 49.65625 187.019531 49.65625 176.765625 55.980469 170.441406 C 62.304688 164.117188 72.558594 164.117188 78.886719 170.441406 C 85.210938 176.765625 85.210938 187.019531 78.886719 193.34375 Z M 78.886719 193.34375 " fill-opacity="1" fill-rule="nonzero"/></g></svg>