<svg width="32" height="32" viewBox="0 0 32 32" fill="none" xmlns="http://www.w3.org/2000/svg">
<path d="M15.4166 16.1667C15.8308 16.1667 16.1666 15.831 16.1666 15.4167C16.1666 15.0025 15.8308 14.6667 15.4166 14.6667C15.0024 14.6667 14.6666 15.0025 14.6666 15.4167C14.6666 15.831 15.0024 16.1667 15.4166 16.1667Z" fill="#090A0A"/>
<path d="M24.7499 16.1667C25.1641 16.1667 25.4999 15.831 25.4999 15.4167C25.4999 15.0025 25.1641 14.6667 24.7499 14.6667C24.3357 14.6667 23.9999 15.0025 23.9999 15.4167C23.9999 15.831 24.3357 16.1667 24.7499 16.1667Z" fill="#090A0A"/>
<path d="M6.08325 16.1667C6.49747 16.1667 6.83325 15.831 6.83325 15.4167C6.83325 15.0025 6.49747 14.6667 6.08325 14.6667C5.66904 14.6667 5.33325 15.0025 5.33325 15.4167C5.33325 15.831 5.66904 16.1667 6.08325 16.1667Z" fill="#090A0A"/>
<path d="M15.4166 16.1667C15.8308 16.1667 16.1666 15.831 16.1666 15.4167C16.1666 15.0025 15.8308 14.6667 15.4166 14.6667C15.0024 14.6667 14.6666 15.0025 14.6666 15.4167C14.6666 15.831 15.0024 16.1667 15.4166 16.1667Z" stroke="#090A0A" stroke-width="3" stroke-linecap="round" stroke-linejoin="round"/>
<path d="M24.7499 16.1667C25.1641 16.1667 25.4999 15.831 25.4999 15.4167C25.4999 15.0025 25.1641 14.6667 24.7499 14.6667C24.3357 14.6667 23.9999 15.0025 23.9999 15.4167C23.9999 15.831 24.3357 16.1667 24.7499 16.1667Z" stroke="#090A0A" stroke-width="3" stroke-linecap="round" stroke-linejoin="round"/>
<path d="M6.08325 16.1667C6.49747 16.1667 6.83325 15.831 6.83325 15.4167C6.83325 15.0025 6.49747 14.6667 6.08325 14.6667C5.66904 14.6667 5.33325 15.0025 5.33325 15.4167C5.33325 15.831 5.66904 16.1667 6.08325 16.1667Z" stroke="#090A0A" stroke-width="3" stroke-linecap="round" stroke-linejoin="round"/>
</svg>
