<svg width="317" height="285" viewBox="0 0 317 285" fill="none" xmlns="http://www.w3.org/2000/svg">
<mask id="mask0_337_248" style="mask-type:alpha" maskUnits="userSpaceOnUse" x="34" y="2" width="283" height="283">
<path d="M175.706 284.515C253.605 284.515 316.755 221.366 316.755 143.467C316.755 65.5676 253.605 2.41797 175.706 2.41797C97.8073 2.41797 34.6577 65.5676 34.6577 143.467C34.6577 221.366 97.8073 284.515 175.706 284.515Z" fill="#EBDBCD"/>
</mask>
<g mask="url(#mask0_337_248)">
<g filter="url(#filter0_i_337_248)">
<path d="M176.512 286.127C254.411 286.127 317.561 222.977 317.561 145.078C317.561 67.1794 254.411 4.02979 176.512 4.02979C98.6133 4.02979 35.4636 67.1794 35.4636 145.078C35.4636 222.977 98.6133 286.127 176.512 286.127Z" fill="#EBDBCD"/>
</g>
<path d="M177.188 136.014H143.564V171.346H177.188V136.014Z" fill="#F8D7BC"/>
<path d="M140.169 133.202V136.014H177.067V171.337H140.169V173.972H282.094V133.202H140.169Z" fill="#4E53BA"/>
<path d="M110.952 177.664H213.462C224.415 177.664 233.36 190.148 233.36 205.435V207.37C233.36 222.658 224.542 235.141 213.589 235.141H110.952V177.664Z" fill="#F8ECE2"/>
<path d="M289.78 173.972H106.038C105.281 173.972 104.779 174.673 104.779 175.729C104.779 176.785 105.281 177.486 106.038 177.486H212.832C224.167 177.486 233.36 190.316 233.36 206.136C233.36 221.956 224.294 234.786 212.959 234.964C212.959 234.964 212.959 234.964 212.832 234.964H106.038C105.281 234.964 104.779 235.665 104.779 236.72C104.779 237.776 105.281 238.477 106.038 238.477H289.78C301.114 238.477 310.307 225.647 310.307 209.827V202.8C310.307 186.98 301.114 174.15 289.78 173.972C289.78 174.15 289.78 174.15 289.78 173.972Z" fill="#FF5856"/>
<path d="M216.736 189.97H110.952V188.036H216.736C217.111 188.036 217.492 188.559 217.492 189.091C217.492 189.624 217.111 189.97 216.736 189.97Z" fill="#EBD0BE"/>
<path d="M167.874 162.899H143.564V160.965H167.995C168.37 160.965 168.752 161.489 168.752 162.021C168.631 162.553 168.249 162.899 167.874 162.899Z" fill="#E0C1A6"/>
<path d="M162.083 151.826H143.564V149.892H162.204C162.579 149.892 162.96 150.247 162.96 150.948C162.833 151.302 162.585 151.826 162.083 151.826Z" fill="#E0C1A6"/>
<path d="M224.415 212.294H110.952V210.359H224.421C224.796 210.359 225.178 210.883 225.178 211.415C225.172 211.939 224.796 212.294 224.415 212.294Z" fill="#EBD0BE"/>
<path d="M210.442 224.778H110.952V222.666H210.442C210.817 222.666 211.198 223.021 211.198 223.544C211.192 224.245 210.817 224.6 210.442 224.778Z" fill="#EBD0BE"/>
<path d="M221.02 201.398H110.952V199.464H221.02C221.395 199.464 221.777 199.987 221.777 200.519C221.65 200.866 221.395 201.398 221.02 201.398Z" fill="#EBD0BE"/>
<path d="M206.52 130.018H165.338V108.75H206.52C208.911 108.75 210.805 111.385 210.805 114.73V124.223C210.805 127.382 208.917 130.018 206.52 130.018Z" fill="#F8D0B3"/>
<path d="M286.766 105.591H161.834C161.205 105.591 160.703 106.292 160.703 107.17C160.703 108.049 161.205 108.75 161.834 108.75H206.544C208.935 108.75 210.829 111.385 210.829 114.73V124.046C210.829 127.382 208.941 130.026 206.544 130.026H162.089C161.459 130.204 160.957 130.905 161.084 131.783C161.084 132.484 161.586 133.185 162.089 133.185H286.766C289.156 133.185 291.05 130.55 291.05 127.205V111.385C291.044 108.572 289.029 105.591 286.766 105.591Z" fill="#FF7A82"/>
<path d="M158.688 83.613H225.813C229.716 83.613 232.99 88.0051 232.99 93.6304V94.3315C232.99 99.7794 229.844 104.349 225.813 104.349H158.688V83.613Z" fill="#F8E7D8"/>
<path d="M273.416 82.2112H155.789C155.535 82.2112 155.287 82.5659 155.287 82.9122C155.287 83.267 155.541 83.6133 155.789 83.6133H225.559C229.589 83.6133 232.99 88.1828 232.99 93.9854C232.99 99.6107 229.716 104.358 225.559 104.358H155.789C155.535 104.358 155.287 104.712 155.287 105.059C155.287 105.413 155.541 105.76 155.789 105.76H273.41C277.44 105.76 280.841 101.19 280.841 95.3875V92.5749C280.847 86.7807 277.446 82.2112 273.416 82.2112Z" fill="#2B31BA"/>
<path d="M218.127 89.416H158.688V88.5376H218.127C218.382 88.5376 218.503 88.715 218.503 89.0613C218.509 89.2386 218.382 89.416 218.127 89.416Z" fill="#DEBCA7"/>
<path d="M212.463 99.6106H158.688V98.7322H212.463C212.717 98.7322 212.838 98.9096 212.838 99.2559C212.838 99.4332 212.711 99.6106 212.463 99.6106Z" fill="#DEBCA7"/>
<path d="M224.802 94.5177H158.688V93.4619H224.802C224.93 93.4619 225.178 93.6393 225.178 93.9856C225.184 94.163 225.057 94.5177 224.802 94.5177Z" fill="#DEBCA7"/>
<path d="M198.35 210.359H181.853C181.853 210.359 179.209 211.593 176.94 217.564C174.168 224.946 175.051 231.974 173.29 237.43C172.159 241.121 170.271 244.111 167.874 246.214C169.762 246.569 171.777 246.738 173.793 246.392C175.433 245.868 176.94 244.989 178.198 243.579C178.573 244.812 178.701 246.037 178.828 247.27C178.955 248.503 178.955 249.905 178.828 251.138C178.828 251.138 184.873 249.204 187.264 244.28C190.665 237.599 187.766 229.338 192.299 218.966C193.939 215.807 195.954 212.817 198.35 210.359Z" fill="#BFA990"/>
</g>
<path d="M117.444 30.9807L120.522 36.3904L13.8386 100.638L10.7602 95.2286L117.444 30.9807Z" fill="#676BC4"/>
<path d="M15.6829 104.442L73.0013 227.125L67.5094 229.841L10.1909 107.158L15.6829 104.442Z" fill="#676BC4"/>
<path d="M129.43 27.2103C147.809 16.1278 171.179 21.5818 183.196 39.1801C184.256 40.7072 183.789 42.8452 182.206 43.8197L117.767 82.725C116.183 83.6704 114.147 83.0305 113.356 81.3288C104.293 61.9561 111.079 38.322 129.43 27.2103Z" fill="#2B31BA"/>
<path d="M114.868 2.09293C121.555 -1.93578 130.052 0.0276713 134.435 6.47069C134.831 7.05246 134.661 7.79421 134.067 8.17235L110.613 22.3383C110.047 22.6728 109.298 22.4401 109.001 21.8292C105.707 14.7317 108.181 6.12164 114.868 2.09293Z" fill="#2B31BA"/>
<path d="M10.2498 109.748C4.58899 109.748 0 105.027 0 99.2036C0 93.3801 4.58899 88.6592 10.2498 88.6592C15.9106 88.6592 20.4996 93.3801 20.4996 99.2036C20.4996 105.027 15.9106 109.748 10.2498 109.748Z" fill="#2B31BA"/>
<path d="M134.395 6.42725L146.644 27.9531L121.23 43.2583L108.981 21.7324L134.395 6.42725Z" fill="#2B31BA"/>
<path d="M27.7098 249.459H108.04C109.892 249.459 111.362 247.931 111.362 246.041V245.939C111.362 238.521 105.495 232.486 98.2849 232.486H37.4648C30.2546 232.486 24.3874 238.521 24.3874 245.939V246.041C24.3874 247.931 25.8719 249.459 27.7098 249.459Z" fill="#2B31BA"/>
<path d="M48.9728 233.635H86.791V230.173C86.791 225.563 83.1717 221.839 78.6901 221.839H57.1161C52.6344 221.839 49.0152 225.563 49.0152 230.173V233.635H48.9728Z" fill="#2B31BA"/>
<defs>
<filter id="filter0_i_337_248" x="35.4636" y="4.02979" width="282.097" height="286.097" filterUnits="userSpaceOnUse" color-interpolation-filters="sRGB">
<feFlood flood-opacity="0" result="BackgroundImageFix"/>
<feBlend mode="normal" in="SourceGraphic" in2="BackgroundImageFix" result="shape"/>
<feColorMatrix in="SourceAlpha" type="matrix" values="0 0 0 0 0 0 0 0 0 0 0 0 0 0 0 0 0 0 127 0" result="hardAlpha"/>
<feOffset dy="4"/>
<feGaussianBlur stdDeviation="2"/>
<feComposite in2="hardAlpha" operator="arithmetic" k2="-1" k3="1"/>
<feColorMatrix type="matrix" values="0 0 0 0 0 0 0 0 0 0 0 0 0 0 0 0 0 0 0.25 0"/>
<feBlend mode="normal" in2="shape" result="effect1_innerShadow_337_248"/>
</filter>
</defs>
</svg>
