<svg width="283" height="283" viewBox="0 0 283 283" fill="none" xmlns="http://www.w3.org/2000/svg">
<g filter="url(#filter0_i_337_91)">
<path d="M141.049 282.097C218.948 282.097 282.097 218.948 282.097 141.049C282.097 63.1496 218.948 0 141.049 0C63.1496 0 0 63.1496 0 141.049C0 218.948 63.1496 282.097 141.049 282.097Z" fill="#EBDBCD"/>
</g>
<path d="M38.9153 23.7383H241.066C247.103 23.7383 251.913 28.6327 251.913 34.5849V156.211C251.913 162.248 247.018 167.058 241.066 167.058H38.9153C32.8784 167.058 28.0686 162.163 28.0686 156.211V34.5849C28.0686 28.6327 32.963 23.7383 38.9153 23.7383Z" fill="#C5C6E3"/>
<path d="M39.7335 30.0151H240.333C242.787 30.0151 244.818 31.9757 244.818 34.5005V140.301C244.818 142.755 242.858 144.702 240.333 144.702H39.7335C37.2792 144.702 35.3327 142.741 35.3327 140.301V34.5146C35.2481 32.0603 37.2792 30.0151 39.7335 30.0151Z" fill="#E8EAF7"/>
<path d="M178.088 196.678H101.894L111.358 167.157H168.624L178.088 196.678Z" fill="#C5C6E3"/>
<path d="M84.3471 189.174H195.705C197.341 189.174 198.639 190.486 198.639 192.108V193.744C198.639 195.38 197.327 196.678 195.705 196.678H84.3471C82.711 196.678 81.4133 195.366 81.4133 193.744V192.108C81.4133 190.486 82.7251 189.174 84.3471 189.174Z" fill="#C5C6E3"/>
<path d="M139.003 161.924C142.291 161.924 144.956 159.259 144.956 155.972C144.956 152.684 142.291 150.019 139.003 150.019C135.716 150.019 133.051 152.684 133.051 155.972C133.051 159.259 135.716 161.924 139.003 161.924Z" fill="#E8EAF7"/>
<path d="M64.6144 43.8943H213.336V133.305C213.336 134.857 212.109 136.084 210.557 136.084H67.393C65.8415 136.084 64.6144 134.857 64.6144 133.305C64.6144 133.376 64.6144 43.8943 64.6144 43.8943Z" fill="white"/>
<path d="M170.655 50.3403H205.24C206.213 50.3403 206.947 51.0738 206.947 52.047V128.072C206.947 129.045 206.213 129.779 205.24 129.779H170.655C169.681 129.779 168.948 129.045 168.948 128.072V52.047C168.948 51.0738 169.681 50.3403 170.655 50.3403Z" fill="#E8E8F7"/>
<path d="M72.6824 50.3403H160.866C161.839 50.3403 162.573 51.0738 162.573 52.047V128.072C162.573 129.045 161.839 129.779 160.866 129.779H72.6824C71.7092 129.779 70.9757 129.045 70.9757 128.072V52.047C70.9757 51.0738 71.7938 50.3403 72.6824 50.3403Z" fill="#EBDBCD"/>
<path d="M175.718 63.627H187.708C188.356 63.627 188.935 64.1911 188.935 64.8541C188.935 65.5029 188.37 66.0812 187.708 66.0812H175.718C175.07 66.0812 174.491 65.517 174.491 64.8541C174.491 64.2052 174.985 63.627 175.718 63.627Z" fill="#C5C6E3"/>
<path d="M175.718 68.7754H200.275C200.924 68.7754 201.502 69.3396 201.502 70.0025C201.502 70.6513 200.938 71.2296 200.275 71.2296H175.718C175.07 71.2296 174.491 70.6654 174.491 70.0025C174.491 69.255 174.985 68.7754 175.718 68.7754Z" fill="#C5C6E3"/>
<path d="M175.718 91.2869H200.275C200.924 91.2869 201.502 91.8511 201.502 92.514C201.502 93.1628 200.938 93.7411 200.275 93.7411H175.718C175.07 93.7411 174.491 93.1769 174.491 92.514C174.491 91.7805 174.985 91.2869 175.718 91.2869Z" fill="#C5C6E3"/>
<path d="M175.718 86.1523H193.998C194.647 86.1523 195.225 86.7165 195.225 87.3795C195.225 88.0283 194.661 88.6066 193.998 88.6066H175.718C175.07 88.6066 174.491 88.0424 174.491 87.3795C174.491 86.7165 174.985 86.1523 175.718 86.1523Z" fill="#C5C6E3"/>
<path d="M175.718 114.856H200.275C200.924 114.856 201.502 115.42 201.502 116.083C201.502 116.732 200.938 117.31 200.275 117.31H175.718C175.07 117.31 174.491 116.746 174.491 116.083C174.491 115.434 174.985 114.856 175.718 114.856Z" fill="#C5C6E3"/>
<path d="M175.718 109.722H187.708C188.356 109.722 188.935 110.286 188.935 110.949C188.935 111.598 188.37 112.176 187.708 112.176H175.718C175.07 112.176 174.491 111.612 174.491 110.949C174.491 110.3 174.985 109.722 175.718 109.722Z" fill="#C5C6E3"/>
<path d="M175.718 119.919H200.275C200.924 119.919 201.502 120.484 201.502 121.147C201.502 121.795 200.938 122.374 200.275 122.374H175.718C175.07 122.374 174.491 121.809 174.491 121.147C174.491 120.498 174.985 119.919 175.718 119.919Z" fill="#C5C6E3"/>
<path d="M177.834 107.677C179.501 107.677 180.853 106.325 180.853 104.658C180.853 102.991 179.501 101.64 177.834 101.64C176.167 101.64 174.816 102.991 174.816 104.658C174.816 106.325 176.167 107.677 177.834 107.677Z" fill="#4E53BA"/>
<path d="M177.834 61.596C179.501 61.596 180.853 60.2446 180.853 58.5775C180.853 56.9105 179.501 55.5591 177.834 55.5591C176.167 55.5591 174.816 56.9105 174.816 58.5775C174.816 60.2446 176.167 61.596 177.834 61.596Z" fill="#4E53BA"/>
<path d="M177.834 84.0227C179.501 84.0227 180.853 82.6713 180.853 81.0043C180.853 79.3372 179.501 77.9858 177.834 77.9858C176.167 77.9858 174.816 79.3372 174.816 81.0043C174.816 82.6713 176.167 84.0227 177.834 84.0227Z" fill="#FF7A82"/>
<mask id="mask0_337_91" style="mask-type:luminance" maskUnits="userSpaceOnUse" x="70" y="50" width="93" height="80">
<path d="M72.6824 50.3403H160.866C161.839 50.3403 162.573 51.0738 162.573 52.047V128.072C162.573 129.045 161.839 129.779 160.866 129.779H72.6824C71.7092 129.779 70.9757 129.045 70.9757 128.072V52.047C70.9757 51.0738 71.7938 50.3403 72.6824 50.3403Z" fill="white"/>
</mask>
<g mask="url(#mask0_337_91)">
<path d="M90.8777 114.122C86.3924 122.035 83.6137 130.117 83.374 139.243C83.1342 147.805 85.0101 156.296 92.5139 161.43C97.4929 164.858 102.542 157.029 97.5776 153.602C92.6832 150.174 92.4434 143.573 92.7678 138.016C93.1768 131.161 95.2926 125.124 98.7201 119.172C101.64 113.967 93.8962 108.904 90.8777 114.122Z" fill="#FCB58A"/>
<path d="M129.384 118.537C133.545 123.925 136.563 129.553 137.946 136.324C139.088 142.036 139.497 147.424 134.758 151.655C130.357 155.732 136.465 162.756 140.879 158.666C143.813 156.056 146.014 152.629 147.241 148.877C148.468 144.631 148.143 140.47 147.41 136.154C145.859 127.099 142.022 119.511 136.394 112.331C132.727 107.677 125.632 113.798 129.384 118.537Z" fill="#FCB58A"/>
<path d="M140.485 110.695C140.485 110.695 135.759 77.323 134.208 71.2156C131.754 61.8358 125.068 56.208 115.604 56.208C105.984 56.208 99.2843 61.9205 96.6749 71.3002C93.9808 80.9197 90.3982 109.962 90.3982 109.962C89.9892 111.273 90.638 112.656 91.9497 113.065C94.9682 114.207 101.329 116.252 115.604 116.083C128.326 115.914 134.941 114.207 138.2 113.883C139.582 113.798 140.654 112.571 140.569 111.189C140.555 111.034 140.555 110.864 140.485 110.695Z" fill="#FF5856"/>
<path d="M110.371 89.0864H120.738V106.788C120.738 108.255 119.511 109.482 118.044 109.482H113.065C111.598 109.482 110.371 108.255 110.371 106.788V89.0864Z" fill="#FCB58A"/>
<path d="M115.589 92.9088C125.093 92.9088 132.797 85.2045 132.797 75.7009C132.797 66.1972 125.093 58.4929 115.589 58.4929C106.086 58.4929 98.3815 66.1972 98.3815 75.7009C98.3815 85.2045 106.086 92.9088 115.589 92.9088Z" fill="#FCB58A"/>
<path d="M98.0571 75.0522C98.0571 75.2919 98.0571 75.6164 98.1418 75.8703V75.9549C98.1418 76.2793 98.2264 76.5191 98.311 76.8576C98.3957 77.182 98.3957 77.5064 98.4803 77.8308C99.7074 73.0211 104.023 69.5936 109.003 69.5936C109.651 69.5936 110.23 69.6782 110.878 69.7628C111.372 69.8475 111.781 69.9321 112.261 69.9321C115.448 69.9321 118.058 67.5625 118.467 64.3889C118.382 64.7133 118.382 65.0377 118.382 65.3621C118.382 69.0294 121.316 71.9632 124.983 71.9632C128.495 72.6967 131.429 75.3061 132.487 78.7335C132.727 78.0001 132.896 77.182 132.981 76.3639V76.2793C133.065 75.9549 133.065 75.6305 133.065 75.3061V75.0663C133.065 74.6572 133.065 74.3328 133.065 73.9238C133.065 73.5147 133.065 73.275 133.065 72.9505C133.065 72.8659 133.065 72.7813 133.065 72.7108C133.065 72.471 133.065 72.2171 132.981 72.0619C132.896 71.8927 132.981 71.8927 132.896 71.7375C132.812 71.5683 132.812 71.3285 132.812 71.0887L132.727 70.7643C132.642 70.5245 132.642 70.3552 132.558 70.1155C132.473 69.8757 132.473 69.9462 132.473 69.8757L132.304 69.2269C132.304 69.1422 132.219 69.0576 132.219 68.9871C132.135 68.7473 132.05 68.4934 131.979 68.3382C131.979 68.2536 131.979 68.2536 131.895 68.169C131.81 67.9292 131.725 67.6753 131.655 67.4355V67.3509C131.57 67.1111 131.415 66.7867 131.331 66.5328C129.779 63.3451 127.339 60.6652 124.32 58.8598C123.347 58.2956 122.36 57.8019 121.302 57.4775H121.217C120.893 57.3929 120.569 57.3082 120.315 57.1531H120.145C119.412 56.9838 118.763 56.8287 118.03 56.744H117.79L116.972 56.6594H116.647C116.323 56.6594 115.914 56.6594 115.589 56.6594C105.885 56.6594 98.0571 64.4876 98.0571 74.1918C98.0571 74.5162 98.0571 74.8406 98.0571 75.165C98.0571 74.9675 98.0571 75.0522 98.0571 75.0522Z" fill="#FF5856"/>
<path d="M132.318 104.263C128.735 102.303 124.814 100.991 120.738 100.427C120.089 103.276 118.622 104.828 115.35 104.828C112.077 104.828 110.949 103.191 110.371 100.258C109.722 100.258 107.677 100.667 107.183 100.822C101.231 101.964 98.8611 103.516 95.9273 105.716C91.3573 109.144 86.872 116.238 85.8987 117.875C85.7295 118.044 85.7295 118.368 85.8987 118.523C86.9566 120.23 88.353 121.711 89.975 122.854C92.0202 124.165 94.136 125.139 96.4209 125.872C96.4209 125.872 97.8032 123.263 98.2969 122.289C98.8611 120.978 100.342 116.577 100.342 116.577C99.524 118.453 99.0303 120.498 98.8752 122.529C98.7906 125.308 99.7779 128.397 99.6933 130.273C99.4535 133.531 98.7906 136.719 97.8173 139.822C97.7327 140.231 97.902 140.555 98.311 140.724C103.53 141.952 108.918 142.685 114.306 142.77C120.103 142.77 125.886 142.361 131.598 141.458C132.008 141.373 132.247 141.049 132.163 140.64C132.163 140.64 132.163 140.64 132.163 140.555C131.429 137.452 130.851 134.349 130.611 131.26C130.117 127.014 130.611 126.196 130.611 123.107C130.442 120.907 130.117 118.622 129.708 116.422L130.611 124.913C133.221 124.828 135.83 124.264 138.2 123.122C139.836 122.219 141.218 121.161 142.53 119.863C142.77 119.624 142.854 119.299 142.699 118.961C141.613 116.577 136.563 106.788 132.318 104.263Z" fill="#868AE0"/>
<path d="M115.589 92.923C113.798 92.923 112.077 92.6832 110.371 92.1049V95.2926C112.077 95.7863 113.883 95.8568 115.589 95.6171C117.381 95.4478 119.102 95.0529 120.724 94.2348V92.0344C119.102 92.5845 117.31 92.923 115.589 92.923Z" fill="#E3996D"/>
<path d="M129.878 116.337C129.878 116.337 130.527 120.089 130.611 121.965C130.611 123.107 130.611 124.899 130.611 124.899C130.611 124.899 131.429 124.899 131.923 124.814C132.417 124.73 132.826 124.645 132.826 124.645C132.826 124.645 132.332 122.938 131.768 121.302C131.26 119.751 129.878 116.337 129.878 116.337Z" fill="#4E53BA"/>
<path d="M100.582 116.083C100.582 116.083 99.6792 118.693 99.2701 120.413C99.1009 121.316 99.0303 122.205 99.0303 123.107C98.9457 123.601 98.3815 125.153 98.1276 125.802C98.043 126.041 97.8032 126.126 97.634 126.126C97.3095 126.041 96.7312 125.957 96.3222 125.802C95.6734 125.562 95.1797 125.392 95.349 125.477C95.5182 125.562 96.8159 123.432 97.8032 121.725C98.5508 120.16 100.582 116.083 100.582 116.083Z" fill="#4E53BA"/>
</g>
<path d="M66.9699 37.519H211.037C212.349 37.519 213.407 38.5769 213.407 39.8887V43.8803H64.6144V39.8887C64.6144 38.591 65.6722 37.519 66.9699 37.519Z" fill="#868AE0"/>
<mask id="mask1_337_91" style="mask-type:luminance" maskUnits="userSpaceOnUse" x="0" y="0" width="283" height="283">
<path d="M141.049 282.097C218.948 282.097 282.097 218.948 282.097 141.049C282.097 63.1496 218.948 0 141.049 0C63.1496 0 0 63.1496 0 141.049C0 218.948 63.1496 282.097 141.049 282.097Z" fill="white"/>
</mask>
<g mask="url(#mask1_337_91)">
<path d="M45.8408 128.481L45.3471 128.397C44.12 128.157 42.9775 128.806 42.4979 129.948L39.0705 139.497C38.9858 139.667 38.9858 139.737 38.9858 139.906C40.1283 140.88 41.5952 141.542 43.0621 141.698C44.3739 141.937 45.7562 141.867 47.0538 141.458C47.0538 141.373 47.1384 141.218 47.1384 141.133L47.9565 131.02C47.886 129.793 47.0679 128.735 45.8408 128.481Z" fill="#D7D7E6"/>
<path d="M46.01 113.967C46.2498 113.558 46.7434 113.403 47.1525 113.643C47.3217 113.728 47.3922 113.812 47.4769 113.967C47.9705 115.025 48.704 116.337 49.1836 117.226C50.1568 119.426 50.4953 121.88 50.0863 124.236C49.5221 126.027 48.704 127.748 47.5615 129.215C47.4769 129.384 47.3217 129.455 47.1525 129.539C46.3344 129.779 45.5163 129.779 44.6982 129.624C43.1467 129.215 42.9069 128.242 42.9069 128.242C42.4132 126.366 42.1734 124.49 42.1734 122.614C42.3427 120.738 42.9915 118.946 43.9648 117.31C44.7828 116.168 45.4458 115.11 46.01 113.967Z" fill="#C7645D"/>
<path d="M33.1182 177.919L38.9153 140.555C38.9153 140.386 38.9999 140.146 39.0845 139.991C41.2849 141.782 44.3033 142.36 46.9973 141.542C46.9973 141.782 46.9127 142.036 46.9127 142.191L38.0266 178.977C37.7869 180.288 36.4751 181.177 35.1775 180.853C33.8516 180.528 32.8784 179.23 33.1182 177.919Z" fill="#2B31BA"/>
<path d="M29.7141 110.705L17.9953 111.56L23.1685 182.52L34.8873 181.665L29.7141 110.705Z" fill="#DADAED"/>
<path d="M22.6328 120.769L18.6515 121.06L18.711 121.876L22.6923 121.585L22.6328 120.769Z" fill="#989BD7"/>
<path d="M22.888 129.096L18.9059 129.375L18.963 130.191L22.9451 129.912L22.888 129.096Z" fill="#989BD7"/>
<path d="M23.4524 137.094L19.4703 137.373L19.5274 138.189L23.5095 137.91L23.4524 137.094Z" fill="#989BD7"/>
<path d="M24.3535 144.593L20.3722 144.883L20.4317 145.699L24.413 145.409L24.3535 144.593Z" fill="#989BD7"/>
<path d="M24.9177 152.507L20.9364 152.797L20.9959 153.613L24.9772 153.323L24.9177 152.507Z" fill="#989BD7"/>
<path d="M25.4963 160.504L21.515 160.794L21.5744 161.61L25.5557 161.32L25.4963 160.504Z" fill="#989BD7"/>
<path d="M26.1453 168.418L22.164 168.708L22.2235 169.524L26.2048 169.233L26.1453 168.418Z" fill="#989BD7"/>
<path d="M17.7842 135.02L10.3096 136.328L20.1263 192.416L27.6009 191.107L17.7842 135.02Z" fill="#FFADB2"/>
<path d="M17.7861 135.096L10.2823 136.394L11.4248 125.632L13.0469 125.392L17.7861 135.096Z" fill="#EBDBCD"/>
<path d="M11.9044 130.611L12.9764 129.878L13.865 129.948L14.9229 129.384L13.0469 125.392L11.4249 125.632L11.0158 129.948L11.9044 130.611Z" fill="#FF7A82"/>
<path d="M12.5674 155.083H45.192C46.0101 155.083 46.5743 155.732 46.5743 156.465C46.5743 156.55 46.5743 156.55 46.5743 156.635L42.2441 191.474C42.0748 193.11 40.6925 194.323 39.0564 194.323H18.5197C16.8835 194.323 15.5012 193.096 15.332 191.474L11.0864 156.635C11.0018 155.901 11.5801 155.168 12.3135 155.083C12.3982 155.168 12.4828 155.168 12.5674 155.083Z" fill="#FF7A82"/>
<path d="M-24.7964 195.62H49.1977C53.5984 195.62 57.1105 199.132 57.1105 203.533V204.027C57.1105 208.428 53.5984 211.94 49.1977 211.94H-24.7964V195.62Z" fill="#F8E7D8"/>
<path d="M101.64 194.407H-28.1533C-28.4777 194.407 -28.7175 194.647 -28.7175 194.971C-28.7175 195.296 -28.4777 195.536 -28.1533 195.536H48.8592C53.3446 195.536 57.0118 199.203 57.0118 203.688C57.0118 208.174 53.3446 211.841 48.8592 211.841H-28.1533C-28.4777 211.841 -28.7175 212.081 -28.7175 212.405C-28.7175 212.729 -28.4777 212.969 -28.1533 212.969H101.64C106.125 212.969 109.792 209.302 109.792 204.817V202.447C109.806 198.074 106.139 194.407 101.64 194.407Z" fill="#110580"/>
<path d="M34.4299 208.357H-24.7964V207.624H34.4299C34.6697 207.624 34.8389 207.793 34.8389 208.033C34.8389 208.103 34.6697 208.357 34.4299 208.357Z" fill="#DEBCA7"/>
<path d="M40.8758 200.275H-24.7964V199.542H40.8758C41.1156 199.542 41.2849 199.711 41.2849 199.951C41.2849 200.106 41.1156 200.275 40.8758 200.275Z" fill="#DEBCA7"/>
<path d="M48.1259 204.112H-24.8104V203.378H48.1259C48.3656 203.378 48.5349 203.547 48.5349 203.787C48.5349 203.942 48.3797 204.112 48.1259 204.112Z" fill="#DEBCA7"/>
</g>
<mask id="mask2_337_91" style="mask-type:luminance" maskUnits="userSpaceOnUse" x="0" y="0" width="283" height="283">
<path d="M141.049 282.097C218.948 282.097 282.097 218.948 282.097 141.049C282.097 63.1496 218.948 0 141.049 0C63.1496 0 0 63.1496 0 141.049C0 218.948 63.1496 282.097 141.049 282.097Z" fill="white"/>
</mask>
<g mask="url(#mask2_337_91)">
<path d="M260.968 215.283C250.122 213.646 239.19 211.855 228.499 209.57C208.272 205.325 202.969 236.905 223.026 241.137C227.751 242.11 232.575 243.097 237.3 243.986C246.454 235.523 254.367 225.889 260.968 215.283Z" fill="#FCB58A"/>
<path d="M199.457 207.863C210.148 208.272 219.204 213.815 227.85 219.852C234.056 224.183 240.164 214.464 233.971 210.148C223.689 202.969 212.603 196.847 199.951 196.368C192.447 195.945 191.953 207.539 199.457 207.863Z" fill="#FCB58A"/>
<path d="M218.216 242.942L204.591 242.858C195.945 242.773 188.765 235.354 188.596 226.383L188.512 223.28C188.342 214.309 195.197 206.961 203.844 207.045L217.469 207.13C226.03 207.215 233.294 214.634 233.464 223.605L233.548 226.708C233.718 235.678 226.863 243.027 218.216 242.942Z" fill="#FCB58A"/>
<path d="M167.312 259.826H152.135C141.768 259.826 133.291 251.744 132.713 241.475L130.287 196.763C130.202 195.127 131.429 193.745 132.981 193.66C133.065 193.66 133.15 193.66 133.15 193.66H186.1C187.736 193.66 189.033 194.972 189.033 196.594C189.033 196.678 189.033 196.678 189.033 196.763L186.579 241.461C186.156 251.744 177.594 259.826 167.312 259.826Z" fill="#FF5856"/>
<path d="M188.61 203.787L188.201 210.642C195.62 212.194 200.36 219.458 198.808 226.877C197.581 232.829 192.602 237.244 186.565 237.723L186.156 244.578C197.496 244.169 206.312 234.62 205.903 223.365C205.578 213.491 198.314 205.339 188.61 203.787Z" fill="#FF5856"/>
<path d="M163.645 183.222C163.645 183.222 150.668 171.233 151.077 162.417C151.726 148.961 163.8 143.813 159.23 131.091C157.029 125.054 147.974 105.561 147.974 105.561C147.974 105.561 162.982 120.413 168.285 129.539C173.095 137.861 172.531 150.993 167.312 157.269C155.901 171.064 163.645 183.222 163.645 183.222Z" fill="#DCDCED"/>
<path d="M205.663 207.215C211.7 207.539 216.27 212.758 215.945 218.724L215.127 232.59C214.803 238.626 209.584 243.196 203.618 242.872C196.354 242.463 190.895 236.271 191.304 229.007L191.868 219.627C192.277 212.349 198.484 206.806 205.663 207.215Z" fill="#F0A173"/>
<path d="M203.463 206.636C209.5 206.961 214.07 212.18 213.745 218.132L212.927 231.997C212.603 238.034 207.384 242.604 201.417 242.279C194.153 241.87 188.695 235.678 189.104 228.414L189.668 219.035C189.993 211.771 196.199 206.227 203.463 206.636Z" fill="#FCB58A"/>
</g>
<defs>
<filter id="filter0_i_337_91" x="0" y="0" width="282.097" height="286.097" filterUnits="userSpaceOnUse" color-interpolation-filters="sRGB">
<feFlood flood-opacity="0" result="BackgroundImageFix"/>
<feBlend mode="normal" in="SourceGraphic" in2="BackgroundImageFix" result="shape"/>
<feColorMatrix in="SourceAlpha" type="matrix" values="0 0 0 0 0 0 0 0 0 0 0 0 0 0 0 0 0 0 127 0" result="hardAlpha"/>
<feOffset dy="4"/>
<feGaussianBlur stdDeviation="2"/>
<feComposite in2="hardAlpha" operator="arithmetic" k2="-1" k3="1"/>
<feColorMatrix type="matrix" values="0 0 0 0 0 0 0 0 0 0 0 0 0 0 0 0 0 0 0.25 0"/>
<feBlend mode="normal" in2="shape" result="effect1_innerShadow_337_91"/>
</filter>
</defs>
</svg>
