<svg width="20" height="20" viewBox="0 0 20 20" fill="none" xmlns="http://www.w3.org/2000/svg">
<path d="M10 3.95805C11.4257 3.936 12.8036 4.47247 13.8361 5.45722L16.6912 2.60218C14.8834 0.904587 12.484 -0.0287217 10 0.000673888C6.21903 0.000673888 2.76137 2.13185 1.06378 5.51234L4.38548 8.08813C5.17548 5.71811 7.39117 3.95805 10 3.95805Z" fill="white"/>
<path d="M4.38545 11.917C3.96656 10.675 3.96656 9.3302 4.38545 8.08824V5.51245H1.06375C-0.354584 8.3381 -0.354584 11.6671 1.06375 14.4928L4.38545 11.917Z" fill="white"/>
<path d="M10 20.0007C12.6971 20.0007 14.9716 19.1152 16.6287 17.5866L13.4062 15.088C12.5097 15.6979 11.3522 16.0433 10.0037 16.0433C7.39485 16.0433 5.18283 14.2833 4.38915 11.9169H1.06378V14.4927C2.76137 17.8695 6.21903 20.0007 10 20.0007Z" fill="white"/>
<path d="M19.605 10.2301C19.605 9.55038 19.5499 8.86693 19.4323 8.19818H10V12.049H15.4014C15.1773 13.291 14.4571 14.3896 13.4025 15.0878V17.5864H16.625C18.5174 15.8447 19.605 13.2726 19.605 10.2301Z" fill="white"/>
</svg>
