<svg width="330" height="97" viewBox="0 0 330 97" fill="none" xmlns="http://www.w3.org/2000/svg">
<g filter="url(#filter0_d_337_310)">
<path d="M39.4239 2.06614C39.7271 1.66192 40.6871 1.28296 42.304 0.929272C43.9714 0.525052 45.5377 0.322941 47.003 0.322941C48.4683 0.322941 49.681 0.525052 50.641 0.929272C46.9525 30.4373 45.1082 45.6966 45.1082 46.7071C45.1082 47.7177 45.4114 48.6272 46.0177 49.4356C46.6746 50.1935 47.6093 50.5725 48.822 50.5725C52.1568 50.5725 55.1379 45.9997 57.7653 36.8543C57.7653 36.7532 57.7906 36.6269 57.8411 36.4753C57.8917 36.3237 57.9169 36.2227 57.9169 36.1722C60.1401 37.5869 61.5802 38.4711 62.237 38.8248C60.5696 45.1913 58.498 50.0672 56.0222 53.4525C53.5463 56.7873 50.3631 58.4547 46.4725 58.4547C42.5819 58.4547 39.9544 56.6105 38.5902 52.922H38.3628C36.7965 54.8926 35.0533 56.3073 33.1332 57.1663C31.2132 58.0253 28.8131 58.4547 25.9331 58.4547C21.1835 58.4547 17.5203 57.2168 14.9434 54.741C12.417 52.2651 11.1538 48.7282 11.1538 44.1302C11.1538 43.1702 11.2296 42.1091 11.3812 40.947L13.5033 23.2119C8.50111 19.6749 6 15.5064 6 10.7063C6 7.5231 6.96002 4.99673 8.88006 3.12721C10.8001 1.2577 13.2507 0.322941 16.2318 0.322941C22.4467 0.322941 25.5541 3.60722 25.5541 10.1758C25.5541 11.2369 25.4783 12.4243 25.3267 13.738L21.4614 43.3723C21.4109 43.726 21.3856 44.2565 21.3856 44.9639C21.3856 46.9345 21.8403 48.5261 22.7498 49.7388C23.6593 50.9514 25.0488 51.5578 26.9184 51.5578C31.4153 51.5578 34.068 48.0714 34.8764 41.0986L39.4239 2.06614ZM13.4275 7.29573C11.7096 7.29573 10.8506 8.3568 10.8506 10.479C10.8506 12.5506 12.0128 14.5969 14.337 16.618L14.5644 14.6475C14.8676 12.02 15.0444 10.3779 15.0949 9.72104C15.0949 8.10417 14.5391 7.29573 13.4275 7.29573ZM75.6947 49.5114L77.5137 32.61C77.5137 31.2457 77.16 30.1089 76.4526 29.1994C75.7452 28.2899 74.5578 27.8351 72.8904 27.8351C71.2735 27.8351 69.884 28.5678 68.7219 30.0331C67.6103 31.4478 66.9029 33.2416 66.5998 35.4142C64.7808 49.2588 63.8207 56.7873 63.7197 58H53.4879L57.6564 22.3024C59.7785 21.7466 61.3954 21.4687 62.507 21.4687C65.8924 21.4687 67.6608 22.7066 67.8124 25.1824C70.2883 22.7571 73.2441 21.5445 76.68 21.5445C80.1664 21.5445 82.8948 22.4034 84.8654 24.1214C86.836 25.8393 87.8213 28.012 87.8213 30.6394C87.8213 31.3468 87.6697 32.6858 87.3665 34.6563C86.2044 42.3365 85.6233 46.8082 85.6233 48.0714C85.6233 50.3956 86.4065 51.5578 87.9729 51.5578C91.4087 51.5578 94.0109 47.9703 95.7793 40.7954C97.4973 42.6144 98.5331 44.0544 98.8868 45.1155C96.2088 54.0083 91.5603 58.4547 84.9412 58.4547C81.8085 58.4547 79.4842 57.4947 77.9684 55.5747C76.4526 53.6546 75.6947 51.6335 75.6947 49.5114ZM115.603 21.4687C119.241 21.4687 122.374 22.9592 125.001 25.9403C127.628 28.9215 128.942 32.4079 128.942 36.3995C128.942 36.9553 128.917 37.5364 128.866 38.1427C128.311 44.7618 126.087 49.8146 122.197 53.3009C118.306 56.7368 113.228 58.4547 106.963 58.4547C104.436 58.3537 102.238 57.8989 100.369 57.0905C98.4993 56.2821 97.1098 55.2715 96.2003 54.0589C94.4824 51.8357 93.6234 49.8651 93.6234 48.1472C93.6234 46.3787 93.8761 43.5492 94.3814 39.6585C95.4424 31.6752 96.9582 18.7655 98.9288 0.929272C99.9899 0.525052 101.405 0.322941 103.173 0.322941C107.215 0.322941 109.236 1.48507 109.236 3.80933L106.66 23.9698C109.034 22.3024 112.015 21.4687 115.603 21.4687ZM103.855 47.6166C103.855 48.7787 104.285 49.764 105.144 50.5725C106.053 51.3304 107.291 51.7093 108.857 51.7093C111.434 51.7093 113.557 50.5219 115.224 48.1472C117.245 45.2671 118.256 41.5281 118.256 36.9301C118.256 34.7069 117.75 32.7363 116.74 31.0184C115.729 29.3004 114.163 28.4415 112.041 28.4415C109.161 28.4415 106.963 30.1594 105.447 33.5953L104.841 38.1427C104.184 43.246 103.855 46.404 103.855 47.6166ZM165.983 22.3024C163.911 38.6733 162.875 47.3892 162.875 48.4503C162.875 50.4714 163.608 51.482 165.073 51.482C166.387 51.482 167.802 50.5977 169.317 48.8293C170.884 47.0103 172.122 44.3071 173.031 40.7196C174.699 42.5386 175.709 43.9534 176.063 44.9639C174.901 49.8651 173.056 53.3262 170.53 55.3473C168.004 57.3684 165.402 58.379 162.724 58.379C158.328 58.379 155.372 56.6863 153.856 53.3009C151.229 56.6863 147.717 58.379 143.321 58.379C139.683 58.379 136.879 57.4695 134.908 55.6505C132.938 53.8315 131.952 51.4567 131.952 48.5261C131.952 47.8187 132.079 46.5808 132.331 44.8123C133.494 35.4142 134.378 27.9362 134.984 22.3782C136.55 21.8224 137.99 21.5445 139.304 21.5445C140.618 21.5445 141.603 21.595 142.26 21.696C142.917 21.7971 143.548 22.1761 144.155 22.8329C144.761 23.4898 145.064 24.4245 145.064 25.6372L142.563 44.9639C142.462 45.5703 142.412 46.1261 142.412 46.6313C142.412 49.6124 143.776 51.103 146.504 51.103C149.031 51.103 151.128 49.8651 152.795 47.3892C152.795 46.8334 152.846 45.9492 152.947 44.7365L155.448 24.5761C155.801 23.7171 156.559 23.0098 157.721 22.454C158.884 21.8476 160.324 21.5445 162.042 21.5445C163.81 21.5445 165.124 21.7971 165.983 22.3024ZM202.274 34.8079C206.266 37.7385 208.262 41.1996 208.262 45.1913C208.262 49.183 206.695 52.3915 203.563 54.8168C200.43 57.2421 196.489 58.4547 191.739 58.4547C188.657 58.4547 186.08 57.6968 184.009 56.181C181.987 54.6147 180.977 52.6946 180.977 50.4209C180.977 48.1472 181.735 46.3534 183.251 45.0397C184.766 43.6755 186.661 42.8418 188.935 42.5386C187.874 44.0544 187.343 45.5197 187.343 46.9345C187.343 48.2987 187.823 49.4103 188.783 50.2693C189.743 51.1283 190.956 51.5578 192.421 51.5578C193.887 51.5578 195.099 51.0272 196.059 49.9661C197.019 48.8545 197.499 47.5914 197.499 46.1766C197.499 43.8523 196.413 41.7807 194.24 39.9617C192.927 38.9006 191.512 37.9153 189.996 37.0059C188.48 36.0458 187.672 35.5406 187.571 35.49C187.369 35.3384 187.166 35.2121 186.964 35.1111C186.055 36.1722 184.741 37.6374 183.023 39.507C181.305 41.3259 179.941 42.7912 178.931 43.9028C176.101 46.985 174.509 49.5619 174.156 51.6335C174.055 52.0378 174.004 52.8209 174.004 53.9831C174.004 55.0947 174.333 56.2568 174.989 57.4695C175.697 58.6821 176.53 59.5916 177.49 60.1979C178.45 60.8043 179.385 61.2843 180.295 61.638C181.255 62.0422 182.063 62.3201 182.72 62.4717C183.427 62.6233 183.781 62.7243 183.781 62.7748C183.781 63.1285 183.225 63.5328 182.114 63.9875C180.042 64.7454 177.869 65.1244 175.596 65.1244C173.372 65.1244 171.2 64.3159 169.078 62.6991C166.198 60.4758 164.758 57.52 164.758 53.8315C164.758 51.5578 165.339 49.3093 166.501 47.0861C168.572 43.1449 173.423 37.7385 181.053 30.8668C179.183 28.9973 178.248 27.0014 178.248 24.8793C178.248 22.7571 179.032 20.9634 180.598 19.4981C182.215 18.0328 184.11 17.3002 186.282 17.3002C188.253 17.3002 189.971 18.0833 191.436 19.6497C192.396 20.7108 192.876 22.0497 192.876 23.6666C192.876 25.2835 192.346 27.1025 191.284 29.1236C196.691 31.5489 200.354 33.4437 202.274 34.8079ZM185.828 26.2435C187.04 24.9803 187.646 24.0708 187.646 23.515C187.646 22.2518 187.091 21.5697 185.979 21.4687C184.716 21.4687 184.084 22.1761 184.084 23.5908C184.084 24.4498 184.665 25.334 185.828 26.2435Z" fill="url(#paint0_linear_337_310)"/>
</g>
<g filter="url(#filter1_d_337_310)">
<path d="M228.224 33.3068C228.224 30.0225 226.758 28.3804 223.828 28.3804C221.655 28.3804 219.71 29.6183 217.992 32.0941C216.173 34.7721 215.263 37.9048 215.263 41.4922C215.263 45.0797 216.047 47.8587 217.613 49.8293C219.23 51.7493 221.428 52.7093 224.207 52.7093C227.542 52.7093 231.053 51.3451 234.742 48.6166C238.481 45.8881 241.487 42.5028 243.761 38.4606C244.771 39.2185 245.757 40.608 246.717 42.6291C245.251 45.5597 242.523 48.844 238.531 52.482C236.46 54.402 233.883 56.0189 230.801 57.3326C227.466 58.7474 224.131 59.4547 220.796 59.4547C216.299 59.4547 212.484 57.9137 209.352 54.8315C206.27 51.7493 204.728 47.7324 204.728 42.7807C204.728 36.7679 206.75 31.892 210.792 28.153C214.834 24.414 219.356 22.5445 224.358 22.5445C228.249 22.5445 231.331 23.3529 233.605 24.9698C235.879 26.5867 237.016 28.7088 237.016 31.3362C237.016 33.0542 236.409 34.5447 235.197 35.8079C232.973 38.0311 230.27 39.1427 227.087 39.1427C227.845 36.6163 228.224 34.671 228.224 33.3068ZM273.755 59.379C269.107 59.379 266.025 57.7621 264.509 54.5283C261.881 57.8126 258.496 59.4547 254.353 59.4547C250.26 59.4547 246.799 58.0652 243.969 55.2862C241.19 52.5072 239.801 48.844 239.801 44.2965C239.801 37.6774 241.746 32.3973 245.637 28.4562C249.527 24.515 254.454 22.5445 260.416 22.5445C260.568 22.5445 260.719 22.5445 260.871 22.5445C263.397 22.5445 265.721 22.9739 267.844 23.8329C269.208 22.9739 270.85 22.5445 272.77 22.5445C274.741 22.5445 276.155 22.7971 277.014 23.3024C276.56 27.0414 276.08 30.7299 275.574 34.3679C275.069 37.9553 274.715 40.507 274.513 42.0228C274.058 45.4586 273.831 47.9345 273.831 49.4503C273.831 51.4714 274.639 52.482 276.256 52.482C277.52 52.482 278.859 51.6483 280.273 49.9809C281.688 48.2629 282.926 45.585 283.987 41.947C285.452 43.2607 286.463 44.726 287.019 46.3429C285.553 51.143 283.583 54.5283 281.107 56.4989C278.631 58.4189 276.181 59.379 273.755 59.379ZM261.553 28.4562C258.319 28.4562 255.742 29.6941 253.822 32.1699C251.953 34.5953 250.841 38.2332 250.487 43.0839C250.437 43.5386 250.412 43.9681 250.412 44.3723C250.412 46.8482 250.993 48.8187 252.155 50.284C253.367 51.7493 254.909 52.482 256.778 52.482C259.961 52.482 262.361 50.2335 263.978 45.7365L265.797 29.3657C264.332 28.7593 262.917 28.4562 261.553 28.4562ZM313.231 35.8079C317.223 38.7385 319.219 42.1996 319.219 46.1913C319.219 50.183 317.652 53.3915 314.52 55.8168C311.387 58.2421 307.446 59.4547 302.696 59.4547C299.614 59.4547 297.037 58.6968 294.966 57.181C292.944 55.6147 291.934 53.6946 291.934 51.4209C291.934 49.1472 292.692 47.3534 294.208 46.0397C295.723 44.6755 297.618 43.8418 299.892 43.5386C298.831 45.0544 298.3 46.5197 298.3 47.9345C298.3 49.2987 298.78 50.4103 299.74 51.2693C300.7 52.1283 301.913 52.5578 303.378 52.5578C304.844 52.5578 306.056 52.0272 307.016 50.9661C307.976 49.8545 308.456 48.5914 308.456 47.1766C308.456 44.8523 307.37 42.7807 305.197 40.9617C303.884 39.9006 302.469 38.9153 300.953 38.0059C299.437 37.0458 298.629 36.5406 298.528 36.49C298.326 36.3384 298.123 36.2121 297.921 36.1111C297.012 37.1722 295.698 38.6374 293.98 40.507C292.262 42.3259 290.898 43.7912 289.888 44.9028C287.058 47.985 285.466 50.5619 285.113 52.6335C285.012 53.0378 284.961 53.8209 284.961 54.9831C284.961 56.0947 285.29 57.2568 285.946 58.4695C286.654 59.6821 287.487 60.5916 288.447 61.1979C289.408 61.8043 290.342 62.2843 291.252 62.638C292.212 63.0422 293.02 63.3201 293.677 63.4717C294.384 63.6233 294.738 63.7243 294.738 63.7748C294.738 64.1285 294.182 64.5328 293.071 64.9875C290.999 65.7454 288.826 66.1244 286.553 66.1244C284.33 66.1244 282.157 65.3159 280.035 63.6991C277.155 61.4758 275.715 58.52 275.715 54.8315C275.715 52.5578 276.296 50.3093 277.458 48.0861C279.529 44.1449 284.38 38.7385 292.01 31.8668C290.14 29.9973 289.205 28.0014 289.205 25.8793C289.205 23.7571 289.989 21.9634 291.555 20.4981C293.172 19.0328 295.067 18.3002 297.239 18.3002C299.21 18.3002 300.928 19.0833 302.393 20.6497C303.353 21.7108 303.833 23.0497 303.833 24.6666C303.833 26.2835 303.303 28.1025 302.241 30.1236C307.648 32.5489 311.311 34.4437 313.231 35.8079ZM296.785 27.2435C297.997 25.9803 298.604 25.0708 298.604 24.515C298.604 23.2518 298.048 22.5697 296.936 22.4687C295.673 22.4687 295.041 23.1761 295.041 24.5908C295.041 25.4498 295.622 26.334 296.785 27.2435Z" fill="url(#paint1_linear_337_310)"/>
</g>
<path d="M128.108 38.7091C128.108 46.9099 121.264 52.7553 112.649 53.242C95.8748 54.1898 98.835 47.7594 98.835 38.3932C98.835 30.626 99.8216 23.8602 112.482 23.8602C121.112 23.8602 128.108 30.5083 128.108 38.7091Z" fill="url(#paint2_linear_337_310)"/>
<ellipse cx="114.732" cy="39.3992" rx="8.23443" ry="8.01857" fill="white"/>
<ellipse cx="114.415" cy="39.7076" rx="4.75063" ry="4.6261" fill="#00305B"/>
<path d="M118.643 36.6305C118.643 37.4822 117.934 38.1726 117.06 38.1726C116.185 38.1726 115.476 37.4822 115.476 36.6305C115.476 35.7789 116.185 35.0885 117.06 35.0885C117.934 35.0885 118.643 35.7789 118.643 36.6305Z" fill="white"/>
<rect width="8.04119" height="3.1225" rx="1.56125" transform="matrix(0.772647 -0.634837 0.687614 0.726076 101.441 47.2111)" fill="white"/>
<defs>
<filter id="filter0_d_337_310" x="0.385842" y="0.322998" width="213.49" height="76.0297" filterUnits="userSpaceOnUse" color-interpolation-filters="sRGB">
<feFlood flood-opacity="0" result="BackgroundImageFix"/>
<feColorMatrix in="SourceAlpha" type="matrix" values="0 0 0 0 0 0 0 0 0 0 0 0 0 0 0 0 0 0 127 0" result="hardAlpha"/>
<feOffset dy="5.61416"/>
<feGaussianBlur stdDeviation="2.80708"/>
<feComposite in2="hardAlpha" operator="out"/>
<feColorMatrix type="matrix" values="0 0 0 0 0 0 0 0 0 0 0 0 0 0 0 0 0 0 0.13 0"/>
<feBlend mode="normal" in2="BackgroundImageFix" result="effect1_dropShadow_337_310"/>
<feBlend mode="normal" in="SourceGraphic" in2="effect1_dropShadow_337_310" result="shape"/>
</filter>
<filter id="filter1_d_337_310" x="199.114" y="18.3002" width="125.719" height="59.0525" filterUnits="userSpaceOnUse" color-interpolation-filters="sRGB">
<feFlood flood-opacity="0" result="BackgroundImageFix"/>
<feColorMatrix in="SourceAlpha" type="matrix" values="0 0 0 0 0 0 0 0 0 0 0 0 0 0 0 0 0 0 127 0" result="hardAlpha"/>
<feOffset dy="5.61416"/>
<feGaussianBlur stdDeviation="2.80708"/>
<feComposite in2="hardAlpha" operator="out"/>
<feColorMatrix type="matrix" values="0 0 0 0 0 0 0 0 0 0 0 0 0 0 0 0 0 0 0.13 0"/>
<feBlend mode="normal" in2="BackgroundImageFix" result="effect1_dropShadow_337_310"/>
<feBlend mode="normal" in="SourceGraphic" in2="effect1_dropShadow_337_310" result="shape"/>
</filter>
<linearGradient id="paint0_linear_337_310" x1="162" y1="0" x2="162" y2="96" gradientUnits="userSpaceOnUse">
<stop stop-color="#00427D"/>
<stop offset="0.0001" stop-color="#00427D"/>
<stop offset="1" stop-color="#00305B"/>
<stop offset="1" stop-color="#00305B"/>
</linearGradient>
<linearGradient id="paint1_linear_337_310" x1="266" y1="1" x2="266" y2="97" gradientUnits="userSpaceOnUse">
<stop stop-color="#00427D"/>
<stop offset="1" stop-color="#00305B"/>
</linearGradient>
<linearGradient id="paint2_linear_337_310" x1="113.636" y1="9.64323" x2="113.391" y2="53.3347" gradientUnits="userSpaceOnUse">
<stop stop-color="#00427D"/>
<stop offset="1" stop-color="#00305B"/>
</linearGradient>
</defs>
</svg>
