<svg width="639" height="612" viewBox="0 0 639 612" fill="none" xmlns="http://www.w3.org/2000/svg">
<g clip-path="url(#clip0_184_144)">
<path d="M309.365 344.752C309.199 345.107 309.059 345.462 308.899 345.835C296.758 374.091 288.317 407.941 286.349 448.431C252.686 369.458 196.812 331.227 147.079 312.867C147.967 286.477 151.801 240.583 167.456 212.388C167.456 212.388 193.943 218.319 227.28 243.337C253.581 263.068 284.176 294.721 309.365 344.752Z" fill="#FF7A82"/>
<path d="M314.33 344.323L313.199 344.079C313.359 343.699 313.5 343.338 313.659 342.977C313.883 343.418 314.107 343.883 314.33 344.323Z" fill="#3FBDF1"/>
<path d="M314.33 344.323L313.199 344.079C313.359 343.699 313.5 343.338 313.659 342.977C313.883 343.418 314.107 343.883 314.33 344.323Z" fill="#3FBDF1"/>
<path d="M292.56 525.604C292.24 525.604 291.921 525.604 291.595 525.604C165.987 525.604 61.9383 434.416 43.2923 315.339C42.0143 305.174 41.8481 299.109 41.8481 299.109C41.8481 299.109 87.1596 294.709 139.724 314.513C186.326 332.083 238.628 368.663 270.15 444.257V444.312C270.342 444.759 270.533 445.212 270.7 445.683C280.125 468.547 287.62 494.967 292.521 525.457C292.541 525.488 292.56 525.549 292.56 525.604Z" fill="#FF7A82"/>
<path d="M584.947 302.75C572.94 437.66 458.687 543.572 319.353 544.111C319.436 537.991 321.436 468.737 365.073 405.958C384.59 377.631 410.801 354.107 441.581 337.292C442.456 336.814 443.306 336.355 444.194 335.89C445.268 335.278 446.361 334.752 447.453 334.189C447.735 334.03 448.041 333.889 448.348 333.73C449.415 333.191 450.489 332.646 451.581 332.126C452.15 331.845 452.719 331.569 453.3 331.306C454.476 330.694 455.671 330.162 456.866 329.623C458.061 329.085 459.115 328.601 460.246 328.099C460.387 328.044 460.508 327.983 460.649 327.922C461.499 327.542 462.348 327.181 463.205 326.82C464.272 326.343 465.345 325.896 466.438 325.462C469.633 324.14 472.898 322.873 476.24 321.673L477.391 321.251C478.809 320.731 480.221 320.235 481.659 319.752C510.625 309.917 544.747 303.711 584.947 302.75Z" fill="#FF7A82"/>
<path d="M395.33 240.173C366.876 260.816 334.811 293.356 313.66 342.989C288.521 291.967 257.984 259.69 231.727 239.561C247.236 211.868 282.368 155.619 314.331 129.303C314.331 129.291 362.684 175.069 395.33 240.173Z" fill="#FF7A82"/>
<path d="M478.854 314.495C477.442 314.966 476.055 315.455 474.662 315.963L473.531 316.38C470.253 317.555 467.039 318.797 463.946 320.088C462.872 320.523 461.824 320.957 460.751 321.429C459.901 321.784 459.064 322.132 458.233 322.506L457.831 322.683C456.719 323.173 455.607 323.669 454.521 324.176C453.434 324.684 452.176 325.26 451.025 325.829C450.45 326.08 449.894 326.355 449.338 326.631C448.265 327.145 447.211 327.671 446.143 328.203C445.843 328.363 445.543 328.497 445.268 328.656C444.194 329.207 443.121 329.758 442.073 330.327C441.198 330.774 440.36 331.227 439.517 331.698C409.323 348.19 383.613 371.266 364.473 399.055C321.66 460.634 319.705 528.554 319.628 534.57L319.526 534.392C314.414 502.513 306.56 474.894 296.713 450.989L297.486 448.541L296.138 449.545C296.138 449.545 296.138 449.545 296.138 449.502C298.055 409 306.362 375.138 318.216 346.869L319.327 347.108C319.11 346.674 318.893 346.221 318.688 345.792C339.398 297.126 370.85 265.21 398.736 244.959C431.632 221.091 459.69 213.392 459.69 213.392C474.72 231.11 478.138 285.302 478.854 314.495Z" fill="#FF7A82"/>
<path d="M289.377 455.481V455.414C289.377 455.414 289.377 455.463 289.377 455.481Z" stroke="#CCDDE2" stroke-width="4.82" stroke-miterlimit="10"/>
<path d="M313.653 343.595C313.481 343.975 313.334 344.354 313.161 344.758C300.381 375.242 291.435 411.76 289.352 455.438C253.811 370.26 194.844 328.999 142.305 309.195C143.245 280.724 147.296 231.22 163.82 200.797C163.82 200.797 191.783 207.193 226.985 234.182C254.75 255.473 287.064 289.617 313.653 343.595Z" stroke="#CCDDE2" stroke-width="4.82" stroke-miterlimit="10"/>
<path d="M314.388 345.015L313.187 344.758C313.359 344.354 313.506 343.975 313.679 343.595C313.889 344.06 314.126 344.556 314.388 345.015Z" stroke="#CCDDE2" stroke-width="4.82" stroke-miterlimit="10"/>
<path d="M289.377 455.481V455.414C289.377 455.414 289.377 455.463 289.377 455.481Z" stroke="#CCDDE2" stroke-width="4.82" stroke-miterlimit="10"/>
<path d="M314.388 345.015L313.187 344.758C313.359 344.354 313.506 343.975 313.679 343.595C313.889 344.06 314.126 344.556 314.388 345.015Z" stroke="#CCDDE2" stroke-width="4.82" stroke-miterlimit="10"/>
<path opacity="0.9" d="M97.0323 446.546C94.7127 443.835 92.4315 441.038 90.2397 438.241C60.7068 400.611 41.2526 356.623 33.5796 310.125C31.6945 298.729 31.9501 291.826 31.9501 291.826C31.9501 291.826 83.019 286.869 142.293 309.195C194.825 328.999 253.792 370.248 289.333 455.463V455.524C289.557 456.032 289.78 456.54 289.972 457.066C300.611 482.85 309.059 512.63 314.593 547.03C314.593 547.091 314.593 547.159 314.593 547.22C314.216 547.22 313.864 547.22 313.487 547.22C240.168 547.11 173.329 519.147 122.969 473.419C117.704 468.651 112.592 463.67 107.704 458.523" stroke="#CCDDE2" stroke-width="4.82" stroke-miterlimit="10"/>
<path d="M289.377 455.481V455.414C289.377 455.414 289.377 455.463 289.377 455.481Z" stroke="#CCDDE2" stroke-width="4.82" stroke-miterlimit="10"/>
<path opacity="0.9" d="M595.65 291.844C582.953 434.551 462.099 546.589 314.701 547.165C314.791 540.678 316.906 467.427 363.067 401.019C383.712 371.052 411.44 346.167 444.003 328.381C444.923 327.873 445.824 327.389 446.763 326.9C447.901 326.288 449.057 325.676 450.208 325.101C450.508 324.929 450.847 324.782 451.153 324.611C452.291 324.042 453.422 323.467 454.578 322.916C455.179 322.622 455.78 322.304 456.399 322.053C457.639 321.441 458.904 320.829 460.17 320.272C461.435 319.715 462.547 319.189 463.742 318.662L464.17 318.473C465.071 318.069 465.972 317.689 466.892 317.304C468.023 316.796 469.16 316.331 470.317 315.865C473.678 314.464 477.148 313.13 480.681 311.863L481.902 311.416C483.397 310.865 484.901 310.335 486.413 309.825C517.034 299.427 553.131 292.86 595.65 291.844Z" stroke="#CCDDE2" stroke-width="4.82" stroke-miterlimit="10"/>
<path d="M400.046 234.837C369.942 256.679 336.031 291.104 313.653 343.595C287.064 289.617 254.75 255.467 226.985 234.182C243.382 204.885 280.553 145.381 314.362 117.547C314.388 117.547 365.508 165.974 400.046 234.837Z" stroke="#CCDDE2" stroke-width="4.82" stroke-miterlimit="10"/>
<path d="M116.573 390.744C116.581 390.701 116.581 390.658 116.573 390.615C116.573 390.572 116.573 390.536 116.573 390.45C116.562 390.381 116.562 390.311 116.573 390.242C116.588 390.391 116.616 390.538 116.656 390.682C116.647 390.698 116.635 390.711 116.621 390.722C116.607 390.732 116.59 390.74 116.573 390.744Z" fill="white"/>
<path d="M116.816 431.417C115.801 434.548 114.505 437.588 112.943 440.505C112.503 441.332 112.062 442.133 111.576 442.953C109.919 445.937 107.883 448.712 105.512 451.215C105.09 451.087 104.675 450.922 104.298 450.769C104.208 450.769 104.144 450.707 104.074 450.689C96.4061 447.488 90.6551 441.509 88.949 434.777C87.4218 428.847 88.7892 422.427 85.8498 416.852C82.2459 409.991 72.4692 405.689 71.2551 397.941C70.1496 390.695 76.9614 384.042 75.8559 376.943C74.5779 368.92 64.2836 364.152 62.3858 356.313C61.1653 351.417 62.2516 345.829 61.8107 340.804C61.3028 335.193 60.3111 329.631 58.8457 324.176C59.555 324.134 60.2579 324.115 60.9672 324.097C75.4533 323.858 89.7222 331.655 94.4124 342.61C98.1889 351.466 96.2655 361.692 101.288 369.997C101.589 370.535 101.928 371.053 102.304 371.545C102.963 372.416 103.673 373.249 104.432 374.042L106.023 375.633C106.285 375.884 106.573 376.117 106.841 376.392C107.109 376.668 107.391 376.906 107.659 377.182C110.157 379.465 112.701 381.778 114.362 384.526C114.51 384.764 114.643 385.012 114.758 385.266C114.912 385.517 115.044 385.779 115.154 386.05C115.297 386.326 115.423 386.61 115.531 386.9C115.666 387.219 115.774 387.555 115.883 387.873C116.043 388.381 116.196 388.871 116.305 389.379C116.305 389.507 116.305 389.611 116.349 389.716C116.394 389.82 116.349 389.801 116.349 389.844C116.359 389.886 116.359 389.93 116.349 389.973C116.349 390.058 116.349 390.119 116.394 390.181V390.223C116.397 390.303 116.412 390.381 116.439 390.456C116.439 390.542 116.439 390.578 116.439 390.621C116.447 390.664 116.447 390.707 116.439 390.75V390.793L114.733 414.434C115.819 420.144 118.541 425.848 116.816 431.417Z" fill="white"/>
<path d="M129.666 374.03C130.772 368.901 130.861 363.522 133.379 358.626C138.069 349.605 151.782 343.057 166.14 342.634H166.402C167.68 342.634 169.035 342.634 170.364 342.702C168.879 347.393 167.863 352.208 167.329 357.084C166.843 361.423 167.968 366.264 166.734 370.45C164.722 377.225 153.993 381.337 152.676 388.265C151.526 394.385 158.626 400.15 157.456 406.399C156.178 413.088 146.018 416.803 142.261 422.727C139.232 427.537 140.644 433.063 139.066 438.174C137.232 443.994 131.219 449.19 123.231 451.919C122.727 452.09 122.26 452.256 121.749 452.403C121.48 452.47 121.174 452.574 120.905 452.641C120.816 452.574 120.733 452.488 120.618 452.403C118.062 450.303 115.174 446.766 112.784 442.978L112.963 440.567C114.524 437.65 115.82 434.609 116.835 431.478C118.56 425.909 115.838 420.205 114.841 414.489L116.547 390.848L117.078 390.425C117.271 390.288 117.454 390.139 117.627 389.979C120.26 387.947 123.091 386.001 125.129 383.687C127.647 380.848 128.823 377.739 129.602 374.507" fill="white"/>
<path d="M129.602 374.373C129.602 374.262 129.64 374.158 129.666 374.03L129.602 374.373Z" fill="white"/>
<path d="M129.666 374.012C129.666 374.14 129.621 374.244 129.602 374.354C128.848 377.616 127.685 380.725 125.129 383.534C123.09 385.848 120.26 387.818 117.627 389.826C117.456 389.988 117.272 390.137 117.077 390.272L116.547 390.719C116.558 390.692 116.558 390.661 116.547 390.633C116.547 390.548 116.502 390.487 116.483 390.425C116.473 390.356 116.473 390.286 116.483 390.217V390.174C116.483 390.113 116.483 390.052 116.438 389.966C116.448 389.924 116.448 389.88 116.438 389.838C116.448 389.818 116.453 389.796 116.453 389.774C116.453 389.752 116.448 389.73 116.438 389.709C116.422 389.596 116.398 389.484 116.368 389.373C116.26 388.865 116.106 388.375 115.946 387.867C115.838 387.549 115.729 387.212 115.595 386.894C115.486 386.604 115.361 386.32 115.218 386.043C115.121 385.767 114.988 385.504 114.822 385.26C114.706 385.005 114.574 384.758 114.426 384.52C112.764 381.79 110.221 379.477 107.722 377.176C107.454 376.9 107.167 376.625 106.905 376.386C106.643 376.147 106.349 375.878 106.087 375.627L104.496 374.036C103.737 373.243 103.027 372.41 102.368 371.539C102.368 371.539 103.92 347.059 116.988 339.66C129.27 332.616 129.666 369.881 129.666 374.012Z" fill="white"/>
<path d="M129.602 374.373C129.602 374.262 129.64 374.158 129.666 374.03L129.602 374.373Z" fill="white"/>
<path d="M116.547 390.658V390.768C116.555 390.726 116.555 390.682 116.547 390.64C116.547 390.597 116.547 390.56 116.547 390.474C116.537 390.405 116.537 390.335 116.547 390.266C116.538 390.397 116.538 390.528 116.547 390.658Z" fill="white"/>
<path d="M160.792 350.474C137.232 374.758 126.152 425.952 121.845 452.384C121.493 454.612 121.174 456.668 120.899 458.504" fill="white"/>
<path d="M162.945 473.376L152.082 534.625C151.824 536.301 150.955 537.835 149.628 538.955C148.302 540.075 146.604 540.709 144.836 540.745H88.2457C86.4581 540.708 84.7433 540.06 83.4117 538.917C82.0802 537.774 81.2199 536.213 80.9867 534.515L70.9863 473.364L162.945 473.376Z" fill="white"/>
<path d="M173.265 466.54C173.166 468.355 172.355 470.067 170.995 471.334C169.635 472.601 167.826 473.331 165.929 473.376H68.2133C66.3348 473.332 64.5411 472.618 63.1848 471.372C61.8286 470.126 61.0079 468.44 60.884 466.644C60.4687 462.274 63.8681 458.498 68.2133 458.498H165.929C170.223 458.504 173.61 462.213 173.265 466.54Z" fill="white"/>
<path d="M116.618 390.786C116.616 390.649 116.592 390.513 116.547 390.383L116.618 390.786Z" fill="white"/>
<path d="M68.1938 333.167C90.8081 361.319 101.422 420.609 105.607 451.228C105.965 453.884 106.285 456.313 106.534 458.492" fill="white"/>
<path d="M118.605 363.057C115.774 371.404 115.64 379.838 115.972 385.174C116.066 386.899 116.258 388.617 116.547 390.321" fill="white"/>
<path d="M116.573 390.744C116.581 390.701 116.581 390.658 116.573 390.615C116.573 390.572 116.573 390.536 116.573 390.45C116.562 390.381 116.562 390.311 116.573 390.242C116.588 390.391 116.616 390.538 116.656 390.682C116.647 390.698 116.635 390.711 116.621 390.722C116.607 390.732 116.59 390.74 116.573 390.744Z" stroke="#CCDDE2" stroke-width="4.82" stroke-miterlimit="10"/>
<path d="M116.816 431.417C115.801 434.548 114.505 437.588 112.943 440.505C112.503 441.332 112.062 442.133 111.576 442.953C109.919 445.937 107.883 448.712 105.512 451.215C105.09 451.087 104.675 450.922 104.298 450.769C104.208 450.769 104.144 450.707 104.074 450.689C96.4061 447.488 90.6551 441.509 88.949 434.777C87.4218 428.847 88.7892 422.427 85.8498 416.852C82.2459 409.991 72.4692 405.689 71.2551 397.941C70.1496 390.695 76.9614 384.042 75.8559 376.943C74.5779 368.92 64.2836 364.152 62.3858 356.313C61.1653 351.417 62.2516 345.829 61.8107 340.804C61.3028 335.193 60.3111 329.631 58.8457 324.176C59.555 324.134 60.2579 324.115 60.9672 324.097C75.4533 323.858 89.7222 331.655 94.4124 342.61C98.1889 351.466 96.2655 361.692 101.288 369.997C101.589 370.535 101.928 371.053 102.304 371.545C102.963 372.416 103.673 373.249 104.432 374.042L106.023 375.633C106.285 375.884 106.573 376.117 106.841 376.392C107.109 376.668 107.391 376.906 107.659 377.182C110.157 379.465 112.701 381.778 114.362 384.526C114.51 384.764 114.643 385.012 114.758 385.266C114.912 385.517 115.044 385.779 115.154 386.05C115.297 386.326 115.423 386.61 115.531 386.9C115.666 387.219 115.774 387.555 115.883 387.873C116.043 388.381 116.196 388.871 116.305 389.379C116.305 389.507 116.305 389.611 116.349 389.716C116.394 389.82 116.349 389.801 116.349 389.844C116.359 389.886 116.359 389.93 116.349 389.973C116.349 390.058 116.349 390.119 116.394 390.181V390.223C116.397 390.303 116.412 390.381 116.439 390.456C116.439 390.542 116.439 390.578 116.439 390.621C116.447 390.664 116.447 390.707 116.439 390.75V390.793L114.733 414.434C115.819 420.144 118.541 425.848 116.816 431.417Z" stroke="#CCDDE2" stroke-width="4.82" stroke-miterlimit="10"/>
<path d="M129.666 374.03C130.772 368.901 130.861 363.522 133.379 358.626C138.069 349.605 151.782 343.057 166.14 342.634H166.402C167.68 342.634 169.035 342.634 170.364 342.702C168.879 347.393 167.863 352.208 167.329 357.084C166.843 361.423 167.968 366.264 166.734 370.45C164.722 377.225 153.993 381.337 152.676 388.265C151.526 394.385 158.626 400.15 157.456 406.399C156.178 413.088 146.018 416.803 142.261 422.727C139.232 427.537 140.644 433.063 139.066 438.174C137.232 443.994 131.219 449.19 123.231 451.919C122.727 452.09 122.26 452.256 121.749 452.403C121.48 452.47 121.174 452.574 120.905 452.641C120.816 452.574 120.733 452.488 120.618 452.403C118.062 450.303 115.174 446.766 112.784 442.978L112.963 440.567C114.524 437.65 115.82 434.609 116.835 431.478C118.56 425.909 115.838 420.205 114.841 414.489L116.547 390.848L117.078 390.425C117.271 390.288 117.454 390.139 117.627 389.979C120.26 387.947 123.091 386.001 125.129 383.687C127.647 380.848 128.823 377.739 129.602 374.507" stroke="#CCDDE2" stroke-width="4.82" stroke-miterlimit="10"/>
<path d="M129.602 374.373C129.602 374.262 129.64 374.158 129.666 374.03" stroke="#CCDDE2" stroke-width="4.82" stroke-miterlimit="10"/>
<path d="M129.666 374.012C129.666 374.14 129.621 374.244 129.602 374.354C128.848 377.616 127.685 380.725 125.129 383.534C123.09 385.848 120.26 387.818 117.627 389.826C117.456 389.988 117.272 390.137 117.077 390.272L116.547 390.719C116.558 390.692 116.558 390.661 116.547 390.633C116.547 390.548 116.502 390.487 116.483 390.425C116.473 390.356 116.473 390.286 116.483 390.217V390.174C116.483 390.113 116.483 390.052 116.438 389.966C116.448 389.924 116.448 389.88 116.438 389.838C116.448 389.818 116.453 389.796 116.453 389.774C116.453 389.752 116.448 389.73 116.438 389.709C116.422 389.596 116.398 389.484 116.368 389.373C116.26 388.865 116.106 388.375 115.946 387.867C115.838 387.549 115.729 387.212 115.595 386.894C115.486 386.604 115.361 386.32 115.218 386.043C115.121 385.767 114.988 385.504 114.822 385.26C114.706 385.005 114.574 384.758 114.426 384.52C112.764 381.79 110.221 379.477 107.722 377.176C107.454 376.9 107.167 376.625 106.905 376.386C106.643 376.147 106.349 375.878 106.087 375.627L104.496 374.036C103.737 373.243 103.027 372.41 102.368 371.539C102.368 371.539 103.92 347.059 116.988 339.66C129.27 332.616 129.666 369.881 129.666 374.012Z" stroke="#CCDDE2" stroke-width="4.82" stroke-miterlimit="10"/>
<path d="M129.602 374.373C129.602 374.262 129.64 374.158 129.666 374.03" stroke="#CCDDE2" stroke-width="4.82" stroke-miterlimit="10"/>
<path d="M116.547 390.658V390.768C116.555 390.726 116.555 390.682 116.547 390.64C116.547 390.597 116.547 390.56 116.547 390.474C116.537 390.405 116.537 390.335 116.547 390.266C116.538 390.397 116.538 390.528 116.547 390.658Z" stroke="#CCDDE2" stroke-width="4.82" stroke-miterlimit="10"/>
<path d="M160.792 350.474C137.232 374.758 126.152 425.952 121.845 452.384C121.493 454.612 121.174 456.668 120.899 458.504" stroke="#CCDDE2" stroke-width="4.82" stroke-miterlimit="10"/>
<path d="M162.945 473.376L152.082 534.625C151.824 536.301 150.955 537.835 149.628 538.955C148.302 540.075 146.604 540.709 144.836 540.745H88.2457C86.4581 540.708 84.7433 540.06 83.4117 538.917C82.0802 537.774 81.2199 536.213 80.9867 534.515L70.9863 473.364L162.945 473.376Z" stroke="#CCDDE2" stroke-width="4.82" stroke-miterlimit="10"/>
<path d="M173.265 466.54C173.166 468.355 172.355 470.067 170.995 471.334C169.635 472.601 167.826 473.331 165.929 473.376H68.2133C66.3348 473.332 64.5411 472.618 63.1848 471.372C61.8286 470.126 61.0079 468.44 60.884 466.644C60.4687 462.274 63.8681 458.498 68.2133 458.498H165.929C170.223 458.504 173.61 462.213 173.265 466.54Z" stroke="#CCDDE2" stroke-width="4.82" stroke-miterlimit="10"/>
<path d="M116.618 390.786C116.616 390.649 116.592 390.513 116.547 390.383L116.618 390.786Z" stroke="#CCDDE2" stroke-width="4.82" stroke-miterlimit="10"/>
<path d="M68.1938 333.167C90.8081 361.319 101.422 420.609 105.607 451.228C105.965 453.884 106.285 456.313 106.534 458.492" stroke="#CCDDE2" stroke-width="4.82" stroke-miterlimit="10"/>
<path d="M118.605 363.057C115.774 371.404 115.64 379.838 115.972 385.174C116.066 386.899 116.258 388.617 116.547 390.321" stroke="#CCDDE2" stroke-width="4.82" stroke-miterlimit="10"/>
<path d="M486.413 309.825C484.897 310.335 483.393 310.865 481.902 311.416L480.681 311.863C477.148 313.13 473.652 314.464 470.317 315.865C469.16 316.331 468.023 316.796 466.892 317.304C465.971 317.689 465.071 318.069 464.17 318.473L463.741 318.662C462.546 319.189 461.345 319.721 460.169 320.272C458.994 320.823 457.613 321.435 456.399 322.053C455.76 322.328 455.179 322.622 454.578 322.916C453.422 323.466 452.291 324.042 451.153 324.611C450.834 324.782 450.514 324.929 450.207 325.101C449.057 325.713 447.901 326.288 446.763 326.9C445.824 327.389 444.923 327.873 444.003 328.381C411.44 346.167 383.712 371.052 363.067 401.019C316.906 467.427 314.79 540.677 314.701 547.165L314.599 546.969C309.071 512.593 300.617 482.807 289.997 457.005L290.828 454.379L289.377 455.457C289.377 455.457 289.377 455.457 289.377 455.414C291.454 411.735 300.381 375.242 313.187 344.733L314.388 344.991C314.151 344.519 313.915 344.036 313.679 343.571C336.044 291.079 369.968 256.667 400.071 234.812C435.549 209.108 465.805 200.773 465.805 200.773C481.959 219.904 485.64 278.35 486.413 309.825Z" stroke="#CCDDE2" stroke-width="4.82" stroke-miterlimit="10"/>
<path d="M488.567 535.782C483.857 534.876 479.231 533.799 474.719 532.532C456.188 527.348 434.635 518.486 427.267 499.863C425.419 495.053 424.837 489.88 425.571 484.802C426.305 479.725 428.334 474.899 431.478 470.75C434.817 466.327 439.505 463.002 444.897 461.234C456.623 457.605 469.595 463.26 478.291 471.638C486.988 480.016 492.586 490.775 499.378 500.61C493.225 487.397 486.969 473.81 486.119 459.361C485.48 448.1 488.675 435.897 496.765 427.433C504.222 419.648 521.686 413.547 531.948 419.269C538.728 423.045 541.425 431.074 542.594 438.498C545.789 458.81 541.687 479.453 537.603 499.618C540.345 488.835 543.291 477.954 548.869 468.229C554.447 458.504 563.016 449.906 573.975 446.307C581.643 443.786 590.768 444.061 597.203 448.804C603.203 453.235 605.881 460.714 606.705 467.923C608.085 480.01 605.114 492.274 600.002 503.419C580.928 544.937 528.05 543.364 488.567 535.782Z" fill="white"/>
<path d="M531.59 515.224C531.59 515.224 560.984 523.046 571.362 483.915L531.59 515.224Z" fill="white"/>
<path d="M518.51 448.431C510.337 466.179 518.51 519.423 518.51 519.423V448.431Z" fill="white"/>
<path d="M491.27 514.019C490.043 513.817 478.253 512.238 468.202 507.813C460.419 504.386 453.671 499.245 453.671 491.742" fill="white"/>
<path d="M470.566 491.742C470.566 491.742 459.064 504.594 468.202 507.813L470.566 491.742Z" fill="white"/>
<path d="M462.937 519.49C464.572 517.311 473.077 521.681 478.63 511.406L462.937 519.49Z" fill="white"/>
<path d="M514.881 471.913C511.973 469.826 504.344 471.913 503.257 455.212L514.881 471.913Z" fill="white"/>
<path d="M516.146 487.568C516.146 487.568 528.862 483.174 528.862 473.633L516.146 487.568Z" fill="white"/>
<path d="M543.482 515.451C543.482 515.451 550.115 499.049 552.837 491.742L543.482 515.451Z" fill="white"/>
<path d="M564.077 499.778C564.077 499.778 571.362 505.286 580.052 496.442L564.077 499.778Z" fill="white"/>
<path d="M564.077 491.742C564.077 491.742 559.374 489.79 561.521 478.504L564.077 491.742Z" fill="white"/>
<path d="M488.567 535.782C483.806 535.17 479.231 533.799 474.719 532.532C456.188 527.348 434.635 518.486 427.267 499.863C425.419 495.053 424.837 489.88 425.571 484.802C426.305 479.725 428.334 474.899 431.478 470.75C434.817 466.327 439.505 463.002 444.897 461.234C456.623 457.605 469.595 463.26 478.291 471.638C486.988 480.016 492.586 490.775 499.378 500.61C493.225 487.397 486.969 473.81 486.119 459.361C485.48 448.1 488.675 435.897 496.765 427.433C504.222 419.648 521.686 413.547 531.948 419.269C538.728 423.045 541.425 431.074 542.594 438.498C545.789 458.81 541.687 479.453 537.603 499.618C540.345 488.835 543.291 477.954 548.869 468.229C554.447 458.504 563.016 449.906 573.975 446.307C581.643 443.786 590.768 444.061 597.203 448.804C603.203 453.235 605.881 460.714 606.705 467.923C608.085 480.01 605.299 492.354 600.002 503.419C580.621 543.842 527.328 540.788 488.567 535.782Z" stroke="#CCDDE2" stroke-width="4.82" stroke-miterlimit="10"/>
<path d="M531.59 515.224C531.59 515.224 560.984 523.046 571.362 483.915" stroke="#CCDDE2" stroke-width="4.82" stroke-miterlimit="10"/>
<path d="M518.51 448.431C510.337 466.179 518.51 519.423 518.51 519.423" stroke="#CCDDE2" stroke-width="4.82" stroke-miterlimit="10"/>
<path d="M491.27 514.019C490.043 513.817 478.253 512.238 468.202 507.813C460.419 504.386 453.671 499.245 453.671 491.742" stroke="#CCDDE2" stroke-width="4.82" stroke-miterlimit="10"/>
<path d="M470.566 491.742C470.566 491.742 459.064 504.594 468.202 507.813" stroke="#CCDDE2" stroke-width="4.82" stroke-miterlimit="10"/>
<path d="M462.937 519.49C464.572 517.311 473.077 521.681 478.63 511.406" stroke="#CCDDE2" stroke-width="4.82" stroke-miterlimit="10"/>
<path d="M514.881 471.913C511.973 469.826 504.344 471.913 503.257 455.212" stroke="#CCDDE2" stroke-width="4.82" stroke-miterlimit="10"/>
<path d="M516.146 487.568C516.146 487.568 528.862 483.174 528.862 473.633" stroke="#CCDDE2" stroke-width="4.82" stroke-miterlimit="10"/>
<path d="M543.482 515.451C543.482 515.451 550.115 499.049 552.837 491.742" stroke="#CCDDE2" stroke-width="4.82" stroke-miterlimit="10"/>
<path d="M564.077 499.778C564.077 499.778 571.362 505.286 580.052 496.442" stroke="#CCDDE2" stroke-width="4.82" stroke-miterlimit="10"/>
<path d="M564.077 491.742C564.077 491.742 559.374 489.79 561.521 478.504" stroke="#CCDDE2" stroke-width="4.82" stroke-miterlimit="10"/>
<path d="M505.603 460.175C507.229 455.006 507.562 449.542 506.574 444.226C506.043 441.166 504.542 432.831 499.896 434.122C498.548 434.483 497.749 435.585 497.244 436.833C497.839 434.079 493.679 432.341 491.647 432.09C486.496 431.393 482.733 434.863 480.279 439.098C474.905 448.4 460.617 452.892 450.661 452.911C436.661 452.911 428.296 442.507 425.894 429.043C419.504 393.436 417.798 307.665 350.824 284.152C347.145 282.848 343.385 281.764 339.565 280.908V281.012C339.52 281.012 339.475 281.012 339.431 280.865C339.402 280.783 339.38 280.699 339.367 280.614C341.484 280.314 343.582 279.895 345.648 279.36C348.325 278.705 351.086 277.94 353.035 276.3C355.38 274.353 356.172 271.495 356.37 268.76C356.37 268.337 356.415 267.891 356.415 267.468C356.437 267.124 356.437 266.779 356.415 266.434C356.415 265.945 356.415 265.455 356.415 264.947C356.415 264.568 356.415 264.164 356.415 263.784L359.674 253.821C360.869 251.593 362.058 249.359 362.582 246.985C362.801 246.029 362.897 245.05 362.869 244.072C362.869 243.864 362.869 243.649 362.869 243.417C362.626 239.286 360.524 235.198 357.585 231.789C357.047 227.268 356.122 222.798 354.818 218.423C350.703 204.102 342.479 188.533 326.421 184.212C314.561 181.036 300.739 181.225 289.084 185.485C289.074 185.489 289.063 185.491 289.052 185.491C289.041 185.491 289.03 185.489 289.02 185.485C288.262 185.701 287.529 185.992 286.835 186.354C283.032 188.325 281.723 192.835 281.927 197.792C281.926 198.069 281.947 198.345 281.991 198.618C281.991 198.98 282.036 199.359 282.1 199.72C282.675 204.573 284.579 209.567 286.969 212.792C286.86 213.043 286.745 213.276 286.656 213.533C285.646 215.755 284.338 217.841 282.764 219.739C279.25 224.023 274.495 227.15 271.064 231.434C267.633 235.718 265.626 241.299 266.533 246.66C267.415 251.85 270.821 256.385 271.594 261.55C272.323 266.275 270.955 271.679 273.965 275.473C275.818 277.781 278.892 278.839 281.838 279.641C283.116 279.984 284.394 280.253 285.672 280.535C285.512 280.975 285.467 281 285.378 281.018C281.71 281.844 278.1 282.884 274.566 284.133L274.035 284.323C207.611 308.124 205.867 393.516 199.515 429.012C197.132 442.476 188.748 452.88 174.747 452.88C164.792 452.88 150.504 448.37 145.13 439.067C142.651 434.832 138.919 431.362 133.762 432.06C131.749 432.335 127.813 433.945 128.19 436.57C128.181 436.668 128.181 436.766 128.19 436.864V436.968C128.19 436.968 128.19 437.035 128.19 437.054V437.121C127.704 435.762 126.912 434.557 125.468 434.153C120.822 432.861 119.321 441.185 118.79 444.257C117.802 449.572 118.135 455.036 119.762 460.206C121.909 467.048 126.394 473.449 133.053 476.222C138.55 478.382 144.294 479.914 150.165 480.787C141.321 489.031 135.59 499.729 135.858 513.413C136.056 521.981 141.456 527.966 149.878 531.969C160.67 537.134 176.422 539.062 192.435 539.209H192.524C190.701 539.539 188.921 540.059 187.214 540.757C185.249 541.542 183.399 542.571 181.713 543.817C181.112 544.266 180.537 544.731 179.987 545.212C179.698 545.453 179.423 545.708 179.163 545.977C178.639 546.485 178.128 547.018 177.642 547.569C176.7 548.656 175.846 549.81 175.086 551.02C174.709 551.632 174.358 552.244 174.051 552.856C173.744 553.468 173.45 554.154 173.182 554.784C172.768 555.752 172.437 556.751 172.191 557.771C172.013 558.432 171.859 559.086 171.725 559.766C170.575 566.29 172.147 573.028 176.965 577.875C177.843 578.75 178.799 579.551 179.821 580.268C180.352 580.629 180.907 580.972 181.476 581.308C182.681 581.987 183.947 582.561 185.259 583.022C186.701 583.537 188.181 583.946 189.687 584.246C200.282 586.296 208.704 579.711 218.263 576.902C223.714 575.358 229.388 574.664 235.069 574.845C238.772 574.953 242.464 575.302 246.117 575.892C286.232 582.177 326.938 584.295 367.527 582.208C394.953 580.763 422.929 577.465 448.962 568.67C468.553 562.049 490.113 550.414 499.762 532.44C503.185 526.112 504.955 519.083 504.919 511.956C504.919 496.981 498.529 485.818 488.573 477.58C489.851 477.134 491.091 476.687 492.311 476.179C498.97 473.419 503.456 467.017 505.603 460.175Z" fill="white"/>
<path d="M235.05 574.87C229.365 574.684 223.686 575.376 218.231 576.92C208.678 579.729 200.25 586.32 189.649 584.264C162.051 578.934 167.808 543.695 192.544 539.203H192.582C194.953 539.154 197.323 539.135 199.675 539.135H199.828C211.222 539.135 222.321 539.423 231.433 536.412C230.551 537.159 208.365 556.02 235.05 574.87Z" fill="#918BFF"/>
<path d="M350.811 284.078C350.811 284.078 350.811 284.127 350.811 284.145C354.106 293.91 358.136 303.433 362.869 312.64L362.926 312.744" stroke="black" stroke-width="4.82" stroke-miterlimit="10"/>
<path d="M383.969 454.355C353.182 459.055 323.321 466.258 291.915 462.427C274.904 460.328 258.227 456.154 241.434 452.892C251.894 436.772 255.945 416.013 254.309 397.947C253.249 386.08 247.562 374.599 247.849 362.781C248.047 354.776 249.594 346.808 251.741 339.097C254.268 330.015 257.7 321.186 261.99 312.732C261.99 312.695 262.035 312.671 262.054 312.628C266.792 303.427 270.828 293.91 274.131 284.152C277.8 282.843 281.552 281.76 285.365 280.908L286.004 285.333C287.576 295.737 291.269 310.755 302.618 315.67C304.969 316.656 307.508 317.167 310.075 317.169C315.136 317.659 321.909 315.67 321.909 315.67C333.252 310.774 336.926 295.755 338.523 285.333L339.162 280.908C342.974 281.753 346.726 282.829 350.396 284.127C353.699 293.89 357.735 303.411 362.473 312.616C362.498 312.646 362.513 312.682 362.518 312.72C366.799 321.17 370.222 329.995 372.742 339.072C375.023 346.79 376.332 354.741 376.64 362.757C376.927 374.575 371.266 386.056 370.179 397.922C368.441 416.564 372.799 438.045 383.969 454.355Z" fill="black"/>
<path d="M488.554 477.568C498.51 485.806 504.9 496.968 504.919 511.969C504.948 519.092 503.177 526.115 499.756 532.44C490.12 550.396 468.56 562.012 448.936 568.652C422.897 577.446 394.934 580.739 367.495 582.189C326.917 584.284 286.222 582.172 246.117 575.892C242.453 575.305 238.751 574.961 235.037 574.864C229.355 574.681 223.678 575.373 218.225 576.914C208.672 579.723 200.244 586.314 189.643 584.258C162.044 578.928 167.802 543.689 192.537 539.196" stroke="black" stroke-width="4.82" stroke-miterlimit="10"/>
<path d="M423.484 522.109C415.305 540.035 395.062 533.897 372.818 521.002C359.022 512.997 347.258 511.852 340.306 512.122C350.102 511.283 358.671 508.388 361.073 497.782C363.022 489.153 357.948 481.258 349.175 478.713C370.262 477.825 391.918 479.325 409.088 492.048C409.088 492.048 431.683 504.172 423.484 522.109Z" fill="#918BFF"/>
<path d="M301.972 271.116C301.708 273.022 300.998 274.846 299.895 276.453C298.125 278.784 295.224 280.094 292.266 280.498C290.433 280.253 288.62 279.885 286.841 279.396C283.882 278.589 280.828 277.53 278.968 275.223C275.939 271.41 277.332 266.006 276.604 261.287C275.805 256.134 272.399 251.581 271.536 246.416C270.61 241.055 272.623 235.485 276.048 231.183C279.013 227.511 282.93 224.659 286.182 221.25C286.182 221.691 286.138 222.162 286.112 222.627C284.936 223.93 284.049 225.448 283.507 227.09C282.964 228.731 282.777 230.462 282.956 232.175C283.136 233.888 283.678 235.549 284.55 237.054C285.422 238.56 286.606 239.88 288.029 240.932C289.269 245.993 292.432 256.985 300.33 263.509C301.006 264.403 301.52 265.401 301.851 266.459C302.235 267.985 302.277 269.573 301.972 271.116Z" fill="#918BFF"/>
<path d="M362.639 246.722C361.604 251.44 357.885 255.571 356.843 260.296C356.268 262.989 356.537 265.761 356.358 268.497C356.267 270.267 355.809 272.002 355.009 273.601C354.498 274.52 353.826 275.348 353.022 276.049C351.073 277.683 348.306 278.466 345.635 279.109C341.539 280.106 337.271 280.945 333.028 280.571C328.184 280.125 323.296 277.181 321.526 272.713C320.133 269.219 321.238 266.483 323.098 263.962V263.919C325.129 262.455 326.99 260.787 328.651 258.943C336.319 240.626 339.82 245.767 340.747 239.812C344.261 237.523 341.61 233.374 341.61 229.01C341.61 225.895 341.418 224.249 339.494 222.046L343.488 221.152C341.852 219.286 342.939 219.928 340.415 219.212L339.494 219.31C338.121 219.518 340.811 218.741 339.162 219.004C307.084 224.102 300.944 189.181 299.857 183.741C298.886 184.732 295.288 184.139 294.515 185.24C294.183 185.711 297.71 191.434 297.416 191.917C297.333 191.556 297.263 191.244 297.218 190.987C296.264 191.963 295.392 193.011 294.611 194.12C292.025 197.659 290.081 201.59 288.86 205.748C288.815 205.871 288.79 206.018 288.745 206.146C288.289 208.301 287.706 210.43 287.001 212.523C284.125 208.649 281.889 202.168 281.889 196.464C281.889 191.954 283.282 187.896 286.815 186.06C286.916 186.005 287.021 185.956 287.128 185.913C287.733 185.624 288.362 185.383 289.007 185.191C289.007 185.191 289.052 185.191 289.077 185.191C300.733 180.907 314.574 180.724 326.408 183.9C342.485 188.221 350.69 203.814 354.83 218.129C356.126 222.506 357.051 226.976 357.597 231.495C361.425 235.914 363.789 241.403 362.639 246.722Z" fill="#918BFF"/>
<path d="M221.906 488.192L254.718 485.689C279.771 483.784 304.829 481.877 329.89 479.967C336.159 479.502 342.67 478.976 349.169 478.706C370.256 477.819 391.912 479.318 409.082 492.042C409.082 492.042 431.677 504.166 423.478 522.103C415.28 540.041 395.056 533.89 372.812 520.996C359.016 512.991 347.252 511.846 340.3 512.115H340.229C339.475 512.152 338.753 512.201 338.127 512.268C336.616 512.377 335.119 512.619 333.654 512.991C308.132 520.69 268.617 531.387 231.484 536.393C221 537.873 210.438 538.788 199.847 539.135H199.694C197.285 539.221 194.914 539.239 192.563 539.203H192.48C176.447 539.068 160.702 537.134 149.903 531.975C141.481 527.954 136.088 521.987 135.896 513.413C135.634 499.71 141.353 489.019 150.223 480.763" stroke="black" stroke-width="4.82" stroke-miterlimit="10"/>
<path d="M488.464 446.68C492.739 444.789 497.755 438.657 497.174 436.185" stroke="black" stroke-width="4.82" stroke-miterlimit="10"/>
<path d="M458.201 472.384C464.649 473.749 461.69 460.193 468.547 459.086C468.547 459.086 471.32 458.676 471.876 460.922C472.259 462.458 471.742 464.337 471.428 465.818C471.141 467.182 470.917 468.878 470.31 470.102C470.877 468.732 471.355 467.33 471.742 465.903C472.159 464.407 472.458 462.883 472.636 461.344C473.026 458.896 473.307 456.258 474.266 454C474.78 452.599 475.843 451.444 477.231 450.781C480.259 449.557 482.189 452.617 482.451 455.273C482.492 455.569 482.505 455.868 482.49 456.166C482.49 456.57 482.451 456.95 482.419 457.329C482.125 461.974 481.608 467.794 478.892 471.436C481.608 467.764 482.164 462.14 482.413 457.476C482.541 454.979 482.515 452.396 483.474 450.132C483.834 449.222 484.401 448.4 485.135 447.727C485.85 447.076 486.794 446.705 487.78 446.687C488.537 446.752 489.264 447.002 489.89 447.414C490.517 447.825 491.023 448.384 491.359 449.037C492.064 450.394 492.444 451.884 492.471 453.4C492.886 460.046 491.263 466.668 486.132 471.093" stroke="black" stroke-width="4.82" stroke-miterlimit="10"/>
<path d="M362.882 312.634C367.202 321.116 370.65 329.981 373.176 339.103C375.336 346.814 376.876 354.77 377.074 362.775C377.362 374.599 371.687 386.08 370.607 397.953C367.885 428.045 380.934 465.573 413.088 476.821C425.759 481.258 439.415 482.905 452.866 482.599C465.646 482.311 480.483 481.075 492.311 476.185C498.97 473.419 503.455 467.005 505.615 460.175C507.231 455.002 507.566 449.539 506.593 444.22C506.043 441.16 504.555 432.831 499.896 434.122C498.35 434.538 497.538 435.921 497.059 437.396C496.101 440.456 496.599 443.675 496.49 446.821C496.369 451.228 495.698 459.832 491.481 462.776" stroke="black" stroke-width="4.82" stroke-miterlimit="10"/>
<path d="M285.844 280.908L286.483 285.333C288.067 295.737 291.748 310.749 303.097 315.663C305.441 316.659 307.977 317.174 310.541 317.175C315.615 317.665 322.375 315.663 322.375 315.663C333.718 310.767 337.398 295.755 338.989 285.333L339.628 280.908" stroke="black" stroke-width="4.82" stroke-miterlimit="10"/>
<path d="M274.604 284.078C274.604 284.078 274.604 284.127 274.604 284.145C271.309 293.911 267.277 303.435 262.539 312.64L262.488 312.744" stroke="black" stroke-width="4.82" stroke-miterlimit="10"/>
<path d="M128.356 437.396L128.254 437.078C128.232 437.036 128.219 436.99 128.215 436.944C128.215 436.944 128.215 436.913 128.215 436.895C127.531 434.104 131.691 432.354 133.762 432.084C138.874 431.381 142.663 434.857 145.123 439.098C150.491 448.394 164.785 452.886 174.741 452.898C188.748 452.898 197.138 442.494 199.528 429.03C205.879 393.418 207.617 307.652 274.591 284.133C278.27 282.84 282.028 281.763 285.844 280.908L286.86 280.688" stroke="black" stroke-width="4.82" stroke-miterlimit="10"/>
<path d="M338.581 280.73C338.913 280.779 339.22 280.865 339.565 280.932C343.378 281.784 347.134 282.857 350.811 284.145C417.785 307.665 419.523 393.43 425.874 429.043C428.264 442.507 436.654 452.911 450.668 452.911C460.617 452.911 474.911 448.406 480.279 439.11C482.739 434.869 486.496 431.393 491.64 432.096C493.813 432.384 498.382 434.336 497.046 437.409" stroke="black" stroke-width="4.82" stroke-miterlimit="10"/>
<path d="M136.944 446.68C132.669 444.789 127.653 438.657 128.235 436.185" stroke="black" stroke-width="4.82" stroke-miterlimit="10"/>
<path d="M167.207 472.384C160.753 473.749 163.712 460.193 156.855 459.086C156.855 459.086 154.082 458.676 153.526 460.922C153.149 462.458 153.66 464.337 153.98 465.818C154.267 467.182 154.491 468.878 155.092 470.102C154.527 468.732 154.051 467.33 153.667 465.903C153.247 464.408 152.948 462.884 152.772 461.344C152.382 458.896 152.095 456.258 151.136 454C150.627 452.598 149.565 451.443 148.178 450.781C145.149 449.557 143.219 452.617 142.951 455.273C142.915 455.569 142.904 455.868 142.919 456.166C142.919 456.57 142.951 456.95 142.989 457.329C143.277 461.974 143.801 467.794 146.51 471.436C143.801 467.764 143.238 462.14 142.996 457.476C142.861 454.979 142.893 452.396 141.928 450.132C141.573 449.221 141.007 448.399 140.273 447.727C139.555 447.077 138.61 446.706 137.622 446.687C136.866 446.752 136.14 447.003 135.515 447.414C134.889 447.826 134.385 448.385 134.05 449.037C133.341 450.393 132.961 451.884 132.938 453.4C132.522 460.046 134.139 466.668 139.27 471.093" stroke="black" stroke-width="4.82" stroke-miterlimit="10"/>
<path d="M262.527 312.634C258.206 321.115 254.76 329.98 252.239 339.103C250.073 346.814 248.539 354.77 248.341 362.775C248.053 374.599 253.728 386.08 254.801 397.953C257.53 428.045 244.475 465.573 212.32 476.821C199.649 481.258 185.994 482.905 172.549 482.599C159.769 482.311 144.931 481.075 133.104 476.185C126.439 473.419 121.959 467.005 119.793 460.175C118.193 454.998 117.871 449.536 118.854 444.22C119.403 441.16 120.892 432.831 125.551 434.122C127.091 434.538 127.908 435.921 128.388 437.396C129.34 440.456 128.848 443.675 128.95 446.821C129.078 451.228 129.749 459.832 133.966 462.776" stroke="black" stroke-width="4.82" stroke-miterlimit="10"/>
<path d="M297.435 191.024C296.41 192.075 295.47 193.201 294.624 194.39C291.936 198.038 289.946 202.114 288.745 206.428C288.289 208.582 287.702 210.709 286.988 212.799C286.885 213.049 286.777 213.288 286.675 213.539C285.669 215.764 284.365 217.855 282.796 219.757C279.281 223.998 274.527 227.156 271.083 231.446C267.639 235.736 265.639 241.312 266.552 246.679C267.434 251.856 270.84 256.397 271.626 261.557C272.348 266.281 270.987 271.679 273.997 275.48C275.844 277.799 278.911 278.858 281.863 279.647C285.007 280.492 288.253 281.147 291.486 280.871C294.72 280.596 297.979 279.243 299.889 276.716C301.003 275.119 301.714 273.296 301.966 271.391C302.265 269.852 302.222 268.269 301.838 266.746C301.199 264.543 299.525 262.762 298.004 260.963C293.319 255.157 289.974 248.465 288.189 241.33" stroke="black" stroke-width="4.82" stroke-miterlimit="10"/>
<path d="M339.725 225.069C339.725 223.502 339.654 221.954 339.514 220.393" stroke="black" stroke-width="4.82" stroke-miterlimit="10"/>
<path d="M287.339 212.04C286.629 215.624 286.218 219.256 286.112 222.903" stroke="black" stroke-width="4.82" stroke-miterlimit="10"/>
<path d="M344.504 219.586C343.82 219.702 340.184 220.277 339.514 220.381C303.404 225.889 301.813 200.993 297.435 191.042C297.435 191.042 295.026 182.168 286.854 186.372C278.681 190.577 281.965 206.568 287.339 213.3" stroke="black" stroke-width="4.82" stroke-miterlimit="10"/>
<path d="M290.994 200.51V200.491" stroke="black" stroke-width="4.82" stroke-miterlimit="10"/>
<path d="M349.801 224.102L357.61 231.783" stroke="black" stroke-width="4.82" stroke-miterlimit="10"/>
<path d="M298.03 260.951C298.119 261.055 298.19 261.153 298.292 261.269C298.38 261.396 298.481 261.514 298.592 261.624C298.77 261.861 298.964 262.086 299.174 262.297C299.192 262.329 299.216 262.358 299.244 262.383C300.804 264.08 302.699 265.465 304.82 266.457C306.941 267.45 309.246 268.031 311.602 268.166C317.353 268.601 320.976 266.416 323.104 264.231" stroke="black" stroke-width="4.82" stroke-miterlimit="10"/>
<path d="M329.577 245.883C336.893 245.883 342.824 240.203 342.824 233.197C342.824 226.19 336.893 220.51 329.577 220.51C322.261 220.51 316.331 226.19 316.331 233.197C316.331 240.203 322.261 245.883 329.577 245.883Z" stroke="black" stroke-width="4.82" stroke-miterlimit="10"/>
<path d="M296.119 243.882C303.435 243.882 309.366 238.202 309.366 231.195C309.366 224.189 303.435 218.509 296.119 218.509C288.803 218.509 282.873 224.189 282.873 231.195C282.873 238.202 288.803 243.882 296.119 243.882Z" stroke="black" stroke-width="4.82" stroke-miterlimit="10"/>
<path d="M293.244 228.092C293.244 228.092 298.643 226.158 302.829 228.154" stroke="black" stroke-width="4.82" stroke-miterlimit="10"/>
<path d="M323.034 229.849C323.034 229.849 328.433 227.915 332.619 229.91" stroke="black" stroke-width="4.82" stroke-miterlimit="10"/>
<path d="M313.436 252.646C315.373 252.646 316.944 251.142 316.944 249.286C316.944 247.43 315.373 245.926 313.436 245.926C311.498 245.926 309.928 247.43 309.928 249.286C309.928 251.142 311.498 252.646 313.436 252.646Z" stroke="black" stroke-width="4.82" stroke-miterlimit="10"/>
<path d="M286.854 186.372C298.95 181.25 313.826 180.809 326.472 184.2C342.542 188.484 350.754 204.096 354.875 218.417C356.176 222.792 357.102 227.263 357.642 231.783C361.476 236.183 363.821 241.685 362.658 246.997C361.623 251.722 357.923 255.859 356.869 260.583C356.287 263.27 356.568 266.049 356.377 268.772C356.185 271.495 355.373 274.353 353.041 276.3C351.092 277.952 348.338 278.748 345.648 279.36C341.558 280.369 337.29 281.196 333.06 280.822C328.197 280.388 323.321 277.444 321.558 272.97C319.225 267.071 323.999 263.319 327.456 259.17C329.644 256.561 331.584 253.769 333.251 250.828C334.459 248.656 335.509 246.406 336.395 244.096" stroke="black" stroke-width="4.82" stroke-miterlimit="10"/>
<path d="M241.932 452.88C258.712 456.136 275.39 460.316 292.413 462.397C323.832 466.252 353.674 459.043 384.473 454.337" stroke="black" stroke-width="4.82" stroke-miterlimit="10"/>
<path d="M72.2451 540.757H187.22" stroke="black" stroke-width="4.82" stroke-miterlimit="10"/>
<path d="M496.676 538.633H595.65" stroke="black" stroke-width="4.82" stroke-miterlimit="10"/>
<path d="M566.077 393.883C571.949 398.731 577.192 404.235 581.694 410.279C589.961 421.109 594.636 434.069 595.113 447.476" stroke="#CCDDE2" stroke-width="4.82" stroke-miterlimit="10"/>
<path d="M361.227 172.1C373.061 165.277 385.381 159.248 398.493 154.964C431.184 144.248 467.633 146.641 493.532 170.111C515.986 190.448 526.6 220.632 528.766 249.567C528.766 249.99 528.836 250.436 528.855 250.883C529.852 265.798 529.034 282.254 528.919 298.736" stroke="#CCDDE2" stroke-width="4.82" stroke-miterlimit="10"/>
<path d="M103.518 297.799C106.483 279.69 102.834 262.658 100.885 244.017C95.8246 195.424 111.947 137.339 170.358 130.075C202.097 126.109 227.868 137.467 249.319 159.242C254.143 164.138 258.961 169.873 264.073 175.424" stroke="#CCDDE2" stroke-width="4.82" stroke-miterlimit="10"/>
<path d="M80.7314 458.198C80.7314 458.198 36.4998 439.532 40.8961 404.477C42.1741 394.587 47.0242 385.731 53.1713 377.604" stroke="#CCDDE2" stroke-width="4.82" stroke-miterlimit="10"/>
</g>
<defs>
<clipPath id="clip0_184_144">
<rect width="639" height="612" fill="white"/>
</clipPath>
</defs>
</svg>
