<svg width="473" height="514" viewBox="0 0 473 514" fill="none" xmlns="http://www.w3.org/2000/svg">
<path fill-rule="evenodd" clip-rule="evenodd" d="M186.912 108.525C201.839 106.592 217.273 111.586 232.464 114.491C276.412 122.896 320.324 113.84 364.542 116.256C386.424 117.452 410.322 122.474 425.684 138.579C436.374 149.787 441.375 165.592 438.675 179.642C433.578 206.168 405.638 220.065 384.522 236.923C344.226 269.093 324.453 319.753 316.865 370.873C315.206 382.052 314.033 393.447 310.104 403.92C300.973 428.263 277.253 445.135 250.678 451.041C224.104 456.947 195.067 452.862 168.131 443.738C135.117 432.554 104.332 413.803 79.2661 389.61C66.5638 377.35 55.1657 363.476 48.3365 347.758C41.5074 332.04 39.5914 314.276 45.6455 299.318C54.7621 276.794 79.3893 264.659 94.0579 245.321C100.585 236.716 105.056 226.78 109.398 216.886C115.842 202.207 122.108 187.445 128.194 172.604C133.93 158.618 139.595 144.404 148.741 132.387C157.887 120.369 171.063 110.577 186.912 108.525Z" fill="url(#paint0_linear_360_325)" stroke="url(#paint1_linear_360_325)"/>
<path fill-rule="evenodd" clip-rule="evenodd" d="M183.43 101.95C199.184 100.085 215.547 105.468 231.631 108.664C278.162 117.911 324.474 108.899 371.228 111.887C394.366 113.366 419.673 118.866 436.075 135.867C447.49 147.698 452.939 164.278 450.233 178.942C445.123 206.627 415.741 220.867 393.601 238.275C351.352 271.496 330.984 324.264 323.498 377.641C321.861 389.313 320.74 401.216 316.698 412.127C307.302 437.487 282.41 454.883 254.388 460.782C226.366 466.681 195.637 462.106 167.076 452.284C132.07 440.245 99.3414 420.316 72.5998 394.757C59.0483 381.805 46.8581 367.178 39.4772 350.67C32.0964 334.162 29.8864 315.566 36.1284 299.989C45.528 276.531 71.4274 264.098 86.7275 244.029C93.5358 235.099 98.1565 224.755 102.643 214.455C109.299 199.172 115.767 183.801 122.045 168.346C127.961 153.78 133.799 138.976 143.339 126.505C152.879 114.033 166.702 103.931 183.43 101.95Z" stroke="black" stroke-width="2"/>
<g clip-path="url(#clip0_360_325)">
<path d="M128.828 197.167L255.54 134.767L285.419 247.827L141.526 242.632L128.828 197.167Z" fill="#EBDBCD"/>
<path d="M217.761 165.766L212.862 202.147C212.805 202.606 213.049 203.079 213.48 203.266C214.902 203.883 218.22 205.189 221.941 205.376C224.943 205.534 230.273 204.73 233.347 203.797C233.907 203.61 234.28 202.993 234.065 202.434L219.801 165.493C219.427 164.46 217.904 164.646 217.761 165.766Z" fill="#110580"/>
<path d="M234.151 197.325C245.964 197.325 255.54 187.758 255.54 175.956C255.54 164.154 245.964 154.586 234.151 154.586C222.338 154.586 212.762 164.154 212.762 175.956C212.762 187.758 222.338 197.325 234.151 197.325Z" fill="#FCB58A"/>
<path d="M202.103 340.451H172.842V362.567H202.103V340.451Z" fill="#F8D7BC"/>
<path d="M169.955 338.758V340.451H202.132V362.567H169.955V364.246H293.693V338.758H169.955Z" fill="#4E53BA"/>
<path d="M157.687 325.684C158.405 330.204 159.296 334.696 160.388 339.159C162.284 347.024 174.393 343.68 172.512 335.816C171.42 331.352 170.558 326.86 169.811 322.34C169.279 318.996 165.099 317.13 162.097 317.948C158.491 318.967 157.156 322.34 157.687 325.684Z" fill="#E3996D"/>
<path d="M348.84 279.759L327.02 292.388L326.618 266.599L348.84 279.759Z" fill="#2B31BA"/>
<path d="M230.301 259.064C230.172 259.007 230.057 258.935 229.928 258.935C227.845 258.591 211.857 255.835 195.236 252.649C187.824 251.229 166.248 245.129 154.972 249.521C143.695 253.912 141.454 260.514 140.463 265.164C139.601 269.34 141.11 283.562 144.801 297.985C148.091 310.902 156.121 327.248 157.787 330.563C157.974 330.965 158.376 331.209 158.807 331.238C159.827 331.295 161.91 331.266 164.567 330.463C166.923 329.745 169.437 328.425 170.586 327.793C170.96 327.578 171.204 327.176 171.204 326.746C171.261 323.158 171.549 306.367 171.118 294.57C170.687 283.117 166.751 279.329 166.751 279.329C166.751 279.329 180.326 294.383 194.188 298.502C205.163 301.76 228.161 308.964 237.67 308.692C248.702 308.376 256.675 303.74 260.237 298.129C266.845 287.753 262.751 272.397 261.688 269.024C261.559 268.594 261.229 268.278 260.783 268.192C257.163 267.331 239.926 263.212 235.458 261.346C231.824 259.811 230.675 259.251 230.301 259.064Z" fill="#FF8A91"/>
<path d="M261.186 254.242C261.186 254.242 260.942 257.098 261.215 261.145C261.487 265.235 262.12 268.364 262.12 268.364C262.12 268.364 245.6 265.695 239.337 263.284C231.436 260.212 230.158 258.978 230.158 258.978C230.158 258.978 231.652 255.663 232.169 253.281C232.571 251.516 232.786 246.65 232.786 246.65C232.786 246.65 241.348 250.712 247.324 252.133C253.314 253.553 261.186 254.242 261.186 254.242Z" fill="#FCB58A"/>
<path d="M117.537 162.48C126.335 162.48 133.468 155.354 133.468 146.564C133.468 137.774 126.335 130.648 117.537 130.648C108.739 130.648 101.606 137.774 101.606 146.564C101.606 155.354 108.739 162.48 117.537 162.48Z" fill="#4E53BA"/>
<path d="M242.31 402.205H144.414V366.47H242.267C247.137 366.47 251.101 370.402 251.101 375.296V393.408C251.144 398.244 247.165 402.205 242.31 402.205Z" fill="#F8ECE2"/>
<path d="M300.301 364.246H140.162C139.544 364.246 139.041 364.748 139.041 365.365C139.041 365.982 139.544 366.485 140.162 366.485H159.813H233.217C243.1 366.485 251.101 374.478 251.101 384.352C251.101 394.226 243.1 402.22 233.217 402.22H142.561H140.147C139.53 402.22 139.027 402.722 139.027 403.339C139.027 403.956 139.53 404.458 140.147 404.458H300.315C310.198 404.458 318.2 396.465 318.2 386.591V382.156C318.185 372.225 310.184 364.246 300.301 364.246Z" fill="#FF5856"/>
<path d="M236.665 374.206H144.414V372.971H236.665C237.009 372.971 237.282 373.244 237.282 373.588C237.282 373.933 237.009 374.206 236.665 374.206Z" fill="#EBD0BE"/>
<path d="M194.102 357.3H172.842V356.065H194.102C194.447 356.065 194.719 356.338 194.719 356.683C194.719 357.027 194.447 357.3 194.102 357.3Z" fill="#E0C1A6"/>
<path d="M189.088 350.339H172.842V349.105H189.06C189.404 349.105 189.677 349.378 189.677 349.722C189.706 350.052 189.419 350.339 189.088 350.339Z" fill="#E0C1A6"/>
<path d="M243.359 388.112H144.414V386.878H243.359C243.703 386.878 243.976 387.151 243.976 387.495C243.976 387.839 243.703 388.112 243.359 388.112Z" fill="#EBD0BE"/>
<path d="M231.177 395.833H144.414V394.599H231.177C231.522 394.599 231.795 394.872 231.795 395.216C231.795 395.546 231.522 395.833 231.177 395.833Z" fill="#EBD0BE"/>
<path d="M240.385 381.31H144.414V380.075H240.385C240.73 380.075 241.003 380.348 241.003 380.692C241.003 381.022 240.759 381.31 240.385 381.31Z" fill="#EBD0BE"/>
<path d="M229.87 336.705H192.249V323.445H229.884C230.904 323.445 231.738 324.277 231.738 325.296V334.84C231.738 335.902 230.89 336.705 229.87 336.705Z" fill="#F8D0B3"/>
<path d="M297.701 321.435H222.932H190.137H189.146C188.586 321.435 188.126 321.895 188.126 322.454C188.126 323.014 188.586 323.473 189.146 323.473H192.249H228.017C230.057 323.473 231.738 325.152 231.738 327.19V332.988C231.738 335.026 230.057 336.705 228.017 336.705H219.829H189.361C188.801 336.705 188.341 337.165 188.341 337.724C188.341 338.284 188.801 338.743 189.361 338.743H190.137H223.176H297.701C299.741 338.743 301.422 337.064 301.422 335.026V325.109C301.422 323.086 299.741 321.435 297.701 321.435Z" fill="#FF7A82"/>
<path d="M168.159 240.278C179.263 235.298 192.091 241.986 203.152 243.866C213.997 245.717 225.877 244.268 233.404 235.413C235.113 233.404 235.386 230.462 233.404 228.481C231.637 226.716 228.161 226.444 226.466 228.481C219.37 236.805 208.366 235.298 198.842 232.873C186.905 229.802 175.068 226.487 163.232 231.782C160.818 232.873 160.229 236.403 161.465 238.499C162.887 241.01 165.746 241.355 168.159 240.278Z" fill="#F0A173"/>
<path d="M171.722 243.335C183.774 239.403 195.682 247.181 206.959 250.482C217.747 253.64 229.741 253.152 238.173 244.971C242.727 240.58 235.76 233.605 231.235 238.04C223.636 245.416 212.518 242.316 203.77 239.059C192.637 234.94 181.073 229.96 169.121 233.849C163.131 235.815 165.703 245.316 171.722 243.335Z" fill="#FCB58A"/>
<path d="M247.611 206.237C248.66 206.553 258.054 210.327 261.588 222.899C264.533 233.275 266.975 248.66 267.75 253.711C267.908 254.673 267.248 255.606 266.3 255.792C263.484 256.352 257.408 257.213 249.751 256.538C239.093 255.577 232.298 252.692 232.298 252.692L232.571 250.281L231.608 250.712C230.861 251.056 229.971 250.841 229.497 250.181L222.559 240.953C222.099 240.336 222.314 239.46 222.961 239.13L223.047 239.073L217.43 232.328C216.899 231.682 216.928 230.749 217.56 230.161C219.542 228.238 223.851 223.903 226.926 219.727C229.152 216.699 232.097 211.174 233.936 209.05C237.599 204.716 244.853 205.433 247.611 206.237Z" fill="white"/>
<path d="M247.941 210.169L241.089 192.617L228.075 192.517L234.898 210.083L247.941 210.169Z" fill="#FCB58A"/>
<path d="M236.019 214.015C237.972 214.475 240.601 212.623 242.813 211.633C245.169 210.585 247.927 210.14 247.927 210.14L234.913 210.054C234.898 210.083 233.964 213.542 236.019 214.015Z" fill="#FCB58A"/>
<path d="M231.45 228.223C231.45 228.223 230.143 231.725 228.85 233.677C227.543 235.628 223.047 239.058 223.047 239.058L221.366 237.049C221.366 237.049 224.498 235.471 226.696 233.332C228.319 231.811 231.45 228.223 231.45 228.223Z" fill="#E0E0E0"/>
<path d="M232.571 250.281C232.571 250.281 236.607 247.899 238.403 245.947C240.199 243.995 242.712 240.092 242.712 240.092C242.712 240.092 239.954 246.062 238.59 248.645C236.694 252.176 235.243 253.754 235.243 253.754L232.327 252.735C232.327 252.735 232.355 252.147 232.456 251.587C232.513 250.985 232.571 250.281 232.571 250.281Z" fill="#E0E0E0"/>
<path d="M158.549 238.944C161.364 237.178 164.309 235.786 167.469 234.796C170.098 233.992 168.992 229.773 166.32 230.591C162.815 231.682 159.468 233.189 156.365 235.169C154.053 236.647 156.193 240.422 158.549 238.944Z" fill="#F0A173"/>
<path d="M264.271 154.983C265.679 150.764 263.397 146.205 259.174 144.799C254.952 143.393 250.388 145.673 248.981 149.891C247.573 154.11 249.856 158.669 254.078 160.075C258.3 161.481 262.864 159.201 264.271 154.983Z" fill="#110580"/>
<path d="M233.662 182.356C235.889 183.188 236.88 183.16 236.88 183.16C236.607 181.667 236.32 180.089 236.32 179.974C236.32 179.974 232.599 178.74 230.114 176.257C226.394 172.54 228.261 168.823 225.158 165.723C222.587 163.154 219.326 162.006 218.249 161.69C218.22 161.719 218.191 161.719 218.191 161.747C218.249 161.776 222.185 163.384 224.799 166.885C227.428 170.387 225.043 173.817 228.204 178.036C230.129 180.634 231.709 181.653 233.662 182.356Z" fill="#E3996D"/>
<path d="M242.31 195.703C239.796 196.751 237.038 197.31 234.151 197.31C232.657 197.31 231.178 197.152 229.784 196.851L231.609 201.53C232.14 201.472 232.628 201.372 233.16 201.257C236.78 200.424 239.983 198.659 242.555 196.277L242.31 195.703Z" fill="#E3996D"/>
<path d="M239.265 198.961C235.013 198.961 231.551 195.488 231.551 191.254C231.551 187.006 235.027 183.547 239.265 183.547C243.502 183.547 246.979 187.02 246.979 191.254C246.979 195.488 243.517 198.961 239.265 198.961ZM239.265 184.81C235.702 184.81 232.815 187.695 232.815 191.254C232.815 194.813 235.702 197.698 239.265 197.698C242.827 197.698 245.715 194.813 245.715 191.254C245.715 187.695 242.827 184.81 239.265 184.81Z" fill="white"/>
<path d="M264.216 203.209C265.078 202.893 265.581 201.975 265.265 201.071L255.009 170.072C252.437 160.958 244.077 154.271 234.122 154.271C227.644 154.271 221.84 157.127 217.847 161.575C217.904 161.575 222.027 162.623 225.101 165.723C228.204 168.823 226.336 172.54 230.057 176.257C232.542 178.74 236.262 179.974 236.262 179.974C236.262 180.347 238.087 189.704 239.552 196.952C239.868 198.53 240.17 200.396 240.414 201.817C240.543 202.491 241.003 203.051 241.649 203.338C245.398 204.859 249.737 205.634 254.362 205.419C257.709 205.247 261.961 203.941 264.216 203.209Z" fill="#110580"/>
<path d="M261.918 266.283C261.918 266.283 263.412 272.354 262.938 272.354C262.478 272.325 244.522 268.795 239.883 267.776C229.626 265.58 228.046 258.605 228.046 258.605C228.046 258.605 228.85 258.576 229.727 257.931C230.588 257.285 230.904 257.026 230.904 257.026C230.904 257.026 232.355 260.614 241.29 263.226C253.644 266.814 261.918 266.283 261.918 266.283Z" fill="#FFADB2"/>
<path d="M159.569 335.686C159.569 335.686 163.663 335.658 165.731 335.285C167.8 334.911 171.808 332.931 171.808 332.931C171.808 332.931 174.164 338.14 174.839 339.489C175.514 340.853 178.43 344.283 178.803 346.522C179.177 348.746 179.263 353.769 170.615 354.544C166.622 354.889 162.83 363.026 158.463 363.614C156.294 363.93 146.037 365.035 143.121 363.456C140.234 361.878 141.139 357.601 148.178 355.276C155.216 352.951 153.88 350.626 155.561 347.627C157.213 344.642 159.569 335.686 159.569 335.686Z" fill="#AB534D"/>
<path d="M135.608 327.693C134.991 332.744 134.402 337.753 133.784 342.805C133.382 346.177 136.973 349.091 140.076 349.091C143.796 349.091 145.937 346.177 146.368 342.805C146.985 337.753 147.574 332.744 148.192 327.693C148.594 324.32 145.003 321.407 141.9 321.407C138.151 321.435 136.01 324.32 135.608 327.693Z" fill="#FCB58A"/>
<path d="M234.682 308.534C243.761 309.438 252.164 306.898 258.557 300.726C264.906 294.57 264.532 284.194 264.173 280.003C263.9 276.688 262.78 271.335 262.349 269.225C262.22 268.694 261.818 268.292 261.3 268.206C258.04 267.618 246.706 265.58 243.316 264.518C240.558 263.657 238.101 262.724 236.895 262.222C236.435 262.035 235.903 262.136 235.53 262.466C234.51 263.398 232.025 265.092 228.031 264.69C222.573 264.13 198.583 256.725 189.131 253.826C179.679 250.927 163.806 243.881 149.111 248.746C139.745 251.846 132.706 260.786 132.534 279.587C132.405 294.168 132.376 312.853 132.62 319.871C132.807 325.411 132.591 331.266 132.491 333.491C132.462 334.079 132.807 334.581 133.324 334.797C134.286 335.17 135.996 335.729 138.438 336.246C141.469 336.892 145.232 336.648 146.899 336.461C147.43 336.404 147.861 336.06 148.019 335.557C148.924 332.888 151.869 324.033 154.526 316.599C161.192 297.985 161.752 287.982 161.436 283.462C161.35 282.342 162.585 281.639 163.519 282.285C167.914 285.313 177.381 291.542 187.982 296.277C202.505 302.865 223.363 307.385 234.682 308.534Z" fill="#FFADB2"/>
<path d="M247.453 266.197C247.51 272.727 245.471 279.415 240.73 284.093C238.59 286.203 235.961 287.868 233.074 288.743C229.597 289.791 225.949 289.604 222.415 289.059C209.185 286.949 197.061 280.85 185.095 275.152C179.076 272.268 173.043 269.455 166.751 267.187C165.171 266.628 163.591 266.068 162.011 265.609C160.244 265.078 158.42 264.59 156.581 264.805C153.607 265.121 151.309 267.159 149.758 269.57C148.12 272.138 147.316 275.238 146.655 278.209C145.908 281.496 145.448 284.839 145.132 288.183C144.672 293.02 144.543 297.842 144.112 302.678C143.207 312.279 142.13 321.938 140.42 331.453C140.291 332.228 140.148 332.974 139.99 333.72C139.774 334.768 141.383 335.242 141.598 334.151C142.432 330.19 142.992 326.157 143.523 322.139C144.242 316.929 144.859 311.705 145.419 306.467C145.879 302.075 146.195 297.698 146.439 293.278C146.784 286.748 147.488 280.017 149.628 273.775C150.533 271.105 152.07 268.35 154.685 267.029C157.788 265.451 161.537 267.087 164.539 268.149C170.888 270.316 177.036 273.1 183.07 276.013C195.064 281.711 207.131 287.939 220.332 290.379C223.923 291.025 227.586 291.499 231.206 290.91C234.18 290.408 237.067 289.145 239.481 287.351C244.724 283.505 247.884 277.535 248.846 271.148C249.091 269.512 249.22 267.833 249.191 266.168C249.119 265.106 247.453 265.106 247.453 266.197Z" fill="white"/>
<path d="M157.83 242.316C160.617 239.618 164.28 238.657 168.001 237.953C170.63 237.422 169.71 233.332 167.038 233.863C162.643 234.724 158.29 236.059 154.986 239.245C153.061 241.111 155.877 244.211 157.83 242.316Z" fill="#FCB58A"/>
<path d="M173.057 243.55L164.007 245.775C162.671 246.119 161.307 245.273 161.005 243.952L159.583 238.226C159.238 236.891 160.086 235.528 161.407 235.227L170.457 233.002C171.793 232.658 173.158 233.504 173.459 234.825L174.882 240.551C175.198 241.886 174.393 243.249 173.057 243.55Z" fill="#FCB58A"/>
<path d="M248.257 320.517H187.35V307.787H248.257C249.995 307.787 251.389 309.179 251.389 310.916V317.36C251.389 319.082 249.995 320.517 248.257 320.517Z" fill="#F8E7D8"/>
<path d="M286.195 306.797H184.736C184.492 306.797 184.276 307.012 184.276 307.256C184.276 307.5 184.492 307.716 184.736 307.716H244.896C248.43 307.716 251.288 310.572 251.288 314.102C251.288 317.632 248.43 320.488 244.896 320.488H184.736C184.492 320.488 184.276 320.704 184.276 320.948C184.276 321.192 184.492 321.407 184.736 321.407H286.195C289.729 321.407 292.587 318.551 292.587 315.02V313.169C292.587 309.639 289.729 306.797 286.195 306.797Z" fill="#2B31BA"/>
<path d="M112.926 372.57C114.448 375.641 122.076 377.004 129.948 371.364C141.857 362.854 148.982 365.451 148.982 358.333C148.982 355.147 148.335 352.205 147.488 348.832C146.712 345.761 146.741 339.977 146.741 339.977C146.741 339.977 141.067 340.595 138.179 340.064C135.953 339.662 134.329 338.801 134.329 338.801C134.329 338.801 133.496 343.379 130.853 348.215C129 351.616 127.635 353.697 124.461 356.611C122.536 358.362 110.383 367.489 112.926 372.57Z" fill="#C7645D"/>
<path d="M233.662 317.69H187.35V317.101H233.662C233.82 317.101 233.978 317.23 233.978 317.417C233.964 317.532 233.835 317.69 233.662 317.69Z" fill="#DEBCA7"/>
<path d="M238.704 311.433H187.35V310.844H238.676C238.834 310.844 238.992 310.973 238.992 311.16C238.992 311.289 238.862 311.433 238.704 311.433Z" fill="#DEBCA7"/>
<path d="M244.35 314.446H187.35V313.858H244.35C244.508 313.858 244.666 313.987 244.666 314.174C244.666 314.288 244.508 314.446 244.35 314.446Z" fill="#DEBCA7"/>
<path d="M295.747 128.912C299.956 133.274 302.355 138.082 304.984 143.464C305.731 144.956 310.256 141.971 309.911 140.522C308.518 134.767 304.74 129.744 300.517 125.654C299.152 124.362 294.627 127.763 295.747 128.912Z" fill="#F3E9E1"/>
<path d="M321.446 128.381C321.317 133.705 320.211 138.699 319.177 143.895C318.717 146.191 323.113 143.493 323.572 142.316C325.526 137.236 326.086 131.409 326.014 125.998C326 124.391 321.475 126.773 321.446 128.381Z" fill="#F3E9E1"/>
<path d="M331.976 150.396C335.265 148.788 338.612 147.21 341.959 145.717C343.166 145.186 344.746 143.765 344.401 142.273C344.056 140.78 342.175 140.909 341.083 141.369C337.736 142.89 334.418 144.44 331.099 146.047C329.921 146.636 328.313 147.97 328.657 149.492C329.002 150.984 330.927 150.927 331.976 150.396Z" fill="#F3E9E1"/>
<path d="M220.633 386.878H206.254C206.254 386.878 203.927 387.653 201.945 391.341C199.503 395.919 200.365 400.354 198.785 403.755C196.96 407.687 194.102 409.209 194.102 409.209C194.102 409.209 197.291 409.639 199.215 409.367C200.954 409.123 203.094 407.659 203.094 407.659C203.094 407.659 203.496 408.491 203.597 409.955C203.726 411.534 203.568 412.395 203.568 412.395C203.568 412.395 208.84 411.16 210.98 408.118C213.954 403.913 211.483 398.732 215.318 392.36C217.013 389.533 220.633 386.878 220.633 386.878Z" fill="#BFA990"/>
<path d="M309.801 180.839C310.378 179.621 308.247 177.405 305.041 175.891C301.835 174.376 298.769 174.135 298.192 175.353C297.615 176.571 299.747 178.787 302.953 180.302C306.158 181.817 309.225 182.057 309.801 180.839Z" fill="#D4BFA9"/>
<path d="M299.281 173.315C300.373 171.177 301.292 168.952 301.666 166.598C302.499 161.489 300.948 155.634 304.05 151.515C306.277 148.544 310.4 147.525 314.091 147.927C318.588 148.43 322.983 150.927 325.195 154.902C327.408 158.877 327.02 164.259 323.888 167.531C321.259 170.287 317.223 171.248 314.436 173.846C312.885 175.295 311.836 177.19 310.687 179.012L310.313 179.572C301.565 178.926 299.281 173.315 299.281 173.315Z" fill="#EBDBCD"/>
<path d="M314.378 164.962C313.976 163.628 312.827 163.757 311.778 164.216C311.505 163.499 311.06 162.537 310.284 162.264C309.422 161.949 308.46 162.58 307.799 163.097C306.377 164.274 305.285 165.981 304.668 167.718C304.05 169.454 303.763 171.306 303.217 173.042C303.001 173.76 304.122 174.033 304.337 173.315C305.056 171.091 305.271 168.636 306.42 166.599C307.067 165.45 308 164.116 309.207 163.527C309.609 163.341 309.882 163.283 310.169 163.685C310.385 164.001 310.543 164.331 310.672 164.675C310.672 164.704 310.701 164.733 310.701 164.762C310.543 164.848 310.428 164.948 310.299 165.034C309.121 165.967 307.598 167.603 307.67 169.21C307.699 169.928 308.201 170.545 308.934 170.574C309.767 170.603 310.572 169.928 311.074 169.311C312.008 168.163 312.281 166.642 312.037 165.221C312.281 165.063 312.568 164.977 312.813 164.948C313.531 164.891 313.243 166.068 313.157 166.469C312.813 167.804 312.109 168.981 311.419 170.129C310.888 170.99 310.428 171.923 309.782 172.698C309.063 173.559 308.101 174.19 307.21 174.836C306.593 175.238 307.21 176.228 307.828 175.826C308.92 175.109 309.997 174.334 310.801 173.315C311.635 172.196 312.353 170.961 313.028 169.756C313.789 168.493 314.867 166.541 314.378 164.962ZM310.959 167.058C310.83 167.675 310.586 168.263 310.155 168.737C309.911 169.01 308.819 169.971 308.891 169.11C308.92 168.579 309.322 168.019 309.609 167.589C309.983 167.029 310.471 166.498 311.003 166.068C311.031 166.412 311.031 166.728 310.959 167.058Z" fill="#BFA990"/>
<path d="M302.93 180.318C300.042 178.955 298.06 177.032 298.089 175.769L296.825 180.878C296.365 181.868 298.06 183.662 300.674 184.868C303.246 186.073 305.731 186.289 306.191 185.298C306.219 185.241 306.219 185.212 306.248 185.141L309.538 181.151C308.575 181.983 305.817 181.682 302.93 180.318Z" fill="#BFA990"/>
<path d="M140.564 246.378C139.544 246.65 138.481 246.062 138.179 245.043L124.662 196.664C124.389 195.646 124.978 194.584 125.998 194.282C127.018 194.009 128.081 194.598 128.382 195.617L141.9 243.995C142.216 245.043 141.627 246.091 140.564 246.378Z" fill="#C5C6E3"/>
<path d="M138.122 244.426C138.179 243.378 139.084 242.531 140.162 242.603L190.353 245.545C191.401 245.603 192.249 246.507 192.177 247.583C192.119 248.631 191.214 249.478 190.137 249.406L139.946 246.464C138.898 246.406 138.064 245.502 138.122 244.426Z" fill="#C5C6E3"/>
<path d="M335.107 277.118L332.91 276.53C332.78 276.501 332.694 276.343 332.723 276.214C332.752 276.085 332.91 275.999 333.039 276.028L334.748 276.487L335.208 274.779C335.237 274.65 335.395 274.564 335.524 274.593C335.653 274.621 335.739 274.779 335.711 274.908L335.107 277.118Z" fill="#EBDBCD"/>
<path d="M329.002 275.454C328.974 275.454 328.973 275.454 328.945 275.454L324.98 274.363C324.851 274.334 324.765 274.176 324.793 274.047C324.822 273.918 324.98 273.832 325.109 273.861L329.074 274.951C329.203 274.98 329.29 275.138 329.261 275.267C329.218 275.396 329.132 275.454 329.002 275.454ZM321.073 273.315C321.044 273.315 321.044 273.315 321.015 273.315L317.051 272.225C316.921 272.196 316.835 272.038 316.864 271.909C316.893 271.78 317.051 271.694 317.18 271.722L321.145 272.813C321.274 272.842 321.36 273 321.331 273.129C321.288 273.258 321.188 273.315 321.073 273.315ZM313.158 271.177C313.129 271.177 313.129 271.177 313.1 271.177L309.136 270.086C309.006 270.057 308.92 269.9 308.949 269.77C308.978 269.641 309.136 269.555 309.265 269.584L313.23 270.675C313.359 270.703 313.445 270.861 313.416 270.99C313.345 271.119 313.258 271.177 313.158 271.177Z" fill="#EBDBCD"/>
<path d="M305.228 269.039C305.2 269.039 305.2 269.039 305.171 269.039L302.973 268.45L303.562 266.254C303.591 266.125 303.749 266.039 303.878 266.068C304.007 266.097 304.094 266.254 304.065 266.384L303.605 268.091L305.315 268.551C305.444 268.579 305.53 268.737 305.501 268.866C305.415 268.981 305.329 269.039 305.228 269.039Z" fill="#EBDBCD"/>
<path d="M304.855 262.595C304.826 262.595 304.826 262.595 304.797 262.595C304.668 262.566 304.582 262.408 304.611 262.279L305.659 258.318C305.688 258.189 305.846 258.103 305.975 258.131C306.104 258.16 306.191 258.318 306.162 258.447L305.113 262.408C305.07 262.537 304.984 262.595 304.855 262.595ZM306.995 254.701C306.966 254.701 306.966 254.701 306.938 254.701C306.808 254.673 306.722 254.515 306.751 254.386L307.8 250.425C307.828 250.296 307.986 250.209 308.116 250.238C308.245 250.267 308.331 250.425 308.302 250.554L307.254 254.515C307.211 254.615 307.124 254.701 306.995 254.701Z" fill="#EBDBCD"/>
<path d="M309.135 246.78C309.107 246.78 309.107 246.78 309.078 246.78C308.949 246.751 308.863 246.593 308.891 246.464L309.48 244.268L311.678 244.856C311.807 244.885 311.894 245.043 311.865 245.172C311.836 245.301 311.678 245.387 311.549 245.359L309.839 244.9L309.38 246.607C309.351 246.708 309.265 246.78 309.135 246.78Z" fill="#EBDBCD"/>
<path d="M335.424 251.76C335.395 251.76 335.395 251.76 335.366 251.76L331.401 250.669C331.272 250.64 331.186 250.482 331.215 250.353C331.243 250.224 331.401 250.138 331.531 250.167L335.495 251.257C335.625 251.286 335.711 251.444 335.682 251.573C335.639 251.702 335.51 251.76 335.424 251.76ZM327.48 249.621C327.451 249.621 327.451 249.621 327.422 249.621L323.458 248.53C323.328 248.502 323.242 248.344 323.271 248.215C323.3 248.086 323.458 247.999 323.587 248.028L327.552 249.119C327.681 249.148 327.767 249.305 327.738 249.435C327.695 249.564 327.58 249.621 327.48 249.621ZM319.55 247.483C319.522 247.483 319.522 247.483 319.493 247.483L315.528 246.392C315.399 246.363 315.313 246.206 315.341 246.076C315.37 245.947 315.528 245.861 315.657 245.89L319.622 246.981C319.751 247.009 319.838 247.167 319.809 247.296C319.766 247.425 319.68 247.483 319.55 247.483Z" fill="#EBDBCD"/>
<path d="M340.81 255.319C340.782 255.319 340.782 255.319 340.753 255.319C340.624 255.29 340.537 255.132 340.566 255.003L341.026 253.295L339.316 252.836C339.187 252.807 339.101 252.649 339.13 252.52C339.158 252.391 339.316 252.305 339.446 252.334L341.643 252.922L341.054 255.118C341.026 255.261 340.911 255.319 340.81 255.319Z" fill="#EBDBCD"/>
<path d="M336.53 271.148C336.501 271.148 336.501 271.148 336.472 271.148C336.343 271.12 336.257 270.962 336.285 270.832L337.334 266.871C337.363 266.742 337.521 266.656 337.65 266.685C337.779 266.714 337.865 266.872 337.837 267.001L336.788 270.962C336.759 271.091 336.63 271.148 336.53 271.148ZM338.67 263.255C338.641 263.255 338.641 263.255 338.612 263.255C338.483 263.226 338.397 263.068 338.426 262.939L339.474 258.978C339.503 258.849 339.661 258.763 339.79 258.792C339.92 258.82 340.006 258.978 339.977 259.107L338.928 263.068C338.885 263.154 338.77 263.255 338.67 263.255Z" fill="#EBDBCD"/>
<path d="M249.737 256.524C243.502 255.964 238.604 254.759 235.602 253.826C239.968 256.424 245.212 258.218 250.943 258.849C254.448 259.222 257.881 259.165 261.114 258.662C261.085 257.83 261.085 257.113 261.085 256.467C258.054 256.811 254.147 256.94 249.737 256.524Z" fill="#F0A173"/>
<path d="M106.318 184.38C106.232 184.38 106.16 184.351 106.103 184.294C105.701 183.734 105.385 183.117 105.112 182.471C105.054 182.342 105.112 182.198 105.241 182.127C105.37 182.055 105.514 182.127 105.586 182.256C105.83 182.873 106.146 183.461 106.519 183.992C106.606 184.122 106.577 184.265 106.462 184.337C106.404 184.337 106.347 184.38 106.318 184.38Z" fill="#EBDBCD"/>
<path d="M104.551 178.524C104.422 178.524 104.307 178.395 104.307 178.281V178.151C104.307 176.788 104.523 175.425 104.925 174.061C104.954 173.932 105.112 173.846 105.241 173.903C105.37 173.932 105.456 174.09 105.399 174.219C104.997 175.525 104.781 176.845 104.781 178.151V178.237C104.796 178.395 104.681 178.524 104.551 178.524ZM106.965 170.631C106.907 170.631 106.878 170.631 106.835 170.603C106.706 170.545 106.677 170.387 106.778 170.258C107.496 169.139 108.387 168.034 109.45 166.972C109.536 166.886 109.694 166.886 109.795 166.972C109.881 167.058 109.881 167.216 109.795 167.316C108.775 168.335 107.898 169.426 107.194 170.502C107.123 170.588 107.065 170.631 106.965 170.631ZM112.768 164.647C112.711 164.647 112.61 164.618 112.581 164.561C112.495 164.431 112.524 164.288 112.639 164.216C113.314 163.685 114.061 163.169 114.865 162.638C115.268 162.365 115.698 162.078 116.101 161.834C116.23 161.776 116.374 161.805 116.445 161.891C116.503 162.02 116.474 162.164 116.388 162.236C115.986 162.508 115.555 162.767 115.153 163.039C114.348 163.57 113.63 164.087 112.955 164.618C112.854 164.618 112.825 164.647 112.768 164.647ZM119.735 159.997C119.649 159.997 119.577 159.968 119.52 159.868C119.462 159.739 119.491 159.595 119.577 159.523C120.97 158.619 122.019 157.887 122.953 157.112C123.039 157.026 123.226 157.055 123.297 157.141C123.384 157.227 123.355 157.414 123.269 157.485C122.306 158.26 121.258 159.007 119.821 159.925C119.836 159.997 119.778 159.997 119.735 159.997ZM134.215 157.5C134.085 157.5 133.971 157.371 133.971 157.256C133.971 157.127 134.057 157.012 134.215 157.012C135.579 156.983 136.944 156.825 138.309 156.481C138.438 156.452 138.582 156.538 138.625 156.667C138.653 156.796 138.567 156.94 138.438 156.983C137.03 157.27 135.608 157.457 134.215 157.5ZM130.063 157.127C130.035 157.127 130.035 157.127 130.006 157.127C128.612 156.854 127.248 156.409 125.969 155.864C125.84 155.806 125.783 155.648 125.84 155.519C125.898 155.39 126.056 155.333 126.185 155.39C127.42 155.95 128.756 156.352 130.121 156.624C130.25 156.653 130.336 156.782 130.308 156.94C130.279 157.026 130.193 157.127 130.063 157.127ZM142.331 155.663C142.245 155.663 142.144 155.605 142.115 155.505C142.058 155.376 142.115 155.232 142.245 155.16C143.451 154.629 144.658 154.012 145.936 153.237C146.066 153.18 146.209 153.209 146.281 153.323C146.339 153.453 146.31 153.596 146.195 153.668C144.888 154.443 143.681 155.06 142.446 155.591C142.403 155.634 142.374 155.663 142.331 155.663ZM126.156 154.701C126.099 154.701 126.027 154.672 125.998 154.644C125.912 154.558 125.869 154.4 125.969 154.299C126.903 153.209 127.607 152.032 128.167 150.826C128.225 150.697 128.383 150.64 128.512 150.697C128.641 150.755 128.699 150.912 128.641 151.042C128.081 152.276 127.305 153.481 126.372 154.629C126.285 154.672 126.214 154.701 126.156 154.701ZM122.493 153.711C122.436 153.711 122.364 153.682 122.335 153.654C121.157 152.721 120.195 151.673 119.476 150.496C119.419 150.367 119.448 150.224 119.563 150.152C119.692 150.094 119.836 150.123 119.907 150.238C120.583 151.357 121.516 152.376 122.637 153.266C122.723 153.352 122.766 153.51 122.665 153.61C122.622 153.682 122.565 153.711 122.493 153.711ZM149.528 151.429C149.442 151.429 149.37 151.4 149.312 151.343C149.226 151.214 149.255 151.07 149.37 150.999C150.418 150.252 151.381 149.506 152.314 148.774L152.717 148.458C152.846 148.372 152.99 148.401 153.061 148.487C153.119 148.573 153.119 148.76 153.033 148.831L152.631 149.147C151.697 149.865 150.706 150.597 149.686 151.372C149.628 151.386 149.585 151.429 149.528 151.429ZM129.417 147.152C129.259 147.152 129.173 147.023 129.173 146.88C129.173 146.736 129.173 146.564 129.173 146.377C129.173 145.818 129.115 145.258 129.015 144.698C128.885 144.081 128.699 143.493 128.397 142.904C128.34 142.775 128.397 142.632 128.526 142.56C128.656 142.502 128.799 142.56 128.871 142.689C129.187 143.306 129.403 143.952 129.517 144.612C129.647 145.172 129.675 145.789 129.675 146.377C129.675 146.564 129.675 146.722 129.675 146.908C129.661 147.023 129.532 147.152 129.417 147.152ZM118.284 146.722C118.155 146.722 118.04 146.636 118.04 146.507C118.011 146.234 118.011 145.918 118.011 145.645C118.011 144.469 118.255 143.321 118.686 142.302C118.744 142.172 118.902 142.115 119.031 142.172C119.16 142.23 119.218 142.388 119.16 142.517C118.729 143.478 118.514 144.555 118.514 145.674C118.514 145.947 118.514 146.234 118.543 146.478C118.557 146.593 118.471 146.722 118.284 146.722C118.313 146.722 118.313 146.722 118.284 146.722ZM125.783 140.063C125.754 140.063 125.696 140.063 125.653 140.034C124.633 139.446 123.513 139.259 122.493 139.503C122.278 139.56 122.062 139.632 121.847 139.69C121.717 139.747 121.574 139.69 121.531 139.532C121.473 139.403 121.531 139.259 121.689 139.216C121.904 139.13 122.148 139.058 122.407 139.001C123.585 138.757 124.791 138.943 125.941 139.589C126.07 139.647 126.099 139.804 126.027 139.934C125.969 140.034 125.883 140.063 125.783 140.063Z" fill="#EBDBCD"/>
<path d="M156.279 146.435C156.193 146.435 156.121 146.406 156.064 146.306C156.006 146.176 156.035 146.033 156.15 145.961C156.868 145.531 157.486 145.215 158.046 145.057C158.176 145.028 158.319 145.086 158.362 145.244C158.391 145.373 158.334 145.516 158.176 145.559C157.673 145.717 157.084 145.961 156.409 146.392C156.38 146.435 156.351 146.435 156.279 146.435Z" fill="#EBDBCD"/>
</g>
<defs>
<linearGradient id="paint0_linear_360_325" x1="338.776" y1="84.0551" x2="132.048" y2="428.361" gradientUnits="userSpaceOnUse">
<stop stop-color="#00427D"/>
<stop offset="1" stop-color="#00305B"/>
</linearGradient>
<linearGradient id="paint1_linear_360_325" x1="338.776" y1="84.0551" x2="132.048" y2="428.361" gradientUnits="userSpaceOnUse">
<stop stop-color="#00427D"/>
<stop offset="1" stop-color="#00305B"/>
</linearGradient>
<clipPath id="clip0_360_325">
<rect width="247.234" height="287.028" fill="white" transform="translate(101.606 125.367)"/>
</clipPath>
</defs>
</svg>