<svg width="740" height="678" viewBox="0 0 740 678" fill="none" xmlns="http://www.w3.org/2000/svg">
<g filter="url(#filter0_i_337_32)">
<path d="M703.952 407.111C725.844 249.118 683.304 112.053 518.397 63.3239C353.489 14.5943 401.497 245.043 249.362 219.802C97.2896 194.57 1.85721 230.658 55.1142 373.062C108.371 515.466 261.956 516.313 329.216 545.578C459.719 602.449 643.723 841.77 703.952 407.111Z" fill="white"/>
<path d="M570.996 373.961L569.971 383.814C567.304 390.231 564.639 396.644 561.975 403.053C561.045 405.303 560.111 407.55 559.173 409.792C558.748 410.841 558.144 411.808 557.39 412.649C557.352 412.706 557.303 412.753 557.245 412.787C557.186 412.821 557.121 412.842 557.054 412.847C556.828 412.847 556.747 412.544 556.73 412.317C556.601 409.887 556.313 407.468 555.867 405.076C553.372 393.527 540.055 389.294 529.609 389.556C525.43 389.621 521.313 390.581 517.531 392.372C512.077 395.031 509.952 402.423 509.663 402.697L509.431 403.648L505.691 419.336C504.903 422.834 504.301 424.682 501.094 425.615C500.989 425.65 497.793 427.364 497.689 427.364C496.45 427.714 499.843 426.962 498.5 426.734L494.244 426.064L492.432 425.644L465.989 419.342C467.014 419.517 468.062 419.709 469.127 419.925L475.264 421.4L473.643 413.564C469.422 389.172 476.417 367.041 488.332 355.025C491.471 351.866 493.028 351.055 496.687 348.95L498.743 353.854C498.743 353.854 519.772 360.167 524.728 340.794C526.732 340.969 530.582 340.94 532.568 341.377C542.92 343.563 552.27 349.119 559.173 357.188C559.781 357.888 560.377 358.611 560.968 359.345L561.281 359.73C561.645 360.191 562.033 360.663 562.398 361.135L562.659 361.508C565.685 365.486 568.47 369.644 570.996 373.961Z" fill="black"/>
<path d="M321.123 271.983C324.458 255.193 338.62 238.927 379.069 235.202C468.977 226.929 420.375 201.971 449.649 174.657C478.924 147.343 589.611 192.281 560.655 262.463C531.7 332.644 627.287 254.749 667.77 343.645C673.635 356.546 676.459 370.636 676.021 384.817C675.51 399.8 671.678 414.479 664.806 427.778C651.877 453.209 627.86 475.864 593.126 489.903C588 492.005 582.634 493.896 577.029 495.575" stroke="#5847A2" stroke-width="5.23453" stroke-miterlimit="10"/>
<path d="M601.139 510.447L491.708 510.447L488.448 509.468C488.448 509.468 487.788 472.057 483.422 462.484L499.634 468.034L515.337 472.581C515.337 472.581 536.939 473.036 549.29 450.836C549.29 450.836 551.368 445.536 553.233 435.981C554.842 427.69 563.4 381.983 566.99 371.775C570.863 378.59 576.931 390.314 579.861 397.462C583.034 405.222 585.703 412.952 587.886 420.117C591.519 431.913 594.385 443.935 596.466 456.106C599.579 474.05 601.142 492.232 601.139 510.447Z" fill="black"/>
<path d="M605.922 410.072C605.221 418.31 599.674 419.651 599.674 419.651C594.984 422.444 587.781 419.441 586.328 414.206C586.307 414.15 586.295 414.091 586.293 414.031C585.135 409.548 582.877 403.788 579.843 397.485C573.996 383.237 566.393 368.872 556.643 357.509C549.739 349.44 540.39 343.884 530.038 341.698C530.003 341.698 529.986 341.663 529.951 341.663C516.223 337.5 509.541 329 506.646 320.85C506.646 320.85 506.646 320.85 506.646 320.815C505.407 315.667 504.145 310.648 504.822 307.61C505.98 302.287 506.559 296.533 505.118 295.367C503.305 293.84 500.028 294.971 491.691 296.661C484.471 298.154 480.62 297.308 479.752 292.866C479.614 292.177 479.545 291.476 479.543 290.773C479.509 291.216 477.806 289.455 477.725 289.875C477.181 292.143 476.092 293.053 473.719 294.049C470.192 295.524 468.751 301.22 468.23 305.016C467.685 309.056 469.492 314.629 470.922 318.425C469.092 316.32 466.996 316.565 463.719 317.842C462.897 318.157 460.824 318.069 459.186 317.492C459.417 317.292 459.69 317.146 459.985 317.066C460.512 316.891 456.69 314.979 457.246 314.857C462.81 313.592 465.931 308.922 465.271 304.812C463.632 294.463 465.815 282.29 472.757 274.227C480.412 265.36 492.901 263.518 503.473 267.575C511.776 270.753 519.627 277.271 522.505 285.963C522.505 285.998 522.505 286.033 522.54 286.068C522.906 287.174 523.186 288.306 523.379 289.455C524.439 295.921 522.175 302.474 520.919 308.864C520.467 311.166 521.613 313.679 521.857 315.504C523.252 326.464 535.816 329.56 545.758 334.212C566.654 344.013 583.717 360.768 595.193 381.144C602.812 394.634 605.534 403.834 605.922 410.072Z" fill="#A7A3FF"/>
<path d="M495.761 346.776C495.535 346.898 495.309 347.021 495.101 347.161C491.348 349.327 487.898 351.985 484.841 355.066C472.931 367.082 465.937 389.212 470.158 413.605L471.779 421.4" stroke="black" stroke-width="5.23453" stroke-miterlimit="10"/>
<path d="M601.139 510.447C601.141 492.238 599.578 474.062 596.466 456.123C594.385 443.952 591.519 431.931 587.886 420.135C585.703 412.97 583.034 405.239 579.861 397.479C576.914 390.218 573.51 383.153 569.67 376.328C565.947 369.645 561.59 363.341 556.66 357.503C549.756 349.435 540.407 343.878 530.055 341.692C528.07 341.268 526.061 340.965 524.039 340.783" stroke="black" stroke-width="5.23453" stroke-miterlimit="10"/>
<path d="M387.129 351.97L386.834 351.918C383.298 351.321 379.67 351.628 376.282 352.809C372.894 353.991 369.855 356.01 367.443 358.681L347.641 380.403L345.325 382.969C345.181 383.126 345.046 383.291 344.92 383.464" stroke="black" stroke-width="5.23453" stroke-miterlimit="10"/>
<path d="M358.532 389.137L369.4 376.999L369.417 376.981" stroke="black" stroke-width="5.23453" stroke-miterlimit="10"/>
<path d="M453.071 451.833L504.191 469.97C509.114 471.717 514.353 472.375 519.552 471.902C524.751 471.428 529.787 469.832 534.318 467.224C538.85 464.615 542.771 461.054 545.813 456.784C548.856 452.514 550.95 447.633 551.953 442.475L564.048 380.304C564.667 377.112 564.638 373.826 563.964 370.645C563.289 367.464 561.983 364.454 560.123 361.794C559.603 361.045 559.039 360.328 558.432 359.649" stroke="black" stroke-width="5.23453" stroke-miterlimit="10"/>
<path d="M419.24 449.326C412.732 453.751 407.95 467.189 405.408 476.01C404.972 477.489 404.072 478.786 402.843 479.707C401.613 480.628 400.12 481.122 398.587 481.117C397.55 481.117 396.525 480.89 395.582 480.452C394.137 479.77 392.962 478.616 392.248 477.179C391.533 475.741 391.321 474.103 391.645 472.529C395.901 451.576 410.92 410.212 462.515 419.33C463.545 419.505 464.593 419.698 465.653 419.913L471.779 421.4L488.958 425.615L493.59 426.74C495.347 427.17 497.188 427.103 498.911 426.548C499.017 426.527 499.122 426.498 499.223 426.46C500.81 425.912 502.234 424.97 503.362 423.721C504.491 422.471 505.288 420.955 505.679 419.313L509.588 402.942L509.813 401.992L514.932 380.59" stroke="black" stroke-width="5.23453" stroke-miterlimit="10"/>
<path d="M394.077 382.24L376.568 382.24C374.572 382.24 372.657 381.441 371.246 380.02C369.834 378.599 369.041 376.671 369.041 374.661C369.041 372.651 369.834 370.723 371.246 369.302C372.657 367.88 374.572 367.082 376.568 367.082L401.372 367.082" stroke="black" stroke-width="5.23453" stroke-miterlimit="10"/>
<path d="M380.638 382.234C380.39 385.324 379.22 387.609 377.495 389.189C373.048 393.27 364.901 392.804 359.233 390.011" stroke="black" stroke-width="5.23453" stroke-miterlimit="10"/>
<path d="M347.664 380.398C342.645 374.288 343.669 366.003 347.566 359.602C358.619 341.436 383.875 344.922 400.255 352.472C413.526 358.57 425.152 367.735 436.471 376.876C442.001 381.342 447.432 385.994 452.683 390.868C453.648 391.747 454.797 392.393 456.045 392.76C457.293 393.127 458.608 393.203 459.89 392.984C461.172 392.766 462.388 392.257 463.446 391.496C464.504 390.736 465.378 389.744 466 388.595C468.895 383.214 472.028 377.343 472.618 375.716" stroke="black" stroke-width="5.23453" stroke-miterlimit="10"/>
<path d="M377.5 389.189C377.5 389.189 403.619 403.455 423.021 423.953" stroke="black" stroke-width="5.23453" stroke-miterlimit="10"/>
<path d="M412.866 457.062C409.971 462.041 412.46 469.352 417.932 471.101C424.92 473.371 432.308 474.117 439.604 473.287C447.565 472.354 452.857 465.737 456.343 458.158C456.595 457.594 456.727 456.983 456.729 456.365C456.731 455.746 456.604 455.134 456.357 454.569C456.109 454.003 455.745 453.496 455.29 453.081C454.835 452.666 454.298 452.352 453.714 452.159C452.661 451.81 451.515 451.873 450.507 452.337C449.498 452.801 448.7 453.63 448.271 454.66C447.113 457.354 445.324 460.723 442.95 462.239" stroke="black" stroke-width="5.23453" stroke-miterlimit="10"/>
<path d="M426.501 456.129C426.501 456.129 419.35 463.872 424.99 472.069C425.237 472.413 425.53 472.723 425.858 472.99" stroke="black" stroke-width="5.23453" stroke-miterlimit="10"/>
<path d="M435.933 457.406C435.933 457.406 429.321 472.389 437.803 473.485" stroke="black" stroke-width="5.23453" stroke-miterlimit="10"/>
<path d="M670.688 510.459L261.197 510.459" stroke="black" stroke-width="5.23453" stroke-miterlimit="10"/>
<path d="M422.292 482.225L381.455 482.225C381.04 486.106 379.214 489.696 376.328 492.303C373.441 494.91 369.699 496.35 365.822 496.345L228.564 496.345C228.572 500.083 230.05 503.665 232.675 506.308C235.3 508.952 238.858 510.44 242.57 510.448L422.292 510.448C426.01 510.446 429.577 508.961 432.21 506.318C434.844 503.675 436.33 500.089 436.344 496.345L436.344 486.865C436.344 485.628 435.856 484.442 434.987 483.567C434.119 482.693 432.941 482.201 431.712 482.201L422.292 482.225Z" stroke="black" stroke-width="5.23453" stroke-miterlimit="10"/>
<path d="M359.233 390.011C360.436 391.688 361.302 393.585 361.78 395.596L381.125 476.832C381.552 478.595 381.664 480.421 381.455 482.224C381.04 486.106 379.214 489.696 376.328 492.303C373.441 494.91 369.699 496.35 365.822 496.345L226.017 496.345C222.486 496.344 219.058 495.146 216.286 492.944C213.514 490.742 211.559 487.664 210.737 484.207L191.427 402.977C190.872 400.651 190.848 398.229 191.357 395.893C191.866 393.556 192.894 391.366 194.365 389.488C195.836 387.61 197.711 386.092 199.849 385.048C201.986 384.005 204.331 383.463 206.707 383.464L346.501 383.464C348.797 383.46 351.066 383.966 353.146 384.946C355.226 385.927 357.065 387.358 358.532 389.137L359.233 390.011Z" stroke="black" stroke-width="5.23453" stroke-miterlimit="10"/>
<path d="M337.335 288.913C336.443 287.858 335.505 286.844 334.527 285.858C329.036 280.31 322.511 275.909 315.326 272.908C308.141 269.906 300.438 268.364 292.659 268.368L219.37 268.368C211.593 268.365 203.892 269.905 196.707 272.901C189.521 275.896 182.993 280.288 177.494 285.825C171.995 291.362 167.634 297.937 164.66 305.172C161.686 312.407 160.157 320.161 160.161 327.992L160.161 328.417C160.154 333.973 161.559 339.438 164.243 344.292C167.259 347.386 170.86 349.84 174.832 351.511C178.805 353.182 183.069 354.036 187.374 354.023L259.228 354.023C261.421 354.023 263.524 354.9 265.074 356.461C266.625 358.022 267.496 360.14 267.496 362.348C267.499 364.559 268.373 366.678 269.927 368.24C271.48 369.802 273.586 370.679 275.782 370.679L275.961 370.679L293.702 370.224C293.702 370.049 293.667 369.892 293.667 369.735C292.133 369.204 290.803 368.204 289.861 366.874C288.92 365.544 288.414 363.952 288.415 362.319L288.415 361.934C288.417 359.727 289.289 357.61 290.839 356.049C292.389 354.488 294.491 353.61 296.684 353.609L314.175 353.609C322.774 353.609 331.022 350.169 337.102 344.046C343.183 337.924 346.599 329.62 346.599 320.961C346.629 309.605 343.413 298.479 337.335 288.913ZM210.418 323.456C207.614 323.457 204.873 322.621 202.541 321.053C200.209 319.485 198.391 317.256 197.318 314.647C196.245 312.039 195.964 309.168 196.511 306.399C197.058 303.63 198.409 301.087 200.392 299.09C202.375 297.094 204.902 295.735 207.652 295.186C210.403 294.636 213.253 294.92 215.843 296.002C218.433 297.083 220.647 298.914 222.203 301.263C223.759 303.612 224.589 306.372 224.586 309.196C224.582 312.978 223.087 316.603 220.431 319.276C217.775 321.95 214.174 323.453 210.418 323.456ZM256.663 323.456C253.859 323.455 251.119 322.617 248.789 321.047C246.458 319.478 244.643 317.248 243.571 314.639C242.499 312.03 242.22 309.16 242.769 306.392C243.317 303.624 244.669 301.081 246.652 299.086C248.636 297.091 251.163 295.734 253.913 295.185C256.663 294.636 259.513 294.921 262.102 296.003C264.692 297.085 266.904 298.916 268.46 301.264C270.016 303.613 270.845 306.373 270.843 309.196C270.843 311.07 270.476 312.926 269.763 314.657C269.05 316.388 268.005 317.961 266.689 319.286C265.372 320.61 263.808 321.66 262.088 322.376C260.368 323.091 258.524 323.458 256.663 323.456ZM300.708 323.456C297.904 323.454 295.165 322.614 292.835 321.044C290.505 319.474 288.69 317.244 287.62 314.635C286.549 312.026 286.271 309.157 286.82 306.389C287.369 303.621 288.721 301.079 290.705 299.084C292.689 297.09 295.215 295.733 297.965 295.184C300.715 294.636 303.565 294.921 306.154 296.003C308.743 297.086 310.955 298.917 312.511 301.265C314.066 303.613 314.895 306.373 314.893 309.196C314.893 311.071 314.526 312.927 313.813 314.658C313.1 316.39 312.054 317.963 310.737 319.288C309.419 320.612 307.855 321.662 306.134 322.377C304.413 323.093 302.569 323.459 300.708 323.456Z" fill="#EBEBEB"/>
<path d="M346.599 320.967C346.599 329.625 343.183 337.93 337.102 344.052C331.022 350.175 322.774 353.615 314.175 353.615L296.695 353.615C294.504 353.616 292.402 354.493 290.852 356.053C289.302 357.612 288.43 359.727 288.427 361.934L288.427 362.319C288.426 363.952 288.931 365.544 289.873 366.874C290.814 368.203 292.145 369.204 293.678 369.735C294.486 370.017 295.336 370.159 296.191 370.154L293.713 370.224L275.961 370.679L275.77 370.679C273.576 370.679 271.471 369.802 269.917 368.242C268.364 366.681 267.489 364.563 267.484 362.354C267.484 360.146 266.613 358.028 265.063 356.467C263.512 354.906 261.409 354.028 259.216 354.028L187.374 354.028C178.775 354.028 170.527 350.589 164.447 344.466C158.366 338.343 154.95 330.039 154.95 321.38L154.95 320.955C154.951 313.13 156.482 305.381 159.457 298.152C162.432 290.923 166.792 284.354 172.287 278.821C177.783 273.288 184.308 268.9 191.488 265.906C198.668 262.912 206.364 261.372 214.135 261.372L287.402 261.372C303.1 261.374 318.154 267.653 329.255 278.828C340.356 290.003 346.594 305.161 346.599 320.967Z" stroke="black" stroke-width="5.23453" stroke-miterlimit="10"/>
<path d="M530.038 341.675C530.003 341.675 529.986 341.64 529.951 341.64C516.223 337.477 509.541 328.977 506.646 320.827C506.646 320.827 506.646 320.827 506.646 320.792C504.382 314.437 504.434 308.286 505.251 304.613C505.74 302.668 506.05 300.681 506.177 298.678C506.368 293.006 502.234 294.393 490.411 296.766C484.98 297.874 481.506 295.798 479.769 292.848C479.6 292.591 479.453 292.32 479.329 292.038C478.519 290.321 478.183 288.416 478.356 286.523" stroke="black" stroke-width="5.23453" stroke-miterlimit="10"/>
<path d="M471.553 319.194C471.345 318.897 471.13 318.611 470.922 318.384C469.092 316.279 466.996 316.524 463.719 317.801C462.897 318.116 460.824 318.028 459.186 317.451C457.808 316.955 456.777 316.098 457.246 314.816C457.367 314.552 457.546 314.32 457.77 314.137C457.993 313.954 458.256 313.825 458.537 313.761C459.083 313.622 459.636 313.511 460.193 313.428C465.815 312.163 464.559 305.61 463.876 301.5C462.22 291.158 464.42 278.985 471.431 270.922C479.155 262.054 491.789 260.206 502.46 264.264C511.846 267.832 520.675 275.574 522.505 285.922C522.505 285.957 522.505 285.992 522.54 286.027C522.575 286.062 522.54 286.115 522.54 286.15C523.623 292.615 522.54 299.623 521.283 306.018C520.531 309.808 520.814 312.904 521.862 315.463C525.145 323.841 536.222 326.762 545.15 330.907C566.277 340.707 583.491 357.462 595.094 377.838C604.254 393.999 606.425 403.939 605.922 410.072C605.221 418.31 599.674 419.651 599.674 419.651C594.984 422.443 587.776 419.441 586.328 414.206C586.307 414.15 586.295 414.091 586.293 414.031C585.135 409.548 582.877 403.787 579.843 397.485" stroke="black" stroke-width="5.23453" stroke-miterlimit="10"/>
<path d="M478.333 286.523C478.333 289.642 476.874 292.72 473.701 294.032C470.135 295.513 468.687 299.413 468.166 303.208C467.438 308.766 468.625 314.406 471.53 319.188C474.222 323.689 478.605 328.65 484.812 328.65C496.184 328.65 501.059 323.13 501.059 323.13" stroke="black" stroke-width="5.23453" stroke-miterlimit="10"/>
<path d="M490.139 304.998C491.207 304.998 492.073 304.126 492.073 303.051C492.073 301.976 491.207 301.104 490.139 301.104C489.071 301.104 488.205 301.976 488.205 303.051C488.205 304.126 489.071 304.998 490.139 304.998Z" fill="black"/>
<path d="M473.128 306.135C474.196 306.135 475.062 305.263 475.062 304.188C475.062 303.112 474.196 302.241 473.128 302.241C472.06 302.241 471.194 303.112 471.194 304.188C471.194 305.263 472.06 306.135 473.128 306.135Z" fill="black"/>
<path d="M481.471 301.22C481.471 301.22 480.504 308.91 480.892 309.965C481.28 311.021 483.7 309.814 483.7 309.814" stroke="black" stroke-width="5.23453" stroke-miterlimit="10"/>
<path d="M485.055 316.542C489.195 318.075 493.468 316.122 494.719 312.373" stroke="black" stroke-width="5.23453" stroke-miterlimit="10"/>
<path d="M488.199 328.651L498.743 353.871C498.743 353.871 519.083 359.38 524.028 340.002" stroke="black" stroke-width="5.23453" stroke-miterlimit="10"/>
<path d="M288.149 459.363C296.112 456.835 300.28 447.482 297.459 438.472C294.637 429.463 285.895 424.208 277.932 426.736C269.97 429.264 265.801 438.618 268.623 447.627C271.444 456.637 280.186 461.891 288.149 459.363Z" fill="#EBEBEB"/>
<path d="M485.385 510.447C485.16 489.92 481.564 469.637 479.908 461.359" stroke="black" stroke-width="5.23453" stroke-miterlimit="10"/>
</g>
<defs>
<filter id="filter0_i_337_32" x="40.2294" y="56.5353" width="671.045" height="613.971" filterUnits="userSpaceOnUse" color-interpolation-filters="sRGB">
<feFlood flood-opacity="0" result="BackgroundImageFix"/>
<feBlend mode="normal" in="SourceGraphic" in2="BackgroundImageFix" result="shape"/>
<feColorMatrix in="SourceAlpha" type="matrix" values="0 0 0 0 0 0 0 0 0 0 0 0 0 0 0 0 0 0 127 0" result="hardAlpha"/>
<feOffset dx="2" dy="8"/>
<feGaussianBlur stdDeviation="7"/>
<feComposite in2="hardAlpha" operator="arithmetic" k2="-1" k3="1"/>
<feColorMatrix type="matrix" values="0 0 0 0 0 0 0 0 0 0 0 0 0 0 0 0 0 0 0.1 0"/>
<feBlend mode="normal" in2="shape" result="effect1_innerShadow_337_32"/>
</filter>
</defs>
</svg>
