<svg width="657" height="581" viewBox="0 0 657 581" fill="none" xmlns="http://www.w3.org/2000/svg">
<g filter="url(#filter0_i_181_91)">
<path fill-rule="evenodd" clip-rule="evenodd" d="M253.375 478.647C227.596 463.904 209.791 438.63 183.006 425.812C140.829 405.629 60.5621 428.119 51.5844 382.08C41.8049 331.929 145.737 319.815 152.449 269.113C159.029 219.406 73.304 186.687 83.9374 137.68C92.7384 97.119 152.347 88.676 193.12 81.6689C229.661 75.3892 266.121 88.6093 301.254 100.333C327.936 109.237 345.641 138.001 373.508 141.864C411.32 147.107 449.758 112.617 485.546 125.882C519.415 138.436 565.357 174.297 553.598 208.617C536.27 259.189 528.599 240.305 530.011 293.714C531.747 359.379 547.944 376.727 559.75 441.309C567.338 482.823 505.862 510.01 466.211 524.271C427.642 538.142 385.106 527.086 345.096 518.51C312.085 511.433 282.684 495.408 253.375 478.647Z" fill="#F0EFFF"/>
</g>
<path d="M313.5 106L329.5 108H336.5L342.5 114L339.5 129.5L333.5 135L329.5 138.5L324.5 141.5V145.5V150.5L326 153L329.5 159.5L326 165.5L322.5 169.5C320.5 169.833 315.9 170.3 313.5 169.5C310.5 168.5 302 166 301 165.5C300.2 165.1 297 163 295.5 162L291.5 153L295.5 148V141.5L296.5 133.5L295.5 128L293.5 122.5V118V112.5L298.5 110.5L303.5 108L307.5 106H313.5Z" fill="white" stroke="white"/>
<path d="M282.5 221H292.5L330 224L350 219L374.5 213L383.5 211.5L385.5 221L387.5 245L397 263.5L405.5 267.5L410 269.5V274.5L405.5 280H418.5H429L432 288.5L429 298.5L423 305.5L414 307H407.5L393 308H374.5H360L328 303H314C308.667 302.833 297.8 302.3 297 301.5C296.2 300.7 280 292.5 272 288.5L261 278L244.5 266L241.5 247.5L243 237L251 229.5L259 224L269.5 221H282.5Z" fill="white" stroke="#DFDFDF"/>
<path d="M249 309.5L240.5 306V308V317L245 325L249 332L253 338.5L258.5 348.5L267.5 356L304.5 375.5L315.5 380L324.5 382L336 386.5L346 388.5L371 405.5L379.5 417.5L385.5 429L420 513L423 519L429.5 523L437 526.5L448 530L457 532H465L469.5 528.5L467 510.5L459.5 477L451.5 444L444.5 405.5C457.7 341.1 423.333 313.667 404.5 308H399H391.5L385 306L376.5 308L369 306H350L320 302L299.5 308L289.5 311H283L270 313L258.5 311L249 309.5Z" fill="white" stroke="white"/>
<path d="M237.915 306.727C276.986 327.492 324.647 303.026 322.408 302.6C248.548 288.267 242.022 246.681 242.022 246.681C256.767 214.527 296.96 224.879 296.96 224.879C298.123 270.509 358.977 273.078 358.977 273.078C362.886 258.273 362.671 223.705 362.671 223.705C381.115 212.197 384.849 217.081 384.849 217.081C379.033 171.4 355.609 156.672 355.609 156.672C351.706 153.428 334.262 146.134 325.305 145.19L324.985 146.456C324.985 146.456 334.041 166.639 316.684 167.968C302.079 169.11 293.778 153.065 291.516 147.972C272.524 153.225 254.4 164.983 242.342 184.762C213.817 231.554 237.915 306.727 237.915 306.727Z" fill="black"/>
<path d="M233.692 287.037L138.759 343.101C120.349 353.971 122.717 378.712 142.906 386.639L254.004 430.276C264.336 434.333 275.664 435.949 286.898 434.968C298.133 433.987 308.895 430.442 318.15 424.674L360.815 398.054" stroke="black" stroke-width="4.21" stroke-miterlimit="10"/>
<path d="M233.692 305.117L236.886 303.228L138.741 361.171C120.332 372.041 122.699 396.782 142.889 404.709L253.987 448.346C264.319 452.403 275.647 454.019 286.881 453.038C298.115 452.057 308.878 448.512 318.133 442.745L372.379 408.265" stroke="black" stroke-width="4.21" stroke-miterlimit="10"/>
<path d="M147.845 384.25L249.956 424.362C259.452 428.089 269.863 429.573 280.187 428.671C290.512 427.769 300.402 424.512 308.908 419.212L348.037 394.679C342.649 390.994 336.612 388.134 330.174 386.217C314.044 381.328 298.303 375.471 283.059 368.687C271.487 363.578 261.322 356.251 253.29 347.229C245.258 338.208 239.557 327.715 236.596 316.5C234.548 308.739 232.751 300.891 231.279 293L141.412 346.017C124.497 356.005 129.296 376.972 147.845 384.25Z" fill="#A7A3FF"/>
<path d="M414.195 499.795C414.195 499.795 396.291 493.171 392.859 488.177C392.859 488.177 392.213 499.515 395.564 503.387C398.914 507.26 418.935 517.497 420.011 516.215C421.087 514.933 414.195 499.795 414.195 499.795Z" fill="#00427D"/>
<path d="M469.307 526.81C469.307 526.81 466.05 530.755 454.492 526.81C442.935 522.865 417.789 508.335 417.789 508.335C417.789 508.335 424.804 525.144 427.346 526.992C429.888 528.84 477.91 549.833 477.91 549.833C477.91 549.833 499.379 552.558 491.288 538.931L469.307 526.81Z" fill="#00427D"/>
<path d="M400.194 307.184C426.66 316.377 454.667 337.977 446.611 397.795L444.371 413.337" stroke="black" stroke-width="4.21" stroke-miterlimit="10"/>
<path d="M400.235 268.121C395.907 262.608 391.998 256.648 389.602 250.232C387.205 243.816 387.083 236.865 386.414 230.116C384.634 212.02 381.877 197.054 374.054 180.198C367.278 165.611 346.809 146.82 326.445 145.039L324.612 144.899" stroke="black" stroke-width="4.21" stroke-miterlimit="10"/>
<path d="M349.048 305.86C349.147 305.605 349.246 305.367 349.351 305.117" stroke="black" stroke-width="4.21" stroke-miterlimit="10"/>
<path d="M358.977 271.957C359.978 266.709 360.722 261.621 361.304 256.794C361.302 256.703 361.314 256.612 361.339 256.524C364.387 229.566 361.304 209.954 361.304 209.954" stroke="black" stroke-width="4.21" stroke-miterlimit="10"/>
<path d="M287.834 108.343L292.487 109.963C292.487 110.092 292.487 111.712 292.685 113.98C292.901 116.69 293.384 119.377 294.127 122.011C293.714 120.215 293.115 115.948 295.744 112.979C295.785 112.918 295.832 112.861 295.884 112.807C297.629 110.933 299.781 111.676 301.509 112.963C302.702 113.864 303.744 114.913 304.603 116.078C304.302 112.61 304.999 109.131 306.627 105.971C307.689 103.815 309.098 101.809 310.809 100.016C308.174 108.115 311.554 113.415 311.554 113.415C320.482 115.289 326.677 114.889 331.296 114.178C335.187 110.938 333.838 99.274 333.838 99.274C337.752 102.129 336.81 113.176 336.81 113.176C337.31 110.293 337.249 107.355 336.63 104.491C338.574 106.945 339.698 109.842 339.869 112.844L339.939 112.812C340.209 112.751 340.475 112.676 340.736 112.589C341.215 112.364 341.679 112.115 342.126 111.842L344.703 110.284C340.812 92.5671 327.207 81.4269 306.185 84.6973C304.813 84.9084 303.463 85.2209 302.148 85.6317C288.299 92.0739 287.834 108.343 287.834 108.343Z" fill="#FF7A82"/>
<path d="M407.796 280.896L413.095 266.662C413.213 266.33 413.423 266.031 413.706 265.792C413.988 265.553 414.335 265.383 414.712 265.296C414.759 265.296 414.811 265.296 414.863 265.265C414.916 265.234 414.927 265.265 414.962 265.265C415.084 265.258 415.207 265.258 415.329 265.265C415.917 265.267 416.482 265.467 416.911 265.826C417.341 266.181 417.685 266.611 417.92 267.09C418.155 267.569 418.277 268.086 418.278 268.608C418.277 269.017 418.205 269.424 418.063 269.813C416.899 272.818 414.829 278.243 413.846 280.714" fill="#3FBDF1"/>
<path d="M408.994 280.896L414.706 265.296C414.753 265.296 414.805 265.296 414.858 265.265C414.91 265.234 414.922 265.265 414.956 265.265L417.952 264.746C419.552 264.481 421.151 264.196 422.751 263.931C424.67 263.589 426.601 263.303 428.515 262.893C428.967 262.779 429.431 262.709 429.899 262.685C430.489 262.684 431.056 262.887 431.482 263.251C431.916 263.605 432.261 264.037 432.497 264.518C432.732 264.999 432.852 265.519 432.848 266.044C432.851 266.448 432.779 266.85 432.633 267.233C431.348 270.597 428.899 276.961 428.119 278.892L408.994 280.896Z" fill="#FF7A82"/>
<path d="M296.059 209.949C296.64 215.727 296.943 222.719 297.146 231.508C297.146 250.196 320.297 265.67 340.87 269.211L378.597 276.816C383.582 277.678 387.996 274.9 391.463 273.057C395.029 271.163 398.682 268.905 401.253 267.228C404.952 264.814 412.077 266.755 410.617 272.512C410.303 273.607 409.709 274.622 408.883 275.478C408.057 276.335 407.02 277.009 405.854 277.449C405.197 277.712 404.52 277.934 403.829 278.114C403.572 278.171 403.343 278.303 403.178 278.489C403.013 278.674 402.922 278.903 402.918 279.14C402.914 279.377 402.998 279.608 403.156 279.798C403.315 279.988 403.539 280.126 403.794 280.19C407.063 281.197 413.049 281.794 422.704 278.633C435.076 274.568 436.036 299.766 419.121 304.152H419.057C403.475 308.357 386.705 307.817 370.599 307.215C352.309 306.597 334.11 304.615 316.19 301.292C307.075 299.569 297.711 297.778 289.369 294.097C275.002 287.759 264.649 280.491 254.801 269.18C243.75 256.498 239.032 239.86 236.368 224.261C233.32 206.414 237.532 191.344 248.252 175.983L248.647 175.423" stroke="black" stroke-width="4.21" stroke-miterlimit="10"/>
<path d="M407.796 280.896L413.095 266.662C413.213 266.33 413.423 266.031 413.706 265.792C413.988 265.553 414.335 265.383 414.712 265.296C414.759 265.296 414.811 265.296 414.863 265.265C414.916 265.234 414.927 265.265 414.962 265.265C415.084 265.258 415.207 265.258 415.329 265.265C415.917 265.267 416.482 265.467 416.911 265.826C417.341 266.181 417.685 266.611 417.92 267.09C418.155 267.569 418.277 268.086 418.278 268.608C418.277 269.017 418.205 269.424 418.063 269.813C416.899 272.818 414.829 278.243 413.846 280.714" stroke="black" stroke-width="4.21" stroke-miterlimit="10"/>
<path d="M414.706 265.296C414.753 265.296 414.805 265.296 414.858 265.265C414.91 265.234 414.922 265.265 414.956 265.265L417.952 264.746C419.552 264.481 421.151 264.196 422.751 263.931C424.67 263.589 426.601 263.303 428.515 262.893C428.967 262.779 429.431 262.709 429.899 262.685C430.489 262.684 431.056 262.887 431.482 263.251C431.916 263.605 432.261 264.037 432.497 264.518C432.732 264.999 432.852 265.519 432.848 266.044C432.851 266.448 432.779 266.85 432.633 267.233C431.348 270.597 428.899 276.961 428.119 278.892" stroke="black" stroke-width="4.21" stroke-miterlimit="10"/>
<path d="M341.678 112.335C341.678 119.083 340.207 125.536 336.577 131.495C333.669 136.282 329.399 141.104 323.292 142.687C321.938 143.036 320.536 143.211 319.127 143.207C308.762 143.165 307.145 132.207 307.145 132.207" stroke="black" stroke-width="4.21" stroke-miterlimit="10"/>
<path d="M293.034 116.249V116.28C293.514 119.629 294.34 122.93 295.5 126.143C296.886 129.976 297.214 134.051 296.454 138.021L294.843 146.383C294.769 146.756 294.58 147.103 294.296 147.384C294.012 147.665 293.645 147.868 293.237 147.972C272.786 153.272 254.632 164.968 244.069 181.854C230.895 202.941 228.492 228.336 229.557 252.007C230.493 272.528 234.21 292.929 239.486 312.899C242.711 325.105 248.916 336.524 257.657 346.342C266.399 356.16 277.462 364.134 290.056 369.695C306.629 377.081 323.744 383.455 341.283 388.773C350.568 391.517 359.051 396.073 366.115 402.11C373.179 408.147 378.647 415.513 382.122 423.673L423.338 521.484C424.853 525.095 427.841 528.062 431.703 529.79L471.198 547.497C476.185 549.725 481.874 550.369 487.327 549.324C488.741 549.052 490.03 548.406 491.027 547.47C492.023 546.535 492.681 545.353 492.915 544.08C493.148 542.806 492.947 541.499 492.336 540.329C491.725 539.158 490.734 538.18 489.491 537.519L469.319 526.81L441.579 400.603C439.627 389.344 434.966 378.595 427.916 369.097C420.867 359.598 411.596 351.574 400.741 345.577C399.293 344.79 397.785 344.096 396.227 343.501L336.095 320.198" stroke="black" stroke-width="4.21" stroke-miterlimit="10"/>
<path d="M309.565 83.4774C312.779 82.7937 316.107 82.6423 319.383 83.031C319.518 83.0337 319.652 83.0441 319.785 83.0622" stroke="black" stroke-width="4.21" stroke-miterlimit="10"/>
<path d="M324.13 145.205C324.13 145.205 334.768 166.972 315.742 168.046C298.67 169.022 292.406 148.32 292.406 148.32" stroke="black" stroke-width="4.21" stroke-miterlimit="10"/>
<path d="M294.372 122.805C294.249 122.406 292.417 116.503 295.919 112.787C299.42 109.07 304.167 115.444 304.644 116.083C303.713 106.931 310.839 99.9904 310.839 99.9904C308.209 108.094 311.595 113.389 311.595 113.389C324.607 116.109 331.767 114.038 336.845 113.145C337.344 110.264 337.281 107.327 336.659 104.465C338.608 106.913 339.732 109.808 339.898 112.807H339.98C341.913 112.349 343.746 111.603 345.401 110.601L347.978 109.044C344.081 91.3316 330.481 80.1811 309.46 83.4515C288.439 86.7219 287.851 108.296 287.851 108.296L292.534 109.921C292.534 109.921 292.493 117.043 294.372 122.805Z" stroke="black" stroke-width="4.21" stroke-miterlimit="10"/>
<path d="M333.523 121.881V130.493C333.523 130.598 333.494 130.702 333.44 130.795C333.387 130.888 333.309 130.969 333.214 131.03C333.119 131.092 333.009 131.133 332.893 131.15C332.777 131.166 332.658 131.158 332.546 131.127C331.787 130.903 331.09 130.538 330.499 130.057" stroke="black" stroke-width="4.21" stroke-miterlimit="10"/>
<path d="M339.294 128.419C336.25 127.36 335.12 123.44 336.77 119.663C338.42 115.886 342.225 113.683 345.269 114.742C348.313 115.801 349.443 119.721 347.793 123.498C346.143 127.275 342.338 129.479 339.294 128.419Z" stroke="black" stroke-width="4.21" stroke-miterlimit="10"/>
<path d="M320.977 130.882C317.933 129.823 316.803 125.902 318.453 122.125C320.103 118.348 323.909 116.145 326.953 117.204C329.996 118.263 331.126 122.184 329.476 125.961C327.826 129.738 324.021 131.941 320.977 130.882Z" stroke="black" stroke-width="4.21" stroke-miterlimit="10"/>
<path d="M336.083 122.328C336.083 122.328 334.28 120.49 330.499 122.644" stroke="black" stroke-width="4.21" stroke-miterlimit="10"/>
<path d="M324.985 142.142C324.985 142.142 323.676 146.098 319.825 158.92" stroke="black" stroke-width="4.21" stroke-miterlimit="10"/>
<path d="M421.39 516.864L398.705 505.936C397.405 505.307 396.296 504.404 395.476 503.306C394.656 502.208 394.149 500.947 393.999 499.634C390.23 466.593 391.381 445.704 391.381 445.704" stroke="black" stroke-width="4.21" stroke-miterlimit="10"/>
<path d="M441.981 347.415L529.283 292.965" stroke="black" stroke-width="4.21" stroke-miterlimit="10"/>
<path d="M446.925 362.417L529.283 311.046" stroke="black" stroke-width="4.21" stroke-miterlimit="10"/>
<path d="M112.974 258.922V303.498C112.974 305.542 113.639 307.542 114.888 309.255C116.138 310.968 117.918 312.321 120.012 313.148L181.959 337.63L200.898 363.315C201.386 363.952 202.087 364.434 202.902 364.692C203.717 364.949 204.602 364.968 205.43 364.747C206.258 364.526 206.985 364.075 207.507 363.46C208.028 362.845 208.317 362.098 208.332 361.327V348.058L214.684 350.566C216.096 351.117 217.641 351.347 219.177 351.233C220.714 351.12 222.195 350.668 223.488 349.918C224.78 349.167 225.843 348.142 226.582 346.934C227.32 345.726 227.711 344.373 227.719 342.997V305.772C227.718 301.129 226.196 296.587 223.341 292.706C220.485 288.825 216.421 285.774 211.647 283.927L126.515 250.99C125.041 250.419 123.431 250.184 121.83 250.306C120.229 250.429 118.688 250.905 117.344 251.692C116.001 252.479 114.898 253.552 114.135 254.814C113.372 256.076 112.973 257.488 112.974 258.922Z" fill="#D7E8F0"/>
<path d="M188.964 317.185C185.913 311.931 186.739 306.146 190.809 304.263C194.879 302.38 200.651 305.113 203.703 310.366C206.754 315.62 205.928 321.405 201.859 323.288C197.789 325.171 192.016 322.438 188.964 317.185Z" fill="white"/>
<path d="M162.508 307.079C159.457 301.825 160.282 296.04 164.352 294.157C168.422 292.274 174.195 295.007 177.246 300.261C180.298 305.514 179.472 311.299 175.402 313.182C171.332 315.065 165.559 312.332 162.508 307.079Z" fill="white"/>
<path d="M136.942 296.165C133.89 290.912 134.716 285.127 138.786 283.244C142.856 281.361 148.629 284.094 151.68 289.347C154.731 294.601 153.906 300.386 149.836 302.269C145.766 304.152 139.993 301.419 136.942 296.165Z" fill="white"/>
<defs>
<filter id="filter0_i_181_91" x="50.9358" y="80.0506" width="509.455" height="454.802" filterUnits="userSpaceOnUse" color-interpolation-filters="sRGB">
<feFlood flood-opacity="0" result="BackgroundImageFix"/>
<feBlend mode="normal" in="SourceGraphic" in2="BackgroundImageFix" result="shape"/>
<feColorMatrix in="SourceAlpha" type="matrix" values="0 0 0 0 0 0 0 0 0 0 0 0 0 0 0 0 0 0 127 0" result="hardAlpha"/>
<feOffset dy="4"/>
<feGaussianBlur stdDeviation="5"/>
<feComposite in2="hardAlpha" operator="arithmetic" k2="-1" k3="1"/>
<feColorMatrix type="matrix" values="0 0 0 0 0 0 0 0 0 0 0 0 0 0 0 0 0 0 0.25 0"/>
<feBlend mode="normal" in2="shape" result="effect1_innerShadow_181_91"/>
</filter>
</defs>
</svg>
