<svg width="64" height="64" viewBox="0 0 64 64" fill="none" xmlns="http://www.w3.org/2000/svg">
<circle opacity="0.2" cx="32" cy="32" r="32" fill="#A7A3FF"/>
<circle cx="32" cy="32" r="26" fill="#918BFF"/>
<path d="M40.3939 29.2666C39.9818 28.903 39.4727 28.6848 38.8909 28.6848H35.4C35.1333 28.6848 34.8909 28.4666 34.8909 28.1757V24.6848C34.8909 24.103 34.6485 23.5939 34.2848 23.206C33.8969 22.8182 33.3879 22.6 32.806 22.6H30.7454C30.1636 22.6 29.6545 22.8424 29.2666 23.206C28.8788 23.5939 28.6606 24.103 28.6606 24.6848V28.1757C28.6606 28.4424 28.4424 28.6848 28.1515 28.6848H24.6848C24.103 28.6848 23.5939 28.9272 23.206 29.2909C22.8182 29.6788 22.6 30.1879 22.6 30.7697V32.8303C22.6 33.4121 22.8424 33.9212 23.206 34.3091C23.5939 34.6969 24.103 34.9151 24.6848 34.9151H28.1757C28.4424 34.9151 28.6848 35.1333 28.6848 35.4242V38.9151C28.6848 39.4969 28.9272 40.006 29.2909 40.3939C29.6788 40.7818 30.1879 41 30.7697 41H32.8303C33.4121 41 33.9212 40.7575 34.3091 40.3939C34.6969 40.006 34.9151 39.4969 34.9151 38.9151V35.4C34.9151 35.1333 35.1333 34.8909 35.4242 34.8909H38.9151C39.4969 34.8909 40.006 34.6485 40.3939 34.2848C40.7818 33.8969 41 33.3879 41 32.806V30.7454C41 30.1636 40.7575 29.6545 40.3939 29.2666Z" fill="#00305B"/>
</svg>
