<svg width="1431" height="914" viewBox="0 0 1431 914" fill="none" xmlns="http://www.w3.org/2000/svg">
<path d="M-9 914L-9 14L476.483 14C519.327 14 560.678 29.7439 592.674 58.2385L595.941 61.1477C661.222 119.286 759.967 118.392 824.186 59.0825C855.571 30.0967 896.725 14 939.447 14L1431 14L1431 914L-9 914Z" fill="#F0EFFF"/>
<path d="M-9 1.00006L476.483 1.00006C519.327 1.00006 560.678 16.744 592.674 45.2386L595.941 48.1478C661.222 106.286 759.967 105.392 824.186 46.0826V46.0826C855.571 17.0967 896.725 1.00006 939.447 1.00006L1431 1.00006" stroke="#5847A2"/>
</svg>
