<svg width="1439" height="272" viewBox="0 0 1439 272" fill="none" xmlns="http://www.w3.org/2000/svg">
<g filter="url(#filter0_d_188_388)">
<path d="M1 -229L1 135.863L488.57 135.863C529.984 135.863 570.372 148.747 604.135 172.73L616.607 181.59C681.929 227.991 770.109 225.419 832.615 175.289C864.434 149.77 904.003 135.863 944.792 135.863L1439 135.863V-229L1 -229Z" fill="#D5D3FF"/>
</g>
<g filter="url(#filter1_d_188_388)">
<path d="M78.32 40.4054C78.4894 40.1569 79.0258 39.924 79.9291 39.7066C80.8607 39.4581 81.7358 39.3339 82.5544 39.3339C83.3731 39.3339 84.0505 39.4581 84.5869 39.7066C82.5262 57.8449 81.4958 67.2247 81.4958 67.8459C81.4958 68.467 81.6652 69.0261 82.0039 69.5231C82.3709 69.9889 82.8932 70.2219 83.5707 70.2219C85.4338 70.2219 87.0993 67.4111 88.5672 61.7894C88.5672 61.7273 88.5813 61.6497 88.6095 61.5565C88.6378 61.4633 88.6519 61.4012 88.6519 61.3701C89.894 62.2398 90.6985 62.7833 91.0655 63.0007C90.1339 66.9141 88.9765 69.9113 87.5933 71.9922C86.2101 74.0421 84.4316 75.0671 82.258 75.0671C80.0843 75.0671 78.6165 73.9334 77.8542 71.6661H77.7272C76.8521 72.8774 75.8782 73.7471 74.8055 74.2751C73.7328 74.8031 72.3919 75.0671 70.7829 75.0671C68.1293 75.0671 66.0827 74.3061 64.6431 72.7842C63.2316 71.2624 62.5259 69.0882 62.5259 66.2619C62.5259 65.6718 62.5682 65.0195 62.6529 64.3052L63.8385 53.4035C61.0438 51.2294 59.6465 48.667 59.6465 45.7164C59.6465 43.7597 60.1828 42.2068 61.2555 41.0576C62.3283 39.9085 63.6973 39.3339 65.3629 39.3339C68.8351 39.3339 70.5711 41.3527 70.5711 45.3903C70.5711 46.0426 70.5288 46.7725 70.4441 47.58L68.2846 65.796C68.2563 66.0134 68.2422 66.3395 68.2422 66.7744C68.2422 67.9857 68.4963 68.964 69.0044 69.7094C69.5126 70.4548 70.2888 70.8275 71.3333 70.8275C73.8457 70.8275 75.3277 68.6844 75.7794 64.3984L78.32 40.4054ZM63.7962 43.62C62.8364 43.62 62.3565 44.2722 62.3565 45.5767C62.3565 46.8501 63.0057 48.108 64.3043 49.3503L64.4313 48.139C64.6007 46.524 64.6995 45.5146 64.7277 45.1108C64.7277 44.1169 64.4172 43.62 63.7962 43.62ZM98.5841 69.5696L99.6003 59.1805C99.6003 58.3419 99.4027 57.6431 99.0075 57.084C98.6124 56.5249 97.949 56.2454 97.0174 56.2454C96.1141 56.2454 95.3378 56.6957 94.6885 57.5965C94.0675 58.4661 93.6723 59.5687 93.5029 60.9043C92.4866 69.4144 91.9503 74.0421 91.8938 74.7875H86.1774L88.5063 52.8445C89.6919 52.5028 90.5953 52.332 91.2163 52.332C93.1077 52.332 94.0957 53.0929 94.1804 54.6148C95.5636 53.124 97.215 52.3786 99.1346 52.3786C101.083 52.3786 102.607 52.9066 103.707 53.9626C104.809 55.0186 105.359 56.3541 105.359 57.9692C105.359 58.404 105.275 59.227 105.105 60.4383C104.456 65.1593 104.131 67.908 104.131 68.6844C104.131 70.1132 104.569 70.8275 105.444 70.8275C107.363 70.8275 108.817 68.6224 109.805 64.212C110.765 65.3301 111.344 66.2153 111.541 66.8675C110.045 72.3339 107.448 75.0671 103.75 75.0671C102 75.0671 100.701 74.4769 99.8544 73.2967C99.0075 72.1165 98.5841 70.8741 98.5841 69.5696ZM120.88 52.332C122.913 52.332 124.663 53.2482 126.131 55.0807C127.599 56.9132 128.333 59.0562 128.333 61.5099C128.333 61.8515 128.319 62.2087 128.29 62.5814C127.98 66.6501 126.738 69.756 124.564 71.8991C122.391 74.011 119.553 75.0671 116.053 75.0671C114.642 75.0049 113.414 74.7254 112.369 74.2285C111.325 73.7315 110.549 73.1104 110.04 72.3649C109.081 70.9984 108.601 69.787 108.601 68.7311C108.601 67.644 108.742 65.9047 109.024 63.5132C109.617 58.6059 110.464 50.6704 111.565 39.7066C112.157 39.4581 112.948 39.3339 113.936 39.3339C116.194 39.3339 117.324 40.0482 117.324 41.4769L115.884 53.8694C117.211 52.8445 118.876 52.332 120.88 52.332ZM114.317 68.405C114.317 69.1193 114.557 69.725 115.037 70.2219C115.545 70.6878 116.237 70.9207 117.112 70.9207C118.552 70.9207 119.737 70.1908 120.669 68.7311C121.798 66.9607 122.362 64.6623 122.362 61.836C122.362 60.4694 122.08 59.2581 121.516 58.2021C120.951 57.1461 120.076 56.6181 118.89 56.6181C117.281 56.6181 116.053 57.6741 115.206 59.7861L114.867 62.5814C114.501 65.7183 114.317 67.6595 114.317 68.405ZM149.027 52.8445C147.87 62.9075 147.291 68.2652 147.291 68.9174C147.291 70.1598 147.7 70.7809 148.519 70.7809C149.253 70.7809 150.043 70.2374 150.89 69.1504C151.765 68.0322 152.457 66.3706 152.965 64.1654C153.897 65.2835 154.461 66.1532 154.658 66.7744C154.01 69.787 152.979 71.9146 151.568 73.1569C150.156 74.3993 148.702 75.0205 147.206 75.0205C144.75 75.0205 143.099 73.98 142.252 71.8991C140.784 73.98 138.822 75.0205 136.366 75.0205C134.334 75.0205 132.767 74.4614 131.666 73.3433C130.565 72.2252 130.015 70.7654 130.015 68.964C130.015 68.5292 130.085 67.7683 130.227 66.6812C130.875 60.9043 131.369 56.3075 131.708 52.891C132.584 52.5494 133.388 52.3786 134.122 52.3786C134.856 52.3786 135.407 52.4097 135.773 52.4717C136.141 52.5339 136.493 52.7668 136.832 53.1706C137.171 53.5743 137.34 54.1489 137.34 54.8943L135.943 66.7744C135.886 67.147 135.858 67.4887 135.858 67.7993C135.858 69.6318 136.62 70.548 138.145 70.548C139.556 70.548 140.728 69.787 141.659 68.2652C141.659 67.9235 141.687 67.38 141.744 66.6346L143.141 54.2421C143.339 53.7141 143.762 53.2793 144.411 52.9376C145.061 52.5649 145.866 52.3786 146.825 52.3786C147.813 52.3786 148.547 52.5339 149.027 52.8445ZM169.303 60.5315C171.533 62.3329 172.648 64.4605 172.648 66.9141C172.648 69.3678 171.773 71.34 170.022 72.8308C168.272 74.3216 166.071 75.0671 163.417 75.0671C161.695 75.0671 160.255 74.6012 159.098 73.6694C157.969 72.7066 157.404 71.5263 157.404 70.1287C157.404 68.7311 157.828 67.6285 158.674 66.8209C159.521 65.9823 160.58 65.4699 161.85 65.2835C161.257 66.2153 160.961 67.116 160.961 67.9857C160.961 68.8242 161.229 69.5075 161.766 70.0355C162.302 70.5635 162.979 70.8275 163.798 70.8275C164.617 70.8275 165.294 70.5014 165.83 69.8492C166.367 69.1659 166.635 68.3894 166.635 67.5198C166.635 66.091 166.028 64.8177 164.814 63.6995C164.08 63.0473 163.29 62.4417 162.443 61.8826C161.596 61.2924 161.144 60.9819 161.088 60.9508C160.975 60.8576 160.862 60.78 160.749 60.7179C160.241 61.3701 159.507 62.2708 158.547 63.42C157.588 64.5381 156.825 65.4388 156.261 66.1221C154.68 68.0167 153.791 69.6007 153.593 70.8741C153.537 71.1226 153.508 71.604 153.508 72.3184C153.508 73.0017 153.692 73.716 154.059 74.4614C154.454 75.2068 154.92 75.7659 155.456 76.1386C155.993 76.5113 156.515 76.8064 157.023 77.0238C157.559 77.2722 158.011 77.4431 158.378 77.5362C158.773 77.6294 158.971 77.6915 158.971 77.7226C158.971 77.94 158.66 78.1885 158.039 78.468C156.882 78.9339 155.668 79.1668 154.398 79.1668C153.155 79.1668 151.942 78.6699 150.756 77.676C149.147 76.3094 148.343 74.4925 148.343 72.2252C148.343 70.8275 148.667 69.4454 149.316 68.0788C150.474 65.6562 153.184 62.3329 157.446 58.1089C156.402 56.9598 155.88 55.7329 155.88 54.4284C155.88 53.124 156.317 52.0214 157.192 51.1207C158.096 50.22 159.154 49.7696 160.368 49.7696C161.469 49.7696 162.429 50.2511 163.248 51.2139C163.784 51.8661 164.052 52.6891 164.052 53.683C164.052 54.6769 163.756 55.7951 163.163 57.0374C166.183 58.5282 168.23 59.6929 169.303 60.5315ZM160.114 55.2671C160.792 54.4906 161.13 53.9315 161.13 53.5899C161.13 52.8134 160.82 52.3941 160.199 52.332C159.493 52.332 159.14 52.7668 159.14 53.6365C159.14 54.1645 159.465 54.708 160.114 55.2671Z" fill="url(#paint0_linear_188_388)"/>
</g>
<g filter="url(#filter2_d_188_388)">
<path d="M185.162 59.8273C185.162 57.8085 184.343 56.7991 182.706 56.7991C181.492 56.7991 180.405 57.56 179.446 59.0819C178.429 60.728 177.921 62.6536 177.921 64.8588C177.921 67.064 178.359 68.7723 179.234 69.9836C180.137 71.1638 181.365 71.7539 182.918 71.7539C184.781 71.7539 186.743 70.9153 188.803 69.2381C190.893 67.5609 192.572 65.48 193.842 62.9953C194.407 63.4612 194.957 64.3153 195.494 65.5577C194.675 67.3591 193.151 69.3779 190.921 71.6141C189.763 72.7944 188.324 73.7883 186.602 74.5958C184.738 75.4654 182.875 75.9002 181.012 75.9002C178.5 75.9002 176.369 74.9529 174.618 73.0584C172.896 71.1638 172.035 68.6946 172.035 65.6508C172.035 61.9548 173.165 58.9576 175.423 56.6593C177.681 54.3609 180.208 53.2118 183.002 53.2118C185.176 53.2118 186.898 53.7087 188.168 54.7026C189.439 55.6965 190.074 57.0009 190.074 58.616C190.074 59.672 189.735 60.5882 189.058 61.3647C187.815 62.7313 186.305 63.4146 184.527 63.4146C184.95 61.8616 185.162 60.6659 185.162 59.8273ZM210.6 75.8537C208.003 75.8537 206.281 74.8598 205.434 72.872C203.966 74.8909 202.075 75.9002 199.76 75.9002C197.473 75.9002 195.54 75.0461 193.959 73.3379C192.406 71.6297 191.63 69.3779 191.63 66.5826C191.63 62.5139 192.717 59.2682 194.89 56.8457C197.064 54.4231 199.816 53.2118 203.147 53.2118C203.232 53.2118 203.317 53.2118 203.401 53.2118C204.813 53.2118 206.111 53.4758 207.297 54.0038C208.059 53.4758 208.976 53.2118 210.05 53.2118C211.15 53.2118 211.941 53.3671 212.421 53.6777C212.167 55.976 211.898 58.2433 211.616 60.4795C211.334 62.6847 211.136 64.2532 211.023 65.185C210.769 67.297 210.642 68.8188 210.642 69.7506C210.642 70.993 211.094 71.6141 211.997 71.6141C212.703 71.6141 213.451 71.1017 214.242 70.0767C215.032 69.0207 215.724 67.3746 216.316 65.1383C217.135 65.9459 217.7 66.8466 218.01 67.8405C217.191 70.7911 216.09 72.872 214.707 74.0833C213.324 75.2635 211.955 75.8537 210.6 75.8537ZM203.783 56.8457C201.976 56.8457 200.536 57.6066 199.463 59.1285C198.419 60.6193 197.798 62.8555 197.6 65.8372C197.572 66.1167 197.558 66.3807 197.558 66.6292C197.558 68.1511 197.883 69.3624 198.532 70.2631C199.209 71.1638 200.07 71.6141 201.115 71.6141C202.893 71.6141 204.234 70.232 205.137 67.4678L206.154 57.4047C205.335 57.032 204.545 56.8457 203.783 56.8457ZM232.655 61.3647C234.885 63.1661 236 65.2937 236 67.7473C236 70.201 235.125 72.1732 233.374 73.664C231.624 75.1548 229.422 75.9002 226.769 75.9002C225.047 75.9002 223.607 75.4344 222.45 74.5026C221.321 73.5398 220.756 72.3595 220.756 70.9619C220.756 69.5643 221.179 68.4617 222.026 67.6541C222.873 66.8155 223.932 66.3031 225.202 66.1167C224.609 67.0485 224.313 67.9492 224.313 68.8188C224.313 69.6574 224.581 70.3407 225.118 70.8687C225.654 71.3967 226.331 71.6607 227.15 71.6607C227.969 71.6607 228.646 71.3346 229.182 70.6824C229.719 69.9991 229.987 69.2226 229.987 68.353C229.987 66.9243 229.38 65.6508 228.166 64.5327C227.432 63.8805 226.642 63.2748 225.795 62.7158C224.948 62.1257 224.496 61.8151 224.44 61.784C224.327 61.6908 224.214 61.6132 224.101 61.551C223.593 62.2033 222.859 63.104 221.899 64.2532C220.939 65.3713 220.177 66.272 219.613 66.9553C218.032 68.8499 217.143 70.4339 216.945 71.7073C216.888 71.9558 216.86 72.4372 216.86 73.1516C216.86 73.8348 217.044 74.5492 217.411 75.2946C217.806 76.04 218.272 76.5991 218.808 76.9718C219.345 77.3445 219.867 77.6395 220.375 77.857C220.911 78.1054 221.363 78.2763 221.73 78.3695C222.125 78.4626 222.323 78.5247 222.323 78.5558C222.323 78.7732 222.012 79.0217 221.391 79.3012C220.234 79.7671 219.02 80 217.75 80C216.508 80 215.294 79.5031 214.108 78.5092C212.499 77.1426 211.695 75.3257 211.695 73.0584C211.695 71.6607 212.019 70.2786 212.668 68.912C213.826 66.4894 216.536 63.1661 220.798 58.9421C219.754 57.793 219.232 56.5661 219.232 55.2616C219.232 53.9572 219.669 52.8546 220.544 51.9539C221.448 51.0532 222.506 50.6028 223.72 50.6028C224.821 50.6028 225.781 51.0842 226.6 52.0471C227.136 52.6993 227.404 53.5224 227.404 54.5162C227.404 55.5101 227.107 56.6282 226.515 57.8706C229.535 59.3614 231.582 60.5261 232.655 61.3647ZM223.466 56.1002C224.143 55.3238 224.482 54.7647 224.482 54.4231C224.482 53.6466 224.172 53.2273 223.551 53.1652C222.845 53.1652 222.492 53.6 222.492 54.4696C222.492 54.9977 222.817 55.5412 223.466 56.1002Z" fill="url(#paint1_linear_188_388)"/>
</g>
<path d="M126.211 63.3342C126.211 68.9111 122.503 72.8861 117.836 73.2171C108.748 73.8616 110.351 69.4888 110.351 63.1194C110.351 57.8375 110.886 53.2365 117.746 53.2365C122.421 53.2365 126.211 57.7574 126.211 63.3342Z" fill="url(#paint2_linear_188_388)"/>
<path d="M119.717 69.2564C122.181 69.2564 124.178 66.815 124.178 63.8035C124.178 60.7919 122.181 58.3506 119.717 58.3506C117.253 58.3506 115.255 60.7919 115.255 63.8035C115.255 66.815 117.253 69.2564 119.717 69.2564Z" fill="white"/>
<path d="M119.545 67.1591C120.966 67.1591 122.118 65.7506 122.118 64.0132C122.118 62.2758 120.966 60.8673 119.545 60.8673C118.123 60.8673 116.971 62.2758 116.971 64.0132C116.971 65.7506 118.123 67.1591 119.545 67.1591Z" fill="#00305B"/>
<path d="M121.836 61.9207C121.836 62.4999 121.452 62.9694 120.978 62.9694C120.504 62.9694 120.12 62.4999 120.12 61.9207C120.12 61.3416 120.504 60.8721 120.978 60.8721C121.452 60.8721 121.836 61.3416 121.836 61.9207Z" fill="white"/>
<path d="M115.232 66.3146L113.166 68.4455C112.807 68.8157 112.776 69.4609 113.097 69.8867C113.418 70.3124 113.97 70.3574 114.329 69.9873L116.395 67.8564C116.754 67.4862 116.785 66.8409 116.463 66.4152C116.142 65.9895 115.591 65.9444 115.232 66.3146Z" fill="white"/>
<path d="M1 144.537L488.639 144.537C529.983 144.537 570.144 158.337 602.755 183.751V183.751C669.444 235.72 763.882 235.255 830.955 183.783V183.783C863.815 158.566 904.548 144.537 945.968 144.537L1439.52 144.537" stroke="#5847A2"/>
<defs>
<filter id="filter0_d_188_388" x="0" y="-235" width="1440" height="449.715" filterUnits="userSpaceOnUse" color-interpolation-filters="sRGB">
<feFlood flood-opacity="0" result="BackgroundImageFix"/>
<feColorMatrix in="SourceAlpha" type="matrix" values="0 0 0 0 0 0 0 0 0 0 0 0 0 0 0 0 0 0 127 0" result="hardAlpha"/>
<feOffset dy="-5"/>
<feGaussianBlur stdDeviation="0.5"/>
<feComposite in2="hardAlpha" operator="out"/>
<feColorMatrix type="matrix" values="0 0 0 0 0 0 0 0 0 0 0 0 0 0 0 0 0 0 0.08 0"/>
<feBlend mode="normal" in2="BackgroundImageFix" result="effect1_dropShadow_188_388"/>
<feBlend mode="normal" in="SourceGraphic" in2="effect1_dropShadow_188_388" result="shape"/>
</filter>
<filter id="filter1_d_188_388" x="52.6431" y="39.3339" width="127.008" height="53.8397" filterUnits="userSpaceOnUse" color-interpolation-filters="sRGB">
<feFlood flood-opacity="0" result="BackgroundImageFix"/>
<feColorMatrix in="SourceAlpha" type="matrix" values="0 0 0 0 0 0 0 0 0 0 0 0 0 0 0 0 0 0 127 0" result="hardAlpha"/>
<feOffset dy="7.00337"/>
<feGaussianBlur stdDeviation="3.50168"/>
<feComposite in2="hardAlpha" operator="out"/>
<feColorMatrix type="matrix" values="0 0 0 0 0 0 0 0 0 0 0 0 0 0 0 0 0 0 0.13 0"/>
<feBlend mode="normal" in2="BackgroundImageFix" result="effect1_dropShadow_188_388"/>
<feBlend mode="normal" in="SourceGraphic" in2="effect1_dropShadow_188_388" result="shape"/>
</filter>
<filter id="filter2_d_188_388" x="165.032" y="50.6028" width="77.9716" height="43.4039" filterUnits="userSpaceOnUse" color-interpolation-filters="sRGB">
<feFlood flood-opacity="0" result="BackgroundImageFix"/>
<feColorMatrix in="SourceAlpha" type="matrix" values="0 0 0 0 0 0 0 0 0 0 0 0 0 0 0 0 0 0 127 0" result="hardAlpha"/>
<feOffset dy="7.00337"/>
<feGaussianBlur stdDeviation="3.50168"/>
<feComposite in2="hardAlpha" operator="out"/>
<feColorMatrix type="matrix" values="0 0 0 0 0 0 0 0 0 0 0 0 0 0 0 0 0 0 0.13 0"/>
<feBlend mode="normal" in2="BackgroundImageFix" result="effect1_dropShadow_188_388"/>
<feBlend mode="normal" in="SourceGraphic" in2="effect1_dropShadow_188_388" result="shape"/>
</filter>
<linearGradient id="paint0_linear_188_388" x1="162.168" y1="39.3088" x2="162.168" y2="96.2798" gradientUnits="userSpaceOnUse">
<stop stop-color="#00427D"/>
<stop offset="0.0001" stop-color="#00427D"/>
<stop offset="1" stop-color="#00305B"/>
</linearGradient>
<linearGradient id="paint1_linear_188_388" x1="229.563" y1="40.142" x2="229.563" y2="97.1126" gradientUnits="userSpaceOnUse">
<stop stop-color="#00427D"/>
<stop offset="1" stop-color="#00305B"/>
</linearGradient>
<linearGradient id="paint2_linear_188_388" x1="118.37" y1="43.5685" x2="118.161" y2="73.2796" gradientUnits="userSpaceOnUse">
<stop stop-color="#00427D"/>
<stop offset="1" stop-color="#00305B"/>
</linearGradient>
</defs>
</svg>