<svg width="96" height="51" viewBox="0 0 96 51" fill="none" xmlns="http://www.w3.org/2000/svg">
<g filter="url(#filter0_d_188_1961)">
<path d="M27.814 2.148C28.03 1.86 28.714 1.59 29.866 1.338C31.054 1.05 32.17 0.905998 33.214 0.905998C34.258 0.905998 35.122 1.05 35.806 1.338C33.178 22.362 31.864 33.234 31.864 33.954C31.864 34.674 32.08 35.322 32.512 35.898C32.98 36.438 33.646 36.708 34.51 36.708C36.886 36.708 39.01 33.45 40.882 26.934C40.882 26.862 40.9 26.772 40.936 26.664C40.972 26.556 40.99 26.484 40.99 26.448C42.574 27.456 43.6 28.086 44.068 28.338C42.88 32.874 41.404 36.348 39.64 38.76C37.876 41.136 35.608 42.324 32.836 42.324C30.064 42.324 28.192 41.01 27.22 38.382H27.058C25.942 39.786 24.7 40.794 23.332 41.406C21.964 42.018 20.254 42.324 18.202 42.324C14.818 42.324 12.208 41.442 10.372 39.678C8.572 37.914 7.672 35.394 7.672 32.118C7.672 31.434 7.726 30.678 7.834 29.85L9.346 17.214C5.782 14.694 4 11.724 4 8.304C4 6.036 4.684 4.236 6.052 2.904C7.42 1.572 9.166 0.905998 11.29 0.905998C15.718 0.905998 17.932 3.246 17.932 7.926C17.932 8.682 17.878 9.528 17.77 10.464L15.016 31.578C14.98 31.83 14.962 32.208 14.962 32.712C14.962 34.116 15.286 35.25 15.934 36.114C16.582 36.978 17.572 37.41 18.904 37.41C22.108 37.41 23.998 34.926 24.574 29.958L27.814 2.148ZM9.292 5.874C8.068 5.874 7.456 6.63 7.456 8.142C7.456 9.618 8.284 11.076 9.94 12.516L10.102 11.112C10.318 9.24 10.444 8.07 10.48 7.602C10.48 6.45 10.084 5.874 9.292 5.874ZM53.6564 35.952L54.9524 23.91C54.9524 22.938 54.7004 22.128 54.1964 21.48C53.6924 20.832 52.8464 20.508 51.6584 20.508C50.5064 20.508 49.5164 21.03 48.6884 22.074C47.8964 23.082 47.3924 24.36 47.1764 25.908C45.8804 35.772 45.1964 41.136 45.1244 42H37.8344L40.8044 16.566C42.3164 16.17 43.4684 15.972 44.2604 15.972C46.6724 15.972 47.9324 16.854 48.0404 18.618C49.8044 16.89 51.9104 16.026 54.3584 16.026C56.8424 16.026 58.7864 16.638 60.1904 17.862C61.5944 19.086 62.2964 20.634 62.2964 22.506C62.2964 23.01 62.1884 23.964 61.9724 25.368C61.1444 30.84 60.7304 34.026 60.7304 34.926C60.7304 36.582 61.2884 37.41 62.4044 37.41C64.8524 37.41 66.7064 34.854 67.9664 29.742C69.1904 31.038 69.9284 32.064 70.1804 32.82C68.2724 39.156 64.9604 42.324 60.2444 42.324C58.0124 42.324 56.3564 41.64 55.2764 40.272C54.1964 38.904 53.6564 37.464 53.6564 35.952ZM82.0903 15.972C84.6823 15.972 86.9143 17.034 88.7863 19.158C90.6583 21.282 91.5943 23.766 91.5943 26.61C91.5943 27.006 91.5763 27.42 91.5403 27.852C91.1443 32.568 89.5603 36.168 86.7883 38.652C84.0163 41.1 80.3983 42.324 75.9343 42.324C74.1343 42.252 72.5683 41.928 71.2363 41.352C69.9043 40.776 68.9143 40.056 68.2663 39.192C67.0423 37.608 66.4303 36.204 66.4303 34.98C66.4303 33.72 66.6103 31.704 66.9703 28.932C67.7263 23.244 68.8063 14.046 70.2103 1.338C70.9663 1.05 71.9743 0.905998 73.2343 0.905998C76.1143 0.905998 77.5543 1.734 77.5543 3.39L75.7183 17.754C77.4103 16.566 79.5343 15.972 82.0903 15.972ZM73.7203 34.602C73.7203 35.43 74.0263 36.132 74.6383 36.708C75.2863 37.248 76.1683 37.518 77.2843 37.518C79.1203 37.518 80.6323 36.672 81.8203 34.98C83.2603 32.928 83.9803 30.264 83.9803 26.988C83.9803 25.404 83.6203 24 82.9003 22.776C82.1803 21.552 81.0643 20.94 79.5523 20.94C77.5003 20.94 75.9343 22.164 74.8543 24.612L74.4223 27.852C73.9543 31.488 73.7203 33.738 73.7203 34.602Z" fill="url(#paint0_linear_188_1961)"/>
</g>
<path d="M90.8498 27.6312C90.8498 33.2732 85.9255 37.2947 79.7269 37.6296C67.6573 38.2817 69.7873 33.8577 69.7873 27.4138C69.7873 22.0702 70.4972 17.4154 79.6069 17.4154C85.8162 17.4154 90.8498 21.9891 90.8498 27.6312Z" fill="url(#paint1_linear_188_1961)"/>
<ellipse cx="80.8365" cy="27.828" rx="7.33331" ry="6.82804" fill="white"/>
<ellipse cx="80.5546" cy="28.0906" rx="4.23076" ry="3.93926" fill="#00305B"/>
<path d="M84.3199 25.4706C84.3199 26.1958 83.6885 26.7836 82.9096 26.7836C82.1308 26.7836 81.4994 26.1958 81.4994 25.4706C81.4994 24.7454 82.1308 24.1575 82.9096 24.1575C83.6885 24.1575 84.3199 24.7454 84.3199 25.4706Z" fill="white"/>
<rect width="7.03639" height="2.71721" rx="1.35861" transform="matrix(0.786354 -0.617777 0.703704 0.710493 69 34.4801)" fill="white"/>
<defs>
<filter id="filter0_d_188_1961" x="0" y="0.906006" width="95.5944" height="49.418" filterUnits="userSpaceOnUse" color-interpolation-filters="sRGB">
<feFlood flood-opacity="0" result="BackgroundImageFix"/>
<feColorMatrix in="SourceAlpha" type="matrix" values="0 0 0 0 0 0 0 0 0 0 0 0 0 0 0 0 0 0 127 0" result="hardAlpha"/>
<feOffset dy="4"/>
<feGaussianBlur stdDeviation="2"/>
<feComposite in2="hardAlpha" operator="out"/>
<feColorMatrix type="matrix" values="0 0 0 0 0 0 0 0 0 0 0 0 0 0 0 0 0 0 0.13 0"/>
<feBlend mode="normal" in2="BackgroundImageFix" result="effect1_dropShadow_188_1961"/>
<feBlend mode="normal" in="SourceGraphic" in2="effect1_dropShadow_188_1961" result="shape"/>
</filter>
<linearGradient id="paint0_linear_188_1961" x1="49" y1="1" x2="49" y2="43" gradientUnits="userSpaceOnUse">
<stop stop-color="#00427D"/>
<stop offset="0.0001" stop-color="#00427D"/>
<stop offset="1" stop-color="#00305B"/>
<stop offset="1" stop-color="#00305B"/>
</linearGradient>
<linearGradient id="paint1_linear_188_1961" x1="80.4369" y1="7.63434" x2="80.2759" y2="37.6934" gradientUnits="userSpaceOnUse">
<stop stop-color="#00427D"/>
<stop offset="1" stop-color="#00305B"/>
</linearGradient>
</defs>
</svg>
